<?xml version="1.0" encoding="utf-8" standalone="no"?>
<!DOCTYPE svg PUBLIC "-//W3C//DTD SVG 1.1//EN"
  "http://www.w3.org/Graphics/SVG/1.1/DTD/svg11.dtd">
<svg xmlns:xlink="http://www.w3.org/1999/xlink" width="572.4pt" height="486.3pt" viewBox="0 0 572.4 486.3" xmlns="http://www.w3.org/2000/svg" version="1.1">
 <metadata>
  <rdf:RDF xmlns:dc="http://purl.org/dc/elements/1.1/" xmlns:cc="http://creativecommons.org/ns#" xmlns:rdf="http://www.w3.org/1999/02/22-rdf-syntax-ns#">
   <cc:Work>
    <dc:type rdf:resource="http://purl.org/dc/dcmitype/StillImage"/>
    <dc:date>2026-04-19T14:57:50.156161</dc:date>
    <dc:format>image/svg+xml</dc:format>
    <dc:creator>
     <cc:Agent>
      <dc:title>Matplotlib v3.10.8, https://matplotlib.org/</dc:title>
     </cc:Agent>
    </dc:creator>
   </cc:Work>
  </rdf:RDF>
 </metadata>
 <defs>
  <style type="text/css">*{stroke-linejoin: round; stroke-linecap: butt}</style>
 </defs>
 <g id="figure_1">
  <g id="patch_1">
   <path d="M 0 486.3 
L 572.4 486.3 
L 572.4 -0 
L 0 -0 
z
" style="fill: #ffffff"/>
  </g>
  <g id="axes_1">
   <g id="patch_2">
    <path d="M 7.2 479.1 
L 350.4 479.1 
L 350.4 7.2 
L 7.2 7.2 
z
" style="fill: #ffffff"/>
   </g>
   <g id="line2d_1">
    <path d="M 7.2 243.15 
L 350.4 243.15 
" clip-path="url(#p0dc9e60e9f)" style="fill: none; stroke: #000000; stroke-opacity: 0.25; stroke-linecap: square"/>
   </g>
   <g id="line2d_2">
    <path d="M 178.8 414.75 
L 178.8 71.55 
" clip-path="url(#p0dc9e60e9f)" style="fill: none; stroke: #bdbdbd; stroke-width: 2; stroke-linecap: round"/>
   </g>
   <g id="line2d_3">
    <path d="M 50.1 200.25 
L 307.5 200.25 
" clip-path="url(#p0dc9e60e9f)" style="fill: none; stroke: #bdbdbd; stroke-width: 2; stroke-linecap: round"/>
   </g>
   <g id="line2d_4">
    <path d="M 50.1 286.05 
L 307.5 286.05 
" clip-path="url(#p0dc9e60e9f)" style="fill: none; stroke: #bdbdbd; stroke-width: 2; stroke-linecap: round"/>
   </g>
   <g id="line2d_5">
    <path d="M 93 157.35 
L 264.6 157.35 
" clip-path="url(#p0dc9e60e9f)" style="fill: none; stroke: #bdbdbd; stroke-width: 2; stroke-linecap: round"/>
   </g>
   <g id="line2d_6">
    <path d="M 93 328.95 
L 264.6 328.95 
" clip-path="url(#p0dc9e60e9f)" style="fill: none; stroke: #bdbdbd; stroke-width: 2; stroke-linecap: round"/>
   </g>
   <g id="line2d_7">
    <path d="M 135.9 114.45 
L 221.7 114.45 
" clip-path="url(#p0dc9e60e9f)" style="fill: none; stroke: #bdbdbd; stroke-width: 2; stroke-linecap: round"/>
   </g>
   <g id="line2d_8">
    <path d="M 135.9 371.85 
L 221.7 371.85 
" clip-path="url(#p0dc9e60e9f)" style="fill: none; stroke: #bdbdbd; stroke-width: 2; stroke-linecap: round"/>
   </g>
   <g id="line2d_9">
    <path d="M 178.8 71.55 
L 178.8 71.55 
" clip-path="url(#p0dc9e60e9f)" style="fill: none; stroke: #bdbdbd; stroke-width: 2; stroke-linecap: round"/>
   </g>
   <g id="line2d_10">
    <path d="M 178.8 414.75 
L 178.8 414.75 
" clip-path="url(#p0dc9e60e9f)" style="fill: none; stroke: #bdbdbd; stroke-width: 2; stroke-linecap: round"/>
   </g>
   <g id="matplotlib.axis_1">
    <g id="xtick_1">
     <g id="line2d_11">
      <path d="M 7.2 479.1 
L 7.2 7.2 
" clip-path="url(#p0dc9e60e9f)" style="fill: none; stroke-dasharray: 0.8,1.32; stroke-dashoffset: 0; stroke: #b0b0b0; stroke-opacity: 0.5; stroke-width: 0.8"/>
     </g>
    </g>
    <g id="xtick_2">
     <g id="line2d_12">
      <path d="M 50.1 479.1 
L 50.1 7.2 
" clip-path="url(#p0dc9e60e9f)" style="fill: none; stroke-dasharray: 0.8,1.32; stroke-dashoffset: 0; stroke: #b0b0b0; stroke-opacity: 0.5; stroke-width: 0.8"/>
     </g>
    </g>
    <g id="xtick_3">
     <g id="line2d_13">
      <path d="M 93 479.1 
L 93 7.2 
" clip-path="url(#p0dc9e60e9f)" style="fill: none; stroke-dasharray: 0.8,1.32; stroke-dashoffset: 0; stroke: #b0b0b0; stroke-opacity: 0.5; stroke-width: 0.8"/>
     </g>
    </g>
    <g id="xtick_4">
     <g id="line2d_14">
      <path d="M 135.9 479.1 
L 135.9 7.2 
" clip-path="url(#p0dc9e60e9f)" style="fill: none; stroke-dasharray: 0.8,1.32; stroke-dashoffset: 0; stroke: #b0b0b0; stroke-opacity: 0.5; stroke-width: 0.8"/>
     </g>
    </g>
    <g id="xtick_5">
     <g id="line2d_15">
      <path d="M 178.8 479.1 
L 178.8 7.2 
" clip-path="url(#p0dc9e60e9f)" style="fill: none; stroke-dasharray: 0.8,1.32; stroke-dashoffset: 0; stroke: #b0b0b0; stroke-opacity: 0.5; stroke-width: 0.8"/>
     </g>
    </g>
    <g id="xtick_6">
     <g id="line2d_16">
      <path d="M 221.7 479.1 
L 221.7 7.2 
" clip-path="url(#p0dc9e60e9f)" style="fill: none; stroke-dasharray: 0.8,1.32; stroke-dashoffset: 0; stroke: #b0b0b0; stroke-opacity: 0.5; stroke-width: 0.8"/>
     </g>
    </g>
    <g id="xtick_7">
     <g id="line2d_17">
      <path d="M 264.6 479.1 
L 264.6 7.2 
" clip-path="url(#p0dc9e60e9f)" style="fill: none; stroke-dasharray: 0.8,1.32; stroke-dashoffset: 0; stroke: #b0b0b0; stroke-opacity: 0.5; stroke-width: 0.8"/>
     </g>
    </g>
    <g id="xtick_8">
     <g id="line2d_18">
      <path d="M 307.5 479.1 
L 307.5 7.2 
" clip-path="url(#p0dc9e60e9f)" style="fill: none; stroke-dasharray: 0.8,1.32; stroke-dashoffset: 0; stroke: #b0b0b0; stroke-opacity: 0.5; stroke-width: 0.8"/>
     </g>
    </g>
    <g id="xtick_9">
     <g id="line2d_19">
      <path d="M 350.4 479.1 
L 350.4 7.2 
" clip-path="url(#p0dc9e60e9f)" style="fill: none; stroke-dasharray: 0.8,1.32; stroke-dashoffset: 0; stroke: #b0b0b0; stroke-opacity: 0.5; stroke-width: 0.8"/>
     </g>
    </g>
   </g>
   <g id="matplotlib.axis_2">
    <g id="ytick_1">
     <g id="line2d_20">
      <path d="M 7.2 457.65 
L 350.4 457.65 
" clip-path="url(#p0dc9e60e9f)" style="fill: none; stroke-dasharray: 0.8,1.32; stroke-dashoffset: 0; stroke: #b0b0b0; stroke-opacity: 0.5; stroke-width: 0.8"/>
     </g>
    </g>
    <g id="ytick_2">
     <g id="line2d_21">
      <path d="M 7.2 414.75 
L 350.4 414.75 
" clip-path="url(#p0dc9e60e9f)" style="fill: none; stroke-dasharray: 0.8,1.32; stroke-dashoffset: 0; stroke: #b0b0b0; stroke-opacity: 0.5; stroke-width: 0.8"/>
     </g>
    </g>
    <g id="ytick_3">
     <g id="line2d_22">
      <path d="M 7.2 371.85 
L 350.4 371.85 
" clip-path="url(#p0dc9e60e9f)" style="fill: none; stroke-dasharray: 0.8,1.32; stroke-dashoffset: 0; stroke: #b0b0b0; stroke-opacity: 0.5; stroke-width: 0.8"/>
     </g>
    </g>
    <g id="ytick_4">
     <g id="line2d_23">
      <path d="M 7.2 328.95 
L 350.4 328.95 
" clip-path="url(#p0dc9e60e9f)" style="fill: none; stroke-dasharray: 0.8,1.32; stroke-dashoffset: 0; stroke: #b0b0b0; stroke-opacity: 0.5; stroke-width: 0.8"/>
     </g>
    </g>
    <g id="ytick_5">
     <g id="line2d_24">
      <path d="M 7.2 286.05 
L 350.4 286.05 
" clip-path="url(#p0dc9e60e9f)" style="fill: none; stroke-dasharray: 0.8,1.32; stroke-dashoffset: 0; stroke: #b0b0b0; stroke-opacity: 0.5; stroke-width: 0.8"/>
     </g>
    </g>
    <g id="ytick_6">
     <g id="line2d_25">
      <path d="M 7.2 243.15 
L 350.4 243.15 
" clip-path="url(#p0dc9e60e9f)" style="fill: none; stroke-dasharray: 0.8,1.32; stroke-dashoffset: 0; stroke: #b0b0b0; stroke-opacity: 0.5; stroke-width: 0.8"/>
     </g>
    </g>
    <g id="ytick_7">
     <g id="line2d_26">
      <path d="M 7.2 200.25 
L 350.4 200.25 
" clip-path="url(#p0dc9e60e9f)" style="fill: none; stroke-dasharray: 0.8,1.32; stroke-dashoffset: 0; stroke: #b0b0b0; stroke-opacity: 0.5; stroke-width: 0.8"/>
     </g>
    </g>
    <g id="ytick_8">
     <g id="line2d_27">
      <path d="M 7.2 157.35 
L 350.4 157.35 
" clip-path="url(#p0dc9e60e9f)" style="fill: none; stroke-dasharray: 0.8,1.32; stroke-dashoffset: 0; stroke: #b0b0b0; stroke-opacity: 0.5; stroke-width: 0.8"/>
     </g>
    </g>
    <g id="ytick_9">
     <g id="line2d_28">
      <path d="M 7.2 114.45 
L 350.4 114.45 
" clip-path="url(#p0dc9e60e9f)" style="fill: none; stroke-dasharray: 0.8,1.32; stroke-dashoffset: 0; stroke: #b0b0b0; stroke-opacity: 0.5; stroke-width: 0.8"/>
     </g>
    </g>
    <g id="ytick_10">
     <g id="line2d_29">
      <path d="M 7.2 71.55 
L 350.4 71.55 
" clip-path="url(#p0dc9e60e9f)" style="fill: none; stroke-dasharray: 0.8,1.32; stroke-dashoffset: 0; stroke: #b0b0b0; stroke-opacity: 0.5; stroke-width: 0.8"/>
     </g>
    </g>
    <g id="ytick_11">
     <g id="line2d_30">
      <path d="M 7.2 28.65 
L 350.4 28.65 
" clip-path="url(#p0dc9e60e9f)" style="fill: none; stroke-dasharray: 0.8,1.32; stroke-dashoffset: 0; stroke: #b0b0b0; stroke-opacity: 0.5; stroke-width: 0.8"/>
     </g>
    </g>
   </g>
   <g id="PathCollection_1">
    <defs>
     <path id="C0_0_5f84a1e04a" d="M 0 3.708099 
C 0.983399 3.708099 1.926654 3.317391 2.622022 2.622022 
C 3.317391 1.926654 3.708099 0.983399 3.708099 -0 
C 3.708099 -0.983399 3.317391 -1.926654 2.622022 -2.622022 
C 1.926654 -3.317391 0.983399 -3.708099 0 -3.708099 
C -0.983399 -3.708099 -1.926654 -3.317391 -2.622022 -2.622022 
C -3.317391 -1.926654 -3.708099 -0.983399 -3.708099 0 
C -3.708099 0.983399 -3.317391 1.926654 -2.622022 2.622022 
C -1.926654 3.317391 -0.983399 3.708099 0 3.708099 
z
"/>
    </defs>
    <g clip-path="url(#p0dc9e60e9f)">
     <use xlink:href="#C0_0_5f84a1e04a" x="178.8" y="200.25" style="fill: #d62728; stroke: #000000; stroke-width: 0.4"/>
    </g>
    <g clip-path="url(#p0dc9e60e9f)">
     <use xlink:href="#C0_0_5f84a1e04a" x="221.7" y="200.25" style="fill: #ff7f0e; stroke: #000000; stroke-width: 0.4"/>
    </g>
    <g clip-path="url(#p0dc9e60e9f)">
     <use xlink:href="#C0_0_5f84a1e04a" x="178.8" y="157.35" style="fill: #ff7f0e; stroke: #000000; stroke-width: 0.4"/>
    </g>
    <g clip-path="url(#p0dc9e60e9f)">
     <use xlink:href="#C0_0_5f84a1e04a" x="135.9" y="200.25" style="fill: #ff7f0e; stroke: #000000; stroke-width: 0.4"/>
    </g>
    <g clip-path="url(#p0dc9e60e9f)">
     <use xlink:href="#C0_0_5f84a1e04a" x="93" y="200.25" style="fill: #2ca02c; stroke: #000000; stroke-width: 0.4"/>
    </g>
    <g clip-path="url(#p0dc9e60e9f)">
     <use xlink:href="#C0_0_5f84a1e04a" x="135.9" y="157.35" style="fill: #2ca02c; stroke: #000000; stroke-width: 0.4"/>
    </g>
    <g clip-path="url(#p0dc9e60e9f)">
     <use xlink:href="#C0_0_5f84a1e04a" x="178.8" y="114.45" style="fill: #2ca02c; stroke: #000000; stroke-width: 0.4"/>
    </g>
    <g clip-path="url(#p0dc9e60e9f)">
     <use xlink:href="#C0_0_5f84a1e04a" x="221.7" y="157.35" style="fill: #2ca02c; stroke: #000000; stroke-width: 0.4"/>
    </g>
    <g clip-path="url(#p0dc9e60e9f)">
     <use xlink:href="#C0_0_5f84a1e04a" x="264.6" y="200.25" style="fill: #2ca02c; stroke: #000000; stroke-width: 0.4"/>
    </g>
    <g clip-path="url(#p0dc9e60e9f)">
     <use xlink:href="#C0_0_5f84a1e04a" x="307.5" y="200.25" style="fill: #1f77b4; stroke: #000000; stroke-width: 0.4"/>
    </g>
    <g clip-path="url(#p0dc9e60e9f)">
     <use xlink:href="#C0_0_5f84a1e04a" x="264.6" y="157.35" style="fill: #1f77b4; stroke: #000000; stroke-width: 0.4"/>
    </g>
    <g clip-path="url(#p0dc9e60e9f)">
     <use xlink:href="#C0_0_5f84a1e04a" x="221.7" y="114.45" style="fill: #1f77b4; stroke: #000000; stroke-width: 0.4"/>
    </g>
    <g clip-path="url(#p0dc9e60e9f)">
     <use xlink:href="#C0_0_5f84a1e04a" x="178.8" y="71.55" style="fill: #1f77b4; stroke: #000000; stroke-width: 0.4"/>
    </g>
    <g clip-path="url(#p0dc9e60e9f)">
     <use xlink:href="#C0_0_5f84a1e04a" x="135.9" y="114.45" style="fill: #1f77b4; stroke: #000000; stroke-width: 0.4"/>
    </g>
    <g clip-path="url(#p0dc9e60e9f)">
     <use xlink:href="#C0_0_5f84a1e04a" x="93" y="157.35" style="fill: #1f77b4; stroke: #000000; stroke-width: 0.4"/>
    </g>
    <g clip-path="url(#p0dc9e60e9f)">
     <use xlink:href="#C0_0_5f84a1e04a" x="50.1" y="200.25" style="fill: #1f77b4; stroke: #000000; stroke-width: 0.4"/>
    </g>
   </g>
   <g id="PathCollection_2">
    <defs>
     <path id="C1_0_297ca598bd" d="M 0 3.708099 
C 0.983399 3.708099 1.926654 3.317391 2.622022 2.622022 
C 3.317391 1.926654 3.708099 0.983399 3.708099 -0 
C 3.708099 -0.983399 3.317391 -1.926654 2.622022 -2.622022 
C 1.926654 -3.317391 0.983399 -3.708099 0 -3.708099 
C -0.983399 -3.708099 -1.926654 -3.317391 -2.622022 -2.622022 
C -3.317391 -1.926654 -3.708099 -0.983399 -3.708099 0 
C -3.708099 0.983399 -3.317391 1.926654 -2.622022 2.622022 
C -1.926654 3.317391 -0.983399 3.708099 0 3.708099 
z
"/>
    </defs>
    <g clip-path="url(#p0dc9e60e9f)">
     <use xlink:href="#C1_0_297ca598bd" x="178.8" y="286.05" style="fill: #d62728; stroke: #000000; stroke-width: 0.4"/>
    </g>
    <g clip-path="url(#p0dc9e60e9f)">
     <use xlink:href="#C1_0_297ca598bd" x="221.7" y="286.05" style="fill: #ff7f0e; stroke: #000000; stroke-width: 0.4"/>
    </g>
    <g clip-path="url(#p0dc9e60e9f)">
     <use xlink:href="#C1_0_297ca598bd" x="178.8" y="328.95" style="fill: #ff7f0e; stroke: #000000; stroke-width: 0.4"/>
    </g>
    <g clip-path="url(#p0dc9e60e9f)">
     <use xlink:href="#C1_0_297ca598bd" x="135.9" y="286.05" style="fill: #ff7f0e; stroke: #000000; stroke-width: 0.4"/>
    </g>
    <g clip-path="url(#p0dc9e60e9f)">
     <use xlink:href="#C1_0_297ca598bd" x="93" y="286.05" style="fill: #2ca02c; stroke: #000000; stroke-width: 0.4"/>
    </g>
    <g clip-path="url(#p0dc9e60e9f)">
     <use xlink:href="#C1_0_297ca598bd" x="135.9" y="328.95" style="fill: #2ca02c; stroke: #000000; stroke-width: 0.4"/>
    </g>
    <g clip-path="url(#p0dc9e60e9f)">
     <use xlink:href="#C1_0_297ca598bd" x="178.8" y="371.85" style="fill: #2ca02c; stroke: #000000; stroke-width: 0.4"/>
    </g>
    <g clip-path="url(#p0dc9e60e9f)">
     <use xlink:href="#C1_0_297ca598bd" x="221.7" y="328.95" style="fill: #2ca02c; stroke: #000000; stroke-width: 0.4"/>
    </g>
    <g clip-path="url(#p0dc9e60e9f)">
     <use xlink:href="#C1_0_297ca598bd" x="264.6" y="286.05" style="fill: #2ca02c; stroke: #000000; stroke-width: 0.4"/>
    </g>
    <g clip-path="url(#p0dc9e60e9f)">
     <use xlink:href="#C1_0_297ca598bd" x="307.5" y="286.05" style="fill: #1f77b4; stroke: #000000; stroke-width: 0.4"/>
    </g>
    <g clip-path="url(#p0dc9e60e9f)">
     <use xlink:href="#C1_0_297ca598bd" x="264.6" y="328.95" style="fill: #1f77b4; stroke: #000000; stroke-width: 0.4"/>
    </g>
    <g clip-path="url(#p0dc9e60e9f)">
     <use xlink:href="#C1_0_297ca598bd" x="221.7" y="371.85" style="fill: #1f77b4; stroke: #000000; stroke-width: 0.4"/>
    </g>
    <g clip-path="url(#p0dc9e60e9f)">
     <use xlink:href="#C1_0_297ca598bd" x="178.8" y="414.75" style="fill: #1f77b4; stroke: #000000; stroke-width: 0.4"/>
    </g>
    <g clip-path="url(#p0dc9e60e9f)">
     <use xlink:href="#C1_0_297ca598bd" x="135.9" y="371.85" style="fill: #1f77b4; stroke: #000000; stroke-width: 0.4"/>
    </g>
    <g clip-path="url(#p0dc9e60e9f)">
     <use xlink:href="#C1_0_297ca598bd" x="93" y="328.95" style="fill: #1f77b4; stroke: #000000; stroke-width: 0.4"/>
    </g>
    <g clip-path="url(#p0dc9e60e9f)">
     <use xlink:href="#C1_0_297ca598bd" x="50.1" y="286.05" style="fill: #1f77b4; stroke: #000000; stroke-width: 0.4"/>
    </g>
   </g>
   <g id="patch_3">
    <path d="M 7.2 479.1 
L 7.2 7.2 
" style="fill: none; stroke: #000000; stroke-width: 0.8; stroke-linejoin: miter; stroke-linecap: square"/>
   </g>
   <g id="patch_4">
    <path d="M 350.4 479.1 
L 350.4 7.2 
" style="fill: none; stroke: #000000; stroke-width: 0.8; stroke-linejoin: miter; stroke-linecap: square"/>
   </g>
   <g id="patch_5">
    <path d="M 7.2 479.1 
L 350.4 479.1 
" style="fill: none; stroke: #000000; stroke-width: 0.8; stroke-linejoin: miter; stroke-linecap: square"/>
   </g>
   <g id="patch_6">
    <path d="M 7.2 7.2 
L 350.4 7.2 
" style="fill: none; stroke: #000000; stroke-width: 0.8; stroke-linejoin: miter; stroke-linecap: square"/>
   </g>
   <g id="text_1">
    <!-- core -->
    <g style="fill: #ff0000" transform="translate(192.8 245.909375) scale(0.1 -0.1)">
     <defs>
      <path id="DejaVuSans-Bold-63" d="M 3366 3391 
L 3366 2478 
Q 3138 2634 2908 2709 
Q 2678 2784 2431 2784 
Q 1963 2784 1702 2511 
Q 1441 2238 1441 1747 
Q 1441 1256 1702 982 
Q 1963 709 2431 709 
Q 2694 709 2930 787 
Q 3166 866 3366 1019 
L 3366 103 
Q 3103 6 2833 -42 
Q 2563 -91 2291 -91 
Q 1344 -91 809 395 
Q 275 881 275 1747 
Q 275 2613 809 3098 
Q 1344 3584 2291 3584 
Q 2566 3584 2833 3536 
Q 3100 3488 3366 3391 
z
" transform="scale(0.015625)"/>
      <path id="DejaVuSans-Bold-6f" d="M 2203 2784 
Q 1831 2784 1636 2517 
Q 1441 2250 1441 1747 
Q 1441 1244 1636 976 
Q 1831 709 2203 709 
Q 2569 709 2762 976 
Q 2956 1244 2956 1747 
Q 2956 2250 2762 2517 
Q 2569 2784 2203 2784 
z
M 2203 3584 
Q 3106 3584 3614 3096 
Q 4122 2609 4122 1747 
Q 4122 884 3614 396 
Q 3106 -91 2203 -91 
Q 1297 -91 786 396 
Q 275 884 275 1747 
Q 275 2609 786 3096 
Q 1297 3584 2203 3584 
z
" transform="scale(0.015625)"/>
      <path id="DejaVuSans-Bold-72" d="M 3138 2547 
Q 2991 2616 2845 2648 
Q 2700 2681 2553 2681 
Q 2122 2681 1889 2404 
Q 1656 2128 1656 1613 
L 1656 0 
L 538 0 
L 538 3500 
L 1656 3500 
L 1656 2925 
Q 1872 3269 2151 3426 
Q 2431 3584 2822 3584 
Q 2878 3584 2943 3579 
Q 3009 3575 3134 3559 
L 3138 2547 
z
" transform="scale(0.015625)"/>
      <path id="DejaVuSans-Bold-65" d="M 4031 1759 
L 4031 1441 
L 1416 1441 
Q 1456 1047 1700 850 
Q 1944 653 2381 653 
Q 2734 653 3104 758 
Q 3475 863 3866 1075 
L 3866 213 
Q 3469 63 3072 -14 
Q 2675 -91 2278 -91 
Q 1328 -91 801 392 
Q 275 875 275 1747 
Q 275 2603 792 3093 
Q 1309 3584 2216 3584 
Q 3041 3584 3536 3087 
Q 4031 2591 4031 1759 
z
M 2881 2131 
Q 2881 2450 2695 2645 
Q 2509 2841 2209 2841 
Q 1884 2841 1681 2658 
Q 1478 2475 1428 2131 
L 2881 2131 
z
" transform="scale(0.015625)"/>
     </defs>
     <use xlink:href="#DejaVuSans-Bold-63"/>
     <use xlink:href="#DejaVuSans-Bold-6f" transform="translate(59.277344 0)"/>
     <use xlink:href="#DejaVuSans-Bold-72" transform="translate(127.978516 0)"/>
     <use xlink:href="#DejaVuSans-Bold-65" transform="translate(177.294922 0)"/>
    </g>
   </g>
   <g id="line2d_31">
    <path d="M 178.8 243.15 
L 178.8 328.95 
" clip-path="url(#p0dc9e60e9f)" style="fill: none; stroke: #ff0000; stroke-width: 3; stroke-linecap: square"/>
   </g>
   <g id="line2d_32">
    <path d="M 178.8 328.95 
L 221.7 328.95 
" clip-path="url(#p0dc9e60e9f)" style="fill: none; stroke: #ff0000; stroke-width: 3; stroke-linecap: square"/>
   </g>
   <g id="text_2">
    <!-- read only (arguments) -->
    <g style="fill: #4682b4" transform="translate(109.132188 26.276406) scale(0.11 -0.11)">
     <defs>
      <path id="DejaVuSans-Bold-61" d="M 2106 1575 
Q 1756 1575 1579 1456 
Q 1403 1338 1403 1106 
Q 1403 894 1545 773 
Q 1688 653 1941 653 
Q 2256 653 2472 879 
Q 2688 1106 2688 1447 
L 2688 1575 
L 2106 1575 
z
M 3816 1997 
L 3816 0 
L 2688 0 
L 2688 519 
Q 2463 200 2181 54 
Q 1900 -91 1497 -91 
Q 953 -91 614 226 
Q 275 544 275 1050 
Q 275 1666 698 1953 
Q 1122 2241 2028 2241 
L 2688 2241 
L 2688 2328 
Q 2688 2594 2478 2717 
Q 2269 2841 1825 2841 
Q 1466 2841 1156 2769 
Q 847 2697 581 2553 
L 581 3406 
Q 941 3494 1303 3539 
Q 1666 3584 2028 3584 
Q 2975 3584 3395 3211 
Q 3816 2838 3816 1997 
z
" transform="scale(0.015625)"/>
      <path id="DejaVuSans-Bold-64" d="M 2919 2988 
L 2919 4863 
L 4044 4863 
L 4044 0 
L 2919 0 
L 2919 506 
Q 2688 197 2409 53 
Q 2131 -91 1766 -91 
Q 1119 -91 703 423 
Q 288 938 288 1747 
Q 288 2556 703 3070 
Q 1119 3584 1766 3584 
Q 2128 3584 2408 3439 
Q 2688 3294 2919 2988 
z
M 2181 722 
Q 2541 722 2730 984 
Q 2919 1247 2919 1747 
Q 2919 2247 2730 2509 
Q 2541 2772 2181 2772 
Q 1825 2772 1636 2509 
Q 1447 2247 1447 1747 
Q 1447 1247 1636 984 
Q 1825 722 2181 722 
z
" transform="scale(0.015625)"/>
      <path id="DejaVuSans-Bold-20" transform="scale(0.015625)"/>
      <path id="DejaVuSans-Bold-6e" d="M 4056 2131 
L 4056 0 
L 2931 0 
L 2931 347 
L 2931 1631 
Q 2931 2084 2911 2256 
Q 2891 2428 2841 2509 
Q 2775 2619 2662 2680 
Q 2550 2741 2406 2741 
Q 2056 2741 1856 2470 
Q 1656 2200 1656 1722 
L 1656 0 
L 538 0 
L 538 3500 
L 1656 3500 
L 1656 2988 
Q 1909 3294 2193 3439 
Q 2478 3584 2822 3584 
Q 3428 3584 3742 3212 
Q 4056 2841 4056 2131 
z
" transform="scale(0.015625)"/>
      <path id="DejaVuSans-Bold-6c" d="M 538 4863 
L 1656 4863 
L 1656 0 
L 538 0 
L 538 4863 
z
" transform="scale(0.015625)"/>
      <path id="DejaVuSans-Bold-79" d="M 78 3500 
L 1197 3500 
L 2138 1125 
L 2938 3500 
L 4056 3500 
L 2584 -331 
Q 2363 -916 2067 -1148 
Q 1772 -1381 1288 -1381 
L 641 -1381 
L 641 -647 
L 991 -647 
Q 1275 -647 1404 -556 
Q 1534 -466 1606 -231 
L 1638 -134 
L 78 3500 
z
" transform="scale(0.015625)"/>
      <path id="DejaVuSans-Bold-28" d="M 2413 -844 
L 1484 -844 
Q 1006 -72 778 623 
Q 550 1319 550 2003 
Q 550 2688 779 3389 
Q 1009 4091 1484 4856 
L 2413 4856 
Q 2013 4116 1813 3408 
Q 1613 2700 1613 2009 
Q 1613 1319 1811 609 
Q 2009 -100 2413 -844 
z
" transform="scale(0.015625)"/>
      <path id="DejaVuSans-Bold-67" d="M 2919 594 
Q 2688 288 2409 144 
Q 2131 0 1766 0 
Q 1125 0 706 504 
Q 288 1009 288 1791 
Q 288 2575 706 3076 
Q 1125 3578 1766 3578 
Q 2131 3578 2409 3434 
Q 2688 3291 2919 2981 
L 2919 3500 
L 4044 3500 
L 4044 353 
Q 4044 -491 3511 -936 
Q 2978 -1381 1966 -1381 
Q 1638 -1381 1331 -1331 
Q 1025 -1281 716 -1178 
L 716 -306 
Q 1009 -475 1290 -558 
Q 1572 -641 1856 -641 
Q 2406 -641 2662 -400 
Q 2919 -159 2919 353 
L 2919 594 
z
M 2181 2772 
Q 1834 2772 1640 2515 
Q 1447 2259 1447 1791 
Q 1447 1309 1634 1061 
Q 1822 813 2181 813 
Q 2531 813 2725 1069 
Q 2919 1325 2919 1791 
Q 2919 2259 2725 2515 
Q 2531 2772 2181 2772 
z
" transform="scale(0.015625)"/>
      <path id="DejaVuSans-Bold-75" d="M 500 1363 
L 500 3500 
L 1625 3500 
L 1625 3150 
Q 1625 2866 1622 2436 
Q 1619 2006 1619 1863 
Q 1619 1441 1641 1255 
Q 1663 1069 1716 984 
Q 1784 875 1895 815 
Q 2006 756 2150 756 
Q 2500 756 2700 1025 
Q 2900 1294 2900 1772 
L 2900 3500 
L 4019 3500 
L 4019 0 
L 2900 0 
L 2900 506 
Q 2647 200 2364 54 
Q 2081 -91 1741 -91 
Q 1134 -91 817 281 
Q 500 653 500 1363 
z
" transform="scale(0.015625)"/>
      <path id="DejaVuSans-Bold-6d" d="M 3781 2919 
Q 3994 3244 4286 3414 
Q 4578 3584 4928 3584 
Q 5531 3584 5847 3212 
Q 6163 2841 6163 2131 
L 6163 0 
L 5038 0 
L 5038 1825 
Q 5041 1866 5042 1909 
Q 5044 1953 5044 2034 
Q 5044 2406 4934 2573 
Q 4825 2741 4581 2741 
Q 4263 2741 4089 2478 
Q 3916 2216 3909 1719 
L 3909 0 
L 2784 0 
L 2784 1825 
Q 2784 2406 2684 2573 
Q 2584 2741 2328 2741 
Q 2006 2741 1831 2477 
Q 1656 2213 1656 1722 
L 1656 0 
L 531 0 
L 531 3500 
L 1656 3500 
L 1656 2988 
Q 1863 3284 2130 3434 
Q 2397 3584 2719 3584 
Q 3081 3584 3359 3409 
Q 3638 3234 3781 2919 
z
" transform="scale(0.015625)"/>
      <path id="DejaVuSans-Bold-74" d="M 1759 4494 
L 1759 3500 
L 2913 3500 
L 2913 2700 
L 1759 2700 
L 1759 1216 
Q 1759 972 1856 886 
Q 1953 800 2241 800 
L 2816 800 
L 2816 0 
L 1856 0 
Q 1194 0 917 276 
Q 641 553 641 1216 
L 641 2700 
L 84 2700 
L 84 3500 
L 641 3500 
L 641 4494 
L 1759 4494 
z
" transform="scale(0.015625)"/>
      <path id="DejaVuSans-Bold-73" d="M 3272 3391 
L 3272 2541 
Q 2913 2691 2578 2766 
Q 2244 2841 1947 2841 
Q 1628 2841 1473 2761 
Q 1319 2681 1319 2516 
Q 1319 2381 1436 2309 
Q 1553 2238 1856 2203 
L 2053 2175 
Q 2913 2066 3209 1816 
Q 3506 1566 3506 1031 
Q 3506 472 3093 190 
Q 2681 -91 1863 -91 
Q 1516 -91 1145 -36 
Q 775 19 384 128 
L 384 978 
Q 719 816 1070 734 
Q 1422 653 1784 653 
Q 2113 653 2278 743 
Q 2444 834 2444 1013 
Q 2444 1163 2330 1236 
Q 2216 1309 1875 1350 
L 1678 1375 
Q 931 1469 631 1722 
Q 331 1975 331 2491 
Q 331 3047 712 3315 
Q 1094 3584 1881 3584 
Q 2191 3584 2531 3537 
Q 2872 3491 3272 3391 
z
" transform="scale(0.015625)"/>
      <path id="DejaVuSans-Bold-29" d="M 513 -844 
Q 913 -100 1113 609 
Q 1313 1319 1313 2009 
Q 1313 2700 1113 3408 
Q 913 4116 513 4856 
L 1441 4856 
Q 1916 4091 2145 3389 
Q 2375 2688 2375 2003 
Q 2375 1319 2147 623 
Q 1919 -72 1441 -844 
L 513 -844 
z
" transform="scale(0.015625)"/>
     </defs>
     <use xlink:href="#DejaVuSans-Bold-72"/>
     <use xlink:href="#DejaVuSans-Bold-65" transform="translate(49.316406 0)"/>
     <use xlink:href="#DejaVuSans-Bold-61" transform="translate(117.138672 0)"/>
     <use xlink:href="#DejaVuSans-Bold-64" transform="translate(184.619141 0)"/>
     <use xlink:href="#DejaVuSans-Bold-20" transform="translate(256.201172 0)"/>
     <use xlink:href="#DejaVuSans-Bold-6f" transform="translate(291.015625 0)"/>
     <use xlink:href="#DejaVuSans-Bold-6e" transform="translate(359.716797 0)"/>
     <use xlink:href="#DejaVuSans-Bold-6c" transform="translate(430.908203 0)"/>
     <use xlink:href="#DejaVuSans-Bold-79" transform="translate(465.185547 0)"/>
     <use xlink:href="#DejaVuSans-Bold-20" transform="translate(530.371094 0)"/>
     <use xlink:href="#DejaVuSans-Bold-28" transform="translate(565.185547 0)"/>
     <use xlink:href="#DejaVuSans-Bold-61" transform="translate(610.888672 0)"/>
     <use xlink:href="#DejaVuSans-Bold-72" transform="translate(678.369141 0)"/>
     <use xlink:href="#DejaVuSans-Bold-67" transform="translate(727.685547 0)"/>
     <use xlink:href="#DejaVuSans-Bold-75" transform="translate(799.267578 0)"/>
     <use xlink:href="#DejaVuSans-Bold-6d" transform="translate(870.458984 0)"/>
     <use xlink:href="#DejaVuSans-Bold-65" transform="translate(974.658203 0)"/>
     <use xlink:href="#DejaVuSans-Bold-6e" transform="translate(1042.480469 0)"/>
     <use xlink:href="#DejaVuSans-Bold-74" transform="translate(1113.671875 0)"/>
     <use xlink:href="#DejaVuSans-Bold-73" transform="translate(1161.474609 0)"/>
     <use xlink:href="#DejaVuSans-Bold-29" transform="translate(1220.996094 0)"/>
    </g>
   </g>
   <g id="text_3">
    <!-- scratch arena (intermediates + output) -->
    <g style="fill: #696969" transform="translate(56.657031 466.008281) scale(0.11 -0.11)">
     <defs>
      <path id="DejaVuSans-Bold-68" d="M 4056 2131 
L 4056 0 
L 2931 0 
L 2931 347 
L 2931 1625 
Q 2931 2084 2911 2256 
Q 2891 2428 2841 2509 
Q 2775 2619 2662 2680 
Q 2550 2741 2406 2741 
Q 2056 2741 1856 2470 
Q 1656 2200 1656 1722 
L 1656 0 
L 538 0 
L 538 4863 
L 1656 4863 
L 1656 2988 
Q 1909 3294 2193 3439 
Q 2478 3584 2822 3584 
Q 3428 3584 3742 3212 
Q 4056 2841 4056 2131 
z
" transform="scale(0.015625)"/>
      <path id="DejaVuSans-Bold-69" d="M 538 3500 
L 1656 3500 
L 1656 0 
L 538 0 
L 538 3500 
z
M 538 4863 
L 1656 4863 
L 1656 3950 
L 538 3950 
L 538 4863 
z
" transform="scale(0.015625)"/>
      <path id="DejaVuSans-Bold-2b" d="M 3053 4013 
L 3053 2375 
L 4684 2375 
L 4684 1638 
L 3053 1638 
L 3053 0 
L 2309 0 
L 2309 1638 
L 678 1638 
L 678 2375 
L 2309 2375 
L 2309 4013 
L 3053 4013 
z
" transform="scale(0.015625)"/>
      <path id="DejaVuSans-Bold-70" d="M 1656 506 
L 1656 -1331 
L 538 -1331 
L 538 3500 
L 1656 3500 
L 1656 2988 
Q 1888 3294 2169 3439 
Q 2450 3584 2816 3584 
Q 3463 3584 3878 3070 
Q 4294 2556 4294 1747 
Q 4294 938 3878 423 
Q 3463 -91 2816 -91 
Q 2450 -91 2169 54 
Q 1888 200 1656 506 
z
M 2400 2772 
Q 2041 2772 1848 2508 
Q 1656 2244 1656 1747 
Q 1656 1250 1848 986 
Q 2041 722 2400 722 
Q 2759 722 2948 984 
Q 3138 1247 3138 1747 
Q 3138 2247 2948 2509 
Q 2759 2772 2400 2772 
z
" transform="scale(0.015625)"/>
     </defs>
     <use xlink:href="#DejaVuSans-Bold-73"/>
     <use xlink:href="#DejaVuSans-Bold-63" transform="translate(59.521484 0)"/>
     <use xlink:href="#DejaVuSans-Bold-72" transform="translate(118.798828 0)"/>
     <use xlink:href="#DejaVuSans-Bold-61" transform="translate(168.115234 0)"/>
     <use xlink:href="#DejaVuSans-Bold-74" transform="translate(235.595703 0)"/>
     <use xlink:href="#DejaVuSans-Bold-63" transform="translate(283.398438 0)"/>
     <use xlink:href="#DejaVuSans-Bold-68" transform="translate(342.675781 0)"/>
     <use xlink:href="#DejaVuSans-Bold-20" transform="translate(413.867188 0)"/>
     <use xlink:href="#DejaVuSans-Bold-61" transform="translate(448.681641 0)"/>
     <use xlink:href="#DejaVuSans-Bold-72" transform="translate(516.162109 0)"/>
     <use xlink:href="#DejaVuSans-Bold-65" transform="translate(565.478516 0)"/>
     <use xlink:href="#DejaVuSans-Bold-6e" transform="translate(633.300781 0)"/>
     <use xlink:href="#DejaVuSans-Bold-61" transform="translate(704.492188 0)"/>
     <use xlink:href="#DejaVuSans-Bold-20" transform="translate(771.972656 0)"/>
     <use xlink:href="#DejaVuSans-Bold-28" transform="translate(806.787109 0)"/>
     <use xlink:href="#DejaVuSans-Bold-69" transform="translate(852.490234 0)"/>
     <use xlink:href="#DejaVuSans-Bold-6e" transform="translate(886.767578 0)"/>
     <use xlink:href="#DejaVuSans-Bold-74" transform="translate(957.958984 0)"/>
     <use xlink:href="#DejaVuSans-Bold-65" transform="translate(1005.761719 0)"/>
     <use xlink:href="#DejaVuSans-Bold-72" transform="translate(1073.583984 0)"/>
     <use xlink:href="#DejaVuSans-Bold-6d" transform="translate(1122.900391 0)"/>
     <use xlink:href="#DejaVuSans-Bold-65" transform="translate(1227.099609 0)"/>
     <use xlink:href="#DejaVuSans-Bold-64" transform="translate(1294.921875 0)"/>
     <use xlink:href="#DejaVuSans-Bold-69" transform="translate(1366.503906 0)"/>
     <use xlink:href="#DejaVuSans-Bold-61" transform="translate(1400.78125 0)"/>
     <use xlink:href="#DejaVuSans-Bold-74" transform="translate(1468.261719 0)"/>
     <use xlink:href="#DejaVuSans-Bold-65" transform="translate(1516.064453 0)"/>
     <use xlink:href="#DejaVuSans-Bold-73" transform="translate(1583.886719 0)"/>
     <use xlink:href="#DejaVuSans-Bold-20" transform="translate(1643.408203 0)"/>
     <use xlink:href="#DejaVuSans-Bold-2b" transform="translate(1678.222656 0)"/>
     <use xlink:href="#DejaVuSans-Bold-20" transform="translate(1762.011719 0)"/>
     <use xlink:href="#DejaVuSans-Bold-6f" transform="translate(1796.826172 0)"/>
     <use xlink:href="#DejaVuSans-Bold-75" transform="translate(1865.527344 0)"/>
     <use xlink:href="#DejaVuSans-Bold-74" transform="translate(1936.71875 0)"/>
     <use xlink:href="#DejaVuSans-Bold-70" transform="translate(1984.521484 0)"/>
     <use xlink:href="#DejaVuSans-Bold-75" transform="translate(2056.103516 0)"/>
     <use xlink:href="#DejaVuSans-Bold-74" transform="translate(2127.294922 0)"/>
     <use xlink:href="#DejaVuSans-Bold-29" transform="translate(2175.097656 0)"/>
    </g>
   </g>
   <g id="text_4">
    <g id="patch_7">
     <path d="M 179.313359 194.6 
L 188.286641 194.6 
Q 189.636641 194.6 189.636641 193.25 
L 189.636641 184.539688 
Q 189.636641 183.189688 188.286641 183.189688 
L 179.313359 183.189688 
Q 177.963359 183.189688 177.963359 184.539688 
L 177.963359 193.25 
Q 177.963359 194.6 179.313359 194.6 
z
" style="fill: #ffffff; opacity: 0.3"/>
    </g>
    <!-- -1 -->
    <g style="opacity: 0.4" transform="translate(179.313359 191.378281) scale(0.09 -0.09)">
     <defs>
      <path id="DejaVuSans-2d" d="M 313 2009 
L 1997 2009 
L 1997 1497 
L 313 1497 
L 313 2009 
z
" transform="scale(0.015625)"/>
      <path id="DejaVuSans-31" d="M 794 531 
L 1825 531 
L 1825 4091 
L 703 3866 
L 703 4441 
L 1819 4666 
L 2450 4666 
L 2450 531 
L 3481 531 
L 3481 0 
L 794 0 
L 794 531 
z
" transform="scale(0.015625)"/>
     </defs>
     <use xlink:href="#DejaVuSans-2d"/>
     <use xlink:href="#DejaVuSans-31" transform="translate(36.083984 0)"/>
    </g>
   </g>
   <g id="text_5">
    <g id="patch_8">
     <path d="M 217.213359 194.6 
L 226.186641 194.6 
Q 227.536641 194.6 227.536641 193.25 
L 227.536641 184.539688 
Q 227.536641 183.189688 226.186641 183.189688 
L 217.213359 183.189688 
Q 215.863359 183.189688 215.863359 184.539688 
L 215.863359 193.25 
Q 215.863359 194.6 217.213359 194.6 
z
" style="fill: #ffffff; opacity: 0.3"/>
    </g>
    <!-- -2 -->
    <g style="opacity: 0.4" transform="translate(217.213359 191.378281) scale(0.09 -0.09)">
     <defs>
      <path id="DejaVuSans-32" d="M 1228 531 
L 3431 531 
L 3431 0 
L 469 0 
L 469 531 
Q 828 903 1448 1529 
Q 2069 2156 2228 2338 
Q 2531 2678 2651 2914 
Q 2772 3150 2772 3378 
Q 2772 3750 2511 3984 
Q 2250 4219 1831 4219 
Q 1534 4219 1204 4116 
Q 875 4013 500 3803 
L 500 4441 
Q 881 4594 1212 4672 
Q 1544 4750 1819 4750 
Q 2544 4750 2975 4387 
Q 3406 4025 3406 3419 
Q 3406 3131 3298 2873 
Q 3191 2616 2906 2266 
Q 2828 2175 2409 1742 
Q 1991 1309 1228 531 
z
" transform="scale(0.015625)"/>
     </defs>
     <use xlink:href="#DejaVuSans-2d"/>
     <use xlink:href="#DejaVuSans-32" transform="translate(36.083984 0)"/>
    </g>
   </g>
   <g id="text_6">
    <g id="patch_9">
     <path d="M 179.313359 151.7 
L 188.286641 151.7 
Q 189.636641 151.7 189.636641 150.35 
L 189.636641 141.639688 
Q 189.636641 140.289688 188.286641 140.289688 
L 179.313359 140.289688 
Q 177.963359 140.289688 177.963359 141.639688 
L 177.963359 150.35 
Q 177.963359 151.7 179.313359 151.7 
z
" style="fill: #ffffff; opacity: 0.3"/>
    </g>
    <!-- -3 -->
    <g style="opacity: 0.4" transform="translate(179.313359 148.478281) scale(0.09 -0.09)">
     <defs>
      <path id="DejaVuSans-33" d="M 2597 2516 
Q 3050 2419 3304 2112 
Q 3559 1806 3559 1356 
Q 3559 666 3084 287 
Q 2609 -91 1734 -91 
Q 1441 -91 1130 -33 
Q 819 25 488 141 
L 488 750 
Q 750 597 1062 519 
Q 1375 441 1716 441 
Q 2309 441 2620 675 
Q 2931 909 2931 1356 
Q 2931 1769 2642 2001 
Q 2353 2234 1838 2234 
L 1294 2234 
L 1294 2753 
L 1863 2753 
Q 2328 2753 2575 2939 
Q 2822 3125 2822 3475 
Q 2822 3834 2567 4026 
Q 2313 4219 1838 4219 
Q 1578 4219 1281 4162 
Q 984 4106 628 3988 
L 628 4550 
Q 988 4650 1302 4700 
Q 1616 4750 1894 4750 
Q 2613 4750 3031 4423 
Q 3450 4097 3450 3541 
Q 3450 3153 3228 2886 
Q 3006 2619 2597 2516 
z
" transform="scale(0.015625)"/>
     </defs>
     <use xlink:href="#DejaVuSans-2d"/>
     <use xlink:href="#DejaVuSans-33" transform="translate(36.083984 0)"/>
    </g>
   </g>
   <g id="text_7">
    <g id="patch_10">
     <path d="M 131.413359 194.6 
L 140.386641 194.6 
Q 141.736641 194.6 141.736641 193.25 
L 141.736641 184.539688 
Q 141.736641 183.189688 140.386641 183.189688 
L 131.413359 183.189688 
Q 130.063359 183.189688 130.063359 184.539688 
L 130.063359 193.25 
Q 130.063359 194.6 131.413359 194.6 
z
" style="fill: #ffffff; opacity: 0.3"/>
    </g>
    <!-- -4 -->
    <g style="opacity: 0.4" transform="translate(131.413359 191.378281) scale(0.09 -0.09)">
     <defs>
      <path id="DejaVuSans-34" d="M 2419 4116 
L 825 1625 
L 2419 1625 
L 2419 4116 
z
M 2253 4666 
L 3047 4666 
L 3047 1625 
L 3713 1625 
L 3713 1100 
L 3047 1100 
L 3047 0 
L 2419 0 
L 2419 1100 
L 313 1100 
L 313 1709 
L 2253 4666 
z
" transform="scale(0.015625)"/>
     </defs>
     <use xlink:href="#DejaVuSans-2d"/>
     <use xlink:href="#DejaVuSans-34" transform="translate(36.083984 0)"/>
    </g>
   </g>
   <g id="text_8">
    <g id="patch_11">
     <path d="M 88.513359 194.6 
L 97.486641 194.6 
Q 98.836641 194.6 98.836641 193.25 
L 98.836641 184.539688 
Q 98.836641 183.189688 97.486641 183.189688 
L 88.513359 183.189688 
Q 87.163359 183.189688 87.163359 184.539688 
L 87.163359 193.25 
Q 87.163359 194.6 88.513359 194.6 
z
" style="fill: #ffffff; opacity: 0.3"/>
    </g>
    <!-- -5 -->
    <g style="opacity: 0.4" transform="translate(88.513359 191.378281) scale(0.09 -0.09)">
     <defs>
      <path id="DejaVuSans-35" d="M 691 4666 
L 3169 4666 
L 3169 4134 
L 1269 4134 
L 1269 2991 
Q 1406 3038 1543 3061 
Q 1681 3084 1819 3084 
Q 2600 3084 3056 2656 
Q 3513 2228 3513 1497 
Q 3513 744 3044 326 
Q 2575 -91 1722 -91 
Q 1428 -91 1123 -41 
Q 819 9 494 109 
L 494 744 
Q 775 591 1075 516 
Q 1375 441 1709 441 
Q 2250 441 2565 725 
Q 2881 1009 2881 1497 
Q 2881 1984 2565 2268 
Q 2250 2553 1709 2553 
Q 1456 2553 1204 2497 
Q 953 2441 691 2322 
L 691 4666 
z
" transform="scale(0.015625)"/>
     </defs>
     <use xlink:href="#DejaVuSans-2d"/>
     <use xlink:href="#DejaVuSans-35" transform="translate(36.083984 0)"/>
    </g>
   </g>
   <g id="text_9">
    <g id="patch_12">
     <path d="M 130.901484 151.7 
L 140.898516 151.7 
Q 142.248516 151.7 142.248516 150.35 
L 142.248516 141.639688 
Q 142.248516 140.289688 140.898516 140.289688 
L 130.901484 140.289688 
Q 129.551484 140.289688 129.551484 141.639688 
L 129.551484 150.35 
Q 129.551484 151.7 130.901484 151.7 
z
" style="fill: #ffffff; opacity: 0.7"/>
    </g>
    <!-- -6 -->
    <g transform="translate(130.901484 148.478281) scale(0.09 -0.09)">
     <defs>
      <path id="DejaVuSans-Bold-2d" d="M 347 2297 
L 2309 2297 
L 2309 1388 
L 347 1388 
L 347 2297 
z
" transform="scale(0.015625)"/>
      <path id="DejaVuSans-Bold-36" d="M 2316 2303 
Q 2000 2303 1842 2098 
Q 1684 1894 1684 1484 
Q 1684 1075 1842 870 
Q 2000 666 2316 666 
Q 2634 666 2792 870 
Q 2950 1075 2950 1484 
Q 2950 1894 2792 2098 
Q 2634 2303 2316 2303 
z
M 3803 4544 
L 3803 3681 
Q 3506 3822 3243 3889 
Q 2981 3956 2731 3956 
Q 2194 3956 1894 3657 
Q 1594 3359 1544 2772 
Q 1750 2925 1990 3001 
Q 2231 3078 2516 3078 
Q 3231 3078 3670 2659 
Q 4109 2241 4109 1563 
Q 4109 813 3618 361 
Q 3128 -91 2303 -91 
Q 1394 -91 895 523 
Q 397 1138 397 2266 
Q 397 3422 980 4083 
Q 1563 4744 2578 4744 
Q 2900 4744 3203 4694 
Q 3506 4644 3803 4544 
z
" transform="scale(0.015625)"/>
     </defs>
     <use xlink:href="#DejaVuSans-Bold-2d"/>
     <use xlink:href="#DejaVuSans-Bold-36" transform="translate(41.503906 0)"/>
    </g>
   </g>
   <g id="text_10">
    <g id="patch_13">
     <path d="M 174.313359 108.8 
L 183.286641 108.8 
Q 184.636641 108.8 184.636641 107.45 
L 184.636641 98.739688 
Q 184.636641 97.389688 183.286641 97.389688 
L 174.313359 97.389688 
Q 172.963359 97.389688 172.963359 98.739688 
L 172.963359 107.45 
Q 172.963359 108.8 174.313359 108.8 
z
" style="fill: #ffffff; opacity: 0.3"/>
    </g>
    <!-- -7 -->
    <g style="opacity: 0.4" transform="translate(174.313359 105.578281) scale(0.09 -0.09)">
     <defs>
      <path id="DejaVuSans-37" d="M 525 4666 
L 3525 4666 
L 3525 4397 
L 1831 0 
L 1172 0 
L 2766 4134 
L 525 4134 
L 525 4666 
z
" transform="scale(0.015625)"/>
     </defs>
     <use xlink:href="#DejaVuSans-2d"/>
     <use xlink:href="#DejaVuSans-37" transform="translate(36.083984 0)"/>
    </g>
   </g>
   <g id="text_11">
    <g id="patch_14">
     <path d="M 217.213359 151.7 
L 226.186641 151.7 
Q 227.536641 151.7 227.536641 150.35 
L 227.536641 141.639688 
Q 227.536641 140.289688 226.186641 140.289688 
L 217.213359 140.289688 
Q 215.863359 140.289688 215.863359 141.639688 
L 215.863359 150.35 
Q 215.863359 151.7 217.213359 151.7 
z
" style="fill: #ffffff; opacity: 0.3"/>
    </g>
    <!-- -8 -->
    <g style="opacity: 0.4" transform="translate(217.213359 148.478281) scale(0.09 -0.09)">
     <defs>
      <path id="DejaVuSans-38" d="M 2034 2216 
Q 1584 2216 1326 1975 
Q 1069 1734 1069 1313 
Q 1069 891 1326 650 
Q 1584 409 2034 409 
Q 2484 409 2743 651 
Q 3003 894 3003 1313 
Q 3003 1734 2745 1975 
Q 2488 2216 2034 2216 
z
M 1403 2484 
Q 997 2584 770 2862 
Q 544 3141 544 3541 
Q 544 4100 942 4425 
Q 1341 4750 2034 4750 
Q 2731 4750 3128 4425 
Q 3525 4100 3525 3541 
Q 3525 3141 3298 2862 
Q 3072 2584 2669 2484 
Q 3125 2378 3379 2068 
Q 3634 1759 3634 1313 
Q 3634 634 3220 271 
Q 2806 -91 2034 -91 
Q 1263 -91 848 271 
Q 434 634 434 1313 
Q 434 1759 690 2068 
Q 947 2378 1403 2484 
z
M 1172 3481 
Q 1172 3119 1398 2916 
Q 1625 2713 2034 2713 
Q 2441 2713 2670 2916 
Q 2900 3119 2900 3481 
Q 2900 3844 2670 4047 
Q 2441 4250 2034 4250 
Q 1625 4250 1398 4047 
Q 1172 3844 1172 3481 
z
" transform="scale(0.015625)"/>
     </defs>
     <use xlink:href="#DejaVuSans-2d"/>
     <use xlink:href="#DejaVuSans-38" transform="translate(36.083984 0)"/>
    </g>
   </g>
   <g id="text_12">
    <g id="patch_15">
     <path d="M 260.113359 194.6 
L 269.086641 194.6 
Q 270.436641 194.6 270.436641 193.25 
L 270.436641 184.539688 
Q 270.436641 183.189688 269.086641 183.189688 
L 260.113359 183.189688 
Q 258.763359 183.189688 258.763359 184.539688 
L 258.763359 193.25 
Q 258.763359 194.6 260.113359 194.6 
z
" style="fill: #ffffff; opacity: 0.3"/>
    </g>
    <!-- -9 -->
    <g style="opacity: 0.4" transform="translate(260.113359 191.378281) scale(0.09 -0.09)">
     <defs>
      <path id="DejaVuSans-39" d="M 703 97 
L 703 672 
Q 941 559 1184 500 
Q 1428 441 1663 441 
Q 2288 441 2617 861 
Q 2947 1281 2994 2138 
Q 2813 1869 2534 1725 
Q 2256 1581 1919 1581 
Q 1219 1581 811 2004 
Q 403 2428 403 3163 
Q 403 3881 828 4315 
Q 1253 4750 1959 4750 
Q 2769 4750 3195 4129 
Q 3622 3509 3622 2328 
Q 3622 1225 3098 567 
Q 2575 -91 1691 -91 
Q 1453 -91 1209 -44 
Q 966 3 703 97 
z
M 1959 2075 
Q 2384 2075 2632 2365 
Q 2881 2656 2881 3163 
Q 2881 3666 2632 3958 
Q 2384 4250 1959 4250 
Q 1534 4250 1286 3958 
Q 1038 3666 1038 3163 
Q 1038 2656 1286 2365 
Q 1534 2075 1959 2075 
z
" transform="scale(0.015625)"/>
     </defs>
     <use xlink:href="#DejaVuSans-2d"/>
     <use xlink:href="#DejaVuSans-39" transform="translate(36.083984 0)"/>
    </g>
   </g>
   <g id="text_13">
    <g id="patch_16">
     <path d="M 300.150234 194.6 
L 314.849766 194.6 
Q 316.199766 194.6 316.199766 193.25 
L 316.199766 184.539688 
Q 316.199766 183.189688 314.849766 183.189688 
L 300.150234 183.189688 
Q 298.800234 183.189688 298.800234 184.539688 
L 298.800234 193.25 
Q 298.800234 194.6 300.150234 194.6 
z
" style="fill: #ffffff; opacity: 0.3"/>
    </g>
    <!-- -10 -->
    <g style="opacity: 0.4" transform="translate(300.150234 191.378281) scale(0.09 -0.09)">
     <defs>
      <path id="DejaVuSans-30" d="M 2034 4250 
Q 1547 4250 1301 3770 
Q 1056 3291 1056 2328 
Q 1056 1369 1301 889 
Q 1547 409 2034 409 
Q 2525 409 2770 889 
Q 3016 1369 3016 2328 
Q 3016 3291 2770 3770 
Q 2525 4250 2034 4250 
z
M 2034 4750 
Q 2819 4750 3233 4129 
Q 3647 3509 3647 2328 
Q 3647 1150 3233 529 
Q 2819 -91 2034 -91 
Q 1250 -91 836 529 
Q 422 1150 422 2328 
Q 422 3509 836 4129 
Q 1250 4750 2034 4750 
z
" transform="scale(0.015625)"/>
     </defs>
     <use xlink:href="#DejaVuSans-2d"/>
     <use xlink:href="#DejaVuSans-31" transform="translate(36.083984 0)"/>
     <use xlink:href="#DejaVuSans-30" transform="translate(99.707031 0)"/>
    </g>
   </g>
   <g id="text_14">
    <g id="patch_17">
     <path d="M 257.250234 151.7 
L 271.949766 151.7 
Q 273.299766 151.7 273.299766 150.35 
L 273.299766 141.639688 
Q 273.299766 140.289688 271.949766 140.289688 
L 257.250234 140.289688 
Q 255.900234 140.289688 255.900234 141.639688 
L 255.900234 150.35 
Q 255.900234 151.7 257.250234 151.7 
z
" style="fill: #ffffff; opacity: 0.3"/>
    </g>
    <!-- -11 -->
    <g style="opacity: 0.4" transform="translate(257.250234 148.478281) scale(0.09 -0.09)">
     <use xlink:href="#DejaVuSans-2d"/>
     <use xlink:href="#DejaVuSans-31" transform="translate(36.083984 0)"/>
     <use xlink:href="#DejaVuSans-31" transform="translate(99.707031 0)"/>
    </g>
   </g>
   <g id="text_15">
    <g id="patch_18">
     <path d="M 214.350234 108.8 
L 229.049766 108.8 
Q 230.399766 108.8 230.399766 107.45 
L 230.399766 98.739688 
Q 230.399766 97.389688 229.049766 97.389688 
L 214.350234 97.389688 
Q 213.000234 97.389688 213.000234 98.739688 
L 213.000234 107.45 
Q 213.000234 108.8 214.350234 108.8 
z
" style="fill: #ffffff; opacity: 0.3"/>
    </g>
    <!-- -12 -->
    <g style="opacity: 0.4" transform="translate(214.350234 105.578281) scale(0.09 -0.09)">
     <use xlink:href="#DejaVuSans-2d"/>
     <use xlink:href="#DejaVuSans-31" transform="translate(36.083984 0)"/>
     <use xlink:href="#DejaVuSans-32" transform="translate(99.707031 0)"/>
    </g>
   </g>
   <g id="text_16">
    <g id="patch_19">
     <path d="M 171.450234 65.9 
L 186.149766 65.9 
Q 187.499766 65.9 187.499766 64.55 
L 187.499766 55.839688 
Q 187.499766 54.489688 186.149766 54.489688 
L 171.450234 54.489688 
Q 170.100234 54.489688 170.100234 55.839688 
L 170.100234 64.55 
Q 170.100234 65.9 171.450234 65.9 
z
" style="fill: #ffffff; opacity: 0.3"/>
    </g>
    <!-- -13 -->
    <g style="opacity: 0.4" transform="translate(171.450234 62.678281) scale(0.09 -0.09)">
     <use xlink:href="#DejaVuSans-2d"/>
     <use xlink:href="#DejaVuSans-31" transform="translate(36.083984 0)"/>
     <use xlink:href="#DejaVuSans-33" transform="translate(99.707031 0)"/>
    </g>
   </g>
   <g id="text_17">
    <g id="patch_20">
     <path d="M 128.550234 108.8 
L 143.249766 108.8 
Q 144.599766 108.8 144.599766 107.45 
L 144.599766 98.739688 
Q 144.599766 97.389688 143.249766 97.389688 
L 128.550234 97.389688 
Q 127.200234 97.389688 127.200234 98.739688 
L 127.200234 107.45 
Q 127.200234 108.8 128.550234 108.8 
z
" style="fill: #ffffff; opacity: 0.3"/>
    </g>
    <!-- -14 -->
    <g style="opacity: 0.4" transform="translate(128.550234 105.578281) scale(0.09 -0.09)">
     <use xlink:href="#DejaVuSans-2d"/>
     <use xlink:href="#DejaVuSans-31" transform="translate(36.083984 0)"/>
     <use xlink:href="#DejaVuSans-34" transform="translate(99.707031 0)"/>
    </g>
   </g>
   <g id="text_18">
    <g id="patch_21">
     <path d="M 85.650234 151.7 
L 100.349766 151.7 
Q 101.699766 151.7 101.699766 150.35 
L 101.699766 141.639688 
Q 101.699766 140.289688 100.349766 140.289688 
L 85.650234 140.289688 
Q 84.300234 140.289688 84.300234 141.639688 
L 84.300234 150.35 
Q 84.300234 151.7 85.650234 151.7 
z
" style="fill: #ffffff; opacity: 0.3"/>
    </g>
    <!-- -15 -->
    <g style="opacity: 0.4" transform="translate(85.650234 148.478281) scale(0.09 -0.09)">
     <use xlink:href="#DejaVuSans-2d"/>
     <use xlink:href="#DejaVuSans-31" transform="translate(36.083984 0)"/>
     <use xlink:href="#DejaVuSans-35" transform="translate(99.707031 0)"/>
    </g>
   </g>
   <g id="text_19">
    <g id="patch_22">
     <path d="M 42.750234 194.6 
L 57.449766 194.6 
Q 58.799766 194.6 58.799766 193.25 
L 58.799766 184.539688 
Q 58.799766 183.189688 57.449766 183.189688 
L 42.750234 183.189688 
Q 41.400234 183.189688 41.400234 184.539688 
L 41.400234 193.25 
Q 41.400234 194.6 42.750234 194.6 
z
" style="fill: #ffffff; opacity: 0.3"/>
    </g>
    <!-- -16 -->
    <g style="opacity: 0.4" transform="translate(42.750234 191.378281) scale(0.09 -0.09)">
     <defs>
      <path id="DejaVuSans-36" d="M 2113 2584 
Q 1688 2584 1439 2293 
Q 1191 2003 1191 1497 
Q 1191 994 1439 701 
Q 1688 409 2113 409 
Q 2538 409 2786 701 
Q 3034 994 3034 1497 
Q 3034 2003 2786 2293 
Q 2538 2584 2113 2584 
z
M 3366 4563 
L 3366 3988 
Q 3128 4100 2886 4159 
Q 2644 4219 2406 4219 
Q 1781 4219 1451 3797 
Q 1122 3375 1075 2522 
Q 1259 2794 1537 2939 
Q 1816 3084 2150 3084 
Q 2853 3084 3261 2657 
Q 3669 2231 3669 1497 
Q 3669 778 3244 343 
Q 2819 -91 2113 -91 
Q 1303 -91 875 529 
Q 447 1150 447 2328 
Q 447 3434 972 4092 
Q 1497 4750 2381 4750 
Q 2619 4750 2861 4703 
Q 3103 4656 3366 4563 
z
" transform="scale(0.015625)"/>
     </defs>
     <use xlink:href="#DejaVuSans-2d"/>
     <use xlink:href="#DejaVuSans-31" transform="translate(36.083984 0)"/>
     <use xlink:href="#DejaVuSans-36" transform="translate(99.707031 0)"/>
    </g>
   </g>
   <g id="text_20">
    <g id="patch_23">
     <path d="M 180.936875 280.4 
L 186.663125 280.4 
Q 188.013125 280.4 188.013125 279.05 
L 188.013125 270.339688 
Q 188.013125 268.989688 186.663125 268.989688 
L 180.936875 268.989688 
Q 179.586875 268.989688 179.586875 270.339688 
L 179.586875 279.05 
Q 179.586875 280.4 180.936875 280.4 
z
" style="fill: #ffffff; opacity: 0.3"/>
    </g>
    <!-- 1 -->
    <g style="opacity: 0.4" transform="translate(180.936875 277.178281) scale(0.09 -0.09)">
     <use xlink:href="#DejaVuSans-31"/>
    </g>
   </g>
   <g id="text_21">
    <g id="patch_24">
     <path d="M 218.836875 280.4 
L 224.563125 280.4 
Q 225.913125 280.4 225.913125 279.05 
L 225.913125 270.339688 
Q 225.913125 268.989688 224.563125 268.989688 
L 218.836875 268.989688 
Q 217.486875 268.989688 217.486875 270.339688 
L 217.486875 279.05 
Q 217.486875 280.4 218.836875 280.4 
z
" style="fill: #ffffff; opacity: 0.3"/>
    </g>
    <!-- 2 -->
    <g style="opacity: 0.4" transform="translate(218.836875 277.178281) scale(0.09 -0.09)">
     <use xlink:href="#DejaVuSans-32"/>
    </g>
   </g>
   <g id="text_22">
    <g id="patch_25">
     <path d="M 180.936875 323.3 
L 186.663125 323.3 
Q 188.013125 323.3 188.013125 321.95 
L 188.013125 313.239688 
Q 188.013125 311.889688 186.663125 311.889688 
L 180.936875 311.889688 
Q 179.586875 311.889688 179.586875 313.239688 
L 179.586875 321.95 
Q 179.586875 323.3 180.936875 323.3 
z
" style="fill: #ffffff; opacity: 0.3"/>
    </g>
    <!-- 3 -->
    <g style="opacity: 0.4" transform="translate(180.936875 320.078281) scale(0.09 -0.09)">
     <use xlink:href="#DejaVuSans-33"/>
    </g>
   </g>
   <g id="text_23">
    <g id="patch_26">
     <path d="M 133.036875 280.4 
L 138.763125 280.4 
Q 140.113125 280.4 140.113125 279.05 
L 140.113125 270.339688 
Q 140.113125 268.989688 138.763125 268.989688 
L 133.036875 268.989688 
Q 131.686875 268.989688 131.686875 270.339688 
L 131.686875 279.05 
Q 131.686875 280.4 133.036875 280.4 
z
" style="fill: #ffffff; opacity: 0.3"/>
    </g>
    <!-- 4 -->
    <g style="opacity: 0.4" transform="translate(133.036875 277.178281) scale(0.09 -0.09)">
     <use xlink:href="#DejaVuSans-34"/>
    </g>
   </g>
   <g id="text_24">
    <g id="patch_27">
     <path d="M 90.136875 280.4 
L 95.863125 280.4 
Q 97.213125 280.4 97.213125 279.05 
L 97.213125 270.339688 
Q 97.213125 268.989688 95.863125 268.989688 
L 90.136875 268.989688 
Q 88.786875 268.989688 88.786875 270.339688 
L 88.786875 279.05 
Q 88.786875 280.4 90.136875 280.4 
z
" style="fill: #ffffff; opacity: 0.3"/>
    </g>
    <!-- 5 -->
    <g style="opacity: 0.4" transform="translate(90.136875 277.178281) scale(0.09 -0.09)">
     <use xlink:href="#DejaVuSans-35"/>
    </g>
   </g>
   <g id="text_25">
    <g id="patch_28">
     <path d="M 133.036875 323.3 
L 138.763125 323.3 
Q 140.113125 323.3 140.113125 321.95 
L 140.113125 313.239688 
Q 140.113125 311.889688 138.763125 311.889688 
L 133.036875 311.889688 
Q 131.686875 311.889688 131.686875 313.239688 
L 131.686875 321.95 
Q 131.686875 323.3 133.036875 323.3 
z
" style="fill: #ffffff; opacity: 0.3"/>
    </g>
    <!-- 6 -->
    <g style="opacity: 0.4" transform="translate(133.036875 320.078281) scale(0.09 -0.09)">
     <use xlink:href="#DejaVuSans-36"/>
    </g>
   </g>
   <g id="text_26">
    <g id="patch_29">
     <path d="M 175.936875 366.2 
L 181.663125 366.2 
Q 183.013125 366.2 183.013125 364.85 
L 183.013125 356.139688 
Q 183.013125 354.789688 181.663125 354.789688 
L 175.936875 354.789688 
Q 174.586875 354.789688 174.586875 356.139688 
L 174.586875 364.85 
Q 174.586875 366.2 175.936875 366.2 
z
" style="fill: #ffffff; opacity: 0.3"/>
    </g>
    <!-- 7 -->
    <g style="opacity: 0.4" transform="translate(175.936875 362.978281) scale(0.09 -0.09)">
     <use xlink:href="#DejaVuSans-37"/>
    </g>
   </g>
   <g id="text_27">
    <g id="patch_30">
     <path d="M 218.568984 323.3 
L 224.831016 323.3 
Q 226.181016 323.3 226.181016 321.95 
L 226.181016 313.239688 
Q 226.181016 311.889688 224.831016 311.889688 
L 218.568984 311.889688 
Q 217.218984 311.889688 217.218984 313.239688 
L 217.218984 321.95 
Q 217.218984 323.3 218.568984 323.3 
z
" style="fill: #ffffff; opacity: 0.7"/>
    </g>
    <!-- 8 -->
    <g transform="translate(218.568984 320.078281) scale(0.09 -0.09)">
     <defs>
      <path id="DejaVuSans-Bold-38" d="M 2228 2088 
Q 1891 2088 1709 1903 
Q 1528 1719 1528 1375 
Q 1528 1031 1709 848 
Q 1891 666 2228 666 
Q 2563 666 2741 848 
Q 2919 1031 2919 1375 
Q 2919 1722 2741 1905 
Q 2563 2088 2228 2088 
z
M 1350 2484 
Q 925 2613 709 2878 
Q 494 3144 494 3541 
Q 494 4131 934 4440 
Q 1375 4750 2228 4750 
Q 3075 4750 3515 4442 
Q 3956 4134 3956 3541 
Q 3956 3144 3739 2878 
Q 3522 2613 3097 2484 
Q 3572 2353 3814 2058 
Q 4056 1763 4056 1313 
Q 4056 619 3595 264 
Q 3134 -91 2228 -91 
Q 1319 -91 855 264 
Q 391 619 391 1313 
Q 391 1763 633 2058 
Q 875 2353 1350 2484 
z
M 1631 3419 
Q 1631 3141 1786 2991 
Q 1941 2841 2228 2841 
Q 2509 2841 2662 2991 
Q 2816 3141 2816 3419 
Q 2816 3697 2662 3845 
Q 2509 3994 2228 3994 
Q 1941 3994 1786 3844 
Q 1631 3694 1631 3419 
z
" transform="scale(0.015625)"/>
     </defs>
     <use xlink:href="#DejaVuSans-Bold-38"/>
    </g>
   </g>
   <g id="text_28">
    <g id="patch_31">
     <path d="M 261.736875 280.4 
L 267.463125 280.4 
Q 268.813125 280.4 268.813125 279.05 
L 268.813125 270.339688 
Q 268.813125 268.989688 267.463125 268.989688 
L 261.736875 268.989688 
Q 260.386875 268.989688 260.386875 270.339688 
L 260.386875 279.05 
Q 260.386875 280.4 261.736875 280.4 
z
" style="fill: #ffffff; opacity: 0.3"/>
    </g>
    <!-- 9 -->
    <g style="opacity: 0.4" transform="translate(261.736875 277.178281) scale(0.09 -0.09)">
     <use xlink:href="#DejaVuSans-39"/>
    </g>
   </g>
   <g id="text_29">
    <g id="patch_32">
     <path d="M 301.77375 280.4 
L 313.22625 280.4 
Q 314.57625 280.4 314.57625 279.05 
L 314.57625 270.339688 
Q 314.57625 268.989688 313.22625 268.989688 
L 301.77375 268.989688 
Q 300.42375 268.989688 300.42375 270.339688 
L 300.42375 279.05 
Q 300.42375 280.4 301.77375 280.4 
z
" style="fill: #ffffff; opacity: 0.3"/>
    </g>
    <!-- 10 -->
    <g style="opacity: 0.4" transform="translate(301.77375 277.178281) scale(0.09 -0.09)">
     <use xlink:href="#DejaVuSans-31"/>
     <use xlink:href="#DejaVuSans-30" transform="translate(63.623047 0)"/>
    </g>
   </g>
   <g id="text_30">
    <g id="patch_33">
     <path d="M 258.87375 323.3 
L 270.32625 323.3 
Q 271.67625 323.3 271.67625 321.95 
L 271.67625 313.239688 
Q 271.67625 311.889688 270.32625 311.889688 
L 258.87375 311.889688 
Q 257.52375 311.889688 257.52375 313.239688 
L 257.52375 321.95 
Q 257.52375 323.3 258.87375 323.3 
z
" style="fill: #ffffff; opacity: 0.3"/>
    </g>
    <!-- 11 -->
    <g style="opacity: 0.4" transform="translate(258.87375 320.078281) scale(0.09 -0.09)">
     <use xlink:href="#DejaVuSans-31"/>
     <use xlink:href="#DejaVuSans-31" transform="translate(63.623047 0)"/>
    </g>
   </g>
   <g id="text_31">
    <g id="patch_34">
     <path d="M 215.97375 366.2 
L 227.42625 366.2 
Q 228.77625 366.2 228.77625 364.85 
L 228.77625 356.139688 
Q 228.77625 354.789688 227.42625 354.789688 
L 215.97375 354.789688 
Q 214.62375 354.789688 214.62375 356.139688 
L 214.62375 364.85 
Q 214.62375 366.2 215.97375 366.2 
z
" style="fill: #ffffff; opacity: 0.3"/>
    </g>
    <!-- 12 -->
    <g style="opacity: 0.4" transform="translate(215.97375 362.978281) scale(0.09 -0.09)">
     <use xlink:href="#DejaVuSans-31"/>
     <use xlink:href="#DejaVuSans-32" transform="translate(63.623047 0)"/>
    </g>
   </g>
   <g id="text_32">
    <g id="patch_35">
     <path d="M 173.07375 409.1 
L 184.52625 409.1 
Q 185.87625 409.1 185.87625 407.75 
L 185.87625 399.039688 
Q 185.87625 397.689688 184.52625 397.689688 
L 173.07375 397.689688 
Q 171.72375 397.689688 171.72375 399.039688 
L 171.72375 407.75 
Q 171.72375 409.1 173.07375 409.1 
z
" style="fill: #ffffff; opacity: 0.3"/>
    </g>
    <!-- 13 -->
    <g style="opacity: 0.4" transform="translate(173.07375 405.878281) scale(0.09 -0.09)">
     <use xlink:href="#DejaVuSans-31"/>
     <use xlink:href="#DejaVuSans-33" transform="translate(63.623047 0)"/>
    </g>
   </g>
   <g id="text_33">
    <g id="patch_36">
     <path d="M 130.17375 366.2 
L 141.62625 366.2 
Q 142.97625 366.2 142.97625 364.85 
L 142.97625 356.139688 
Q 142.97625 354.789688 141.62625 354.789688 
L 130.17375 354.789688 
Q 128.82375 354.789688 128.82375 356.139688 
L 128.82375 364.85 
Q 128.82375 366.2 130.17375 366.2 
z
" style="fill: #ffffff; opacity: 0.3"/>
    </g>
    <!-- 14 -->
    <g style="opacity: 0.4" transform="translate(130.17375 362.978281) scale(0.09 -0.09)">
     <use xlink:href="#DejaVuSans-31"/>
     <use xlink:href="#DejaVuSans-34" transform="translate(63.623047 0)"/>
    </g>
   </g>
   <g id="text_34">
    <g id="patch_37">
     <path d="M 87.27375 323.3 
L 98.72625 323.3 
Q 100.07625 323.3 100.07625 321.95 
L 100.07625 313.239688 
Q 100.07625 311.889688 98.72625 311.889688 
L 87.27375 311.889688 
Q 85.92375 311.889688 85.92375 313.239688 
L 85.92375 321.95 
Q 85.92375 323.3 87.27375 323.3 
z
" style="fill: #ffffff; opacity: 0.3"/>
    </g>
    <!-- 15 -->
    <g style="opacity: 0.4" transform="translate(87.27375 320.078281) scale(0.09 -0.09)">
     <use xlink:href="#DejaVuSans-31"/>
     <use xlink:href="#DejaVuSans-35" transform="translate(63.623047 0)"/>
    </g>
   </g>
   <g id="text_35">
    <g id="patch_38">
     <path d="M 44.37375 280.4 
L 55.82625 280.4 
Q 57.17625 280.4 57.17625 279.05 
L 57.17625 270.339688 
Q 57.17625 268.989688 55.82625 268.989688 
L 44.37375 268.989688 
Q 43.02375 268.989688 43.02375 270.339688 
L 43.02375 279.05 
Q 43.02375 280.4 44.37375 280.4 
z
" style="fill: #ffffff; opacity: 0.3"/>
    </g>
    <!-- 16 -->
    <g style="opacity: 0.4" transform="translate(44.37375 277.178281) scale(0.09 -0.09)">
     <use xlink:href="#DejaVuSans-31"/>
     <use xlink:href="#DejaVuSans-36" transform="translate(63.623047 0)"/>
    </g>
   </g>
   <g id="line2d_33">
    <path d="M 221.7 328.95 
" clip-path="url(#p0dc9e60e9f)" style="fill: none; stroke: #1f77b4; stroke-width: 1.5; stroke-linecap: square"/>
    <defs>
     <path id="m7f83a1cbf7" d="M 0 8 
C 2.121625 8 4.156639 7.15707 5.656854 5.656854 
C 7.15707 4.156639 8 2.121625 8 0 
C 8 -2.121625 7.15707 -4.156639 5.656854 -5.656854 
C 4.156639 -7.15707 2.121625 -8 0 -8 
C -2.121625 -8 -4.156639 -7.15707 -5.656854 -5.656854 
C -7.15707 -4.156639 -8 -2.121625 -8 0 
C -8 2.121625 -7.15707 4.156639 -5.656854 5.656854 
C -4.156639 7.15707 -2.121625 8 0 8 
z
" style="stroke: #ff0000; stroke-width: 3"/>
    </defs>
    <g clip-path="url(#p0dc9e60e9f)">
     <use xlink:href="#m7f83a1cbf7" x="221.7" y="328.95" style="fill-opacity: 0; stroke: #ff0000; stroke-width: 3"/>
    </g>
   </g>
   <g id="line2d_34">
    <path d="M 178.8 243.15 
" clip-path="url(#p0dc9e60e9f)" style="fill: none; stroke: #ff0000; stroke-width: 1.5; stroke-linecap: square"/>
    <defs>
     <path id="m8397e171e4" d="M 0 7 
C 1.856422 7 3.637059 6.262436 4.949747 4.949747 
C 6.262436 3.637059 7 1.856422 7 0 
C 7 -1.856422 6.262436 -3.637059 4.949747 -4.949747 
C 3.637059 -6.262436 1.856422 -7 0 -7 
C -1.856422 -7 -3.637059 -6.262436 -4.949747 -4.949747 
C -6.262436 -3.637059 -7 -1.856422 -7 0 
C -7 1.856422 -6.262436 3.637059 -4.949747 4.949747 
C -3.637059 6.262436 -1.856422 7 0 7 
z
" style="stroke: #000000"/>
    </defs>
    <g clip-path="url(#p0dc9e60e9f)">
     <use xlink:href="#m8397e171e4" x="178.8" y="243.15" style="fill: #ff0000; stroke: #000000"/>
    </g>
   </g>
  </g>
  <g id="axes_2">
   <g id="table_1">
    <g id="patch_39">
     <path d="M 393.6 34.958824 
L 407.328 34.958824 
L 407.328 7.2 
L 393.6 7.2 
z
" style="fill: #f2f2f2; stroke: #000000; stroke-linejoin: miter"/>
    </g>
    <g id="patch_40">
     <path d="M 407.328 34.958824 
L 475.968 34.958824 
L 475.968 7.2 
L 407.328 7.2 
z
" style="fill: #f2f2f2; stroke: #000000; stroke-linejoin: miter"/>
    </g>
    <g id="text_36">
     <!-- d -->
     <g transform="translate(438.473781 23.838787) scale(0.1 -0.1)">
      <defs>
       <path id="DejaVuSans-64" d="M 2906 2969 
L 2906 4863 
L 3481 4863 
L 3481 0 
L 2906 0 
L 2906 525 
Q 2725 213 2448 61 
Q 2172 -91 1784 -91 
Q 1150 -91 751 415 
Q 353 922 353 1747 
Q 353 2572 751 3078 
Q 1150 3584 1784 3584 
Q 2172 3584 2448 3432 
Q 2725 3281 2906 2969 
z
M 947 1747 
Q 947 1113 1208 752 
Q 1469 391 1925 391 
Q 2381 391 2643 752 
Q 2906 1113 2906 1747 
Q 2906 2381 2643 2742 
Q 2381 3103 1925 3103 
Q 1469 3103 1208 2742 
Q 947 2381 947 1747 
z
" transform="scale(0.015625)"/>
      </defs>
      <use xlink:href="#DejaVuSans-64"/>
     </g>
    </g>
    <g id="patch_41">
     <path d="M 475.968 34.958824 
L 565.2 34.958824 
L 565.2 7.2 
L 475.968 7.2 
z
" style="fill: #f2f2f2; stroke: #000000; stroke-linejoin: miter"/>
    </g>
    <g id="text_37">
     <!-- Wire length -->
     <g transform="translate(491.817594 23.838787) scale(0.1 -0.1)">
      <defs>
       <path id="DejaVuSans-57" d="M 213 4666 
L 850 4666 
L 1831 722 
L 2809 4666 
L 3519 4666 
L 4500 722 
L 5478 4666 
L 6119 4666 
L 4947 0 
L 4153 0 
L 3169 4050 
L 2175 0 
L 1381 0 
L 213 4666 
z
" transform="scale(0.015625)"/>
       <path id="DejaVuSans-69" d="M 603 3500 
L 1178 3500 
L 1178 0 
L 603 0 
L 603 3500 
z
M 603 4863 
L 1178 4863 
L 1178 4134 
L 603 4134 
L 603 4863 
z
" transform="scale(0.015625)"/>
       <path id="DejaVuSans-72" d="M 2631 2963 
Q 2534 3019 2420 3045 
Q 2306 3072 2169 3072 
Q 1681 3072 1420 2755 
Q 1159 2438 1159 1844 
L 1159 0 
L 581 0 
L 581 3500 
L 1159 3500 
L 1159 2956 
Q 1341 3275 1631 3429 
Q 1922 3584 2338 3584 
Q 2397 3584 2469 3576 
Q 2541 3569 2628 3553 
L 2631 2963 
z
" transform="scale(0.015625)"/>
       <path id="DejaVuSans-65" d="M 3597 1894 
L 3597 1613 
L 953 1613 
Q 991 1019 1311 708 
Q 1631 397 2203 397 
Q 2534 397 2845 478 
Q 3156 559 3463 722 
L 3463 178 
Q 3153 47 2828 -22 
Q 2503 -91 2169 -91 
Q 1331 -91 842 396 
Q 353 884 353 1716 
Q 353 2575 817 3079 
Q 1281 3584 2069 3584 
Q 2775 3584 3186 3129 
Q 3597 2675 3597 1894 
z
M 3022 2063 
Q 3016 2534 2758 2815 
Q 2500 3097 2075 3097 
Q 1594 3097 1305 2825 
Q 1016 2553 972 2059 
L 3022 2063 
z
" transform="scale(0.015625)"/>
       <path id="DejaVuSans-20" transform="scale(0.015625)"/>
       <path id="DejaVuSans-6c" d="M 603 4863 
L 1178 4863 
L 1178 0 
L 603 0 
L 603 4863 
z
" transform="scale(0.015625)"/>
       <path id="DejaVuSans-6e" d="M 3513 2113 
L 3513 0 
L 2938 0 
L 2938 2094 
Q 2938 2591 2744 2837 
Q 2550 3084 2163 3084 
Q 1697 3084 1428 2787 
Q 1159 2491 1159 1978 
L 1159 0 
L 581 0 
L 581 3500 
L 1159 3500 
L 1159 2956 
Q 1366 3272 1645 3428 
Q 1925 3584 2291 3584 
Q 2894 3584 3203 3211 
Q 3513 2838 3513 2113 
z
" transform="scale(0.015625)"/>
       <path id="DejaVuSans-67" d="M 2906 1791 
Q 2906 2416 2648 2759 
Q 2391 3103 1925 3103 
Q 1463 3103 1205 2759 
Q 947 2416 947 1791 
Q 947 1169 1205 825 
Q 1463 481 1925 481 
Q 2391 481 2648 825 
Q 2906 1169 2906 1791 
z
M 3481 434 
Q 3481 -459 3084 -895 
Q 2688 -1331 1869 -1331 
Q 1566 -1331 1297 -1286 
Q 1028 -1241 775 -1147 
L 775 -588 
Q 1028 -725 1275 -790 
Q 1522 -856 1778 -856 
Q 2344 -856 2625 -561 
Q 2906 -266 2906 331 
L 2906 616 
Q 2728 306 2450 153 
Q 2172 0 1784 0 
Q 1141 0 747 490 
Q 353 981 353 1791 
Q 353 2603 747 3093 
Q 1141 3584 1784 3584 
Q 2172 3584 2450 3431 
Q 2728 3278 2906 2969 
L 2906 3500 
L 3481 3500 
L 3481 434 
z
" transform="scale(0.015625)"/>
       <path id="DejaVuSans-74" d="M 1172 4494 
L 1172 3500 
L 2356 3500 
L 2356 3053 
L 1172 3053 
L 1172 1153 
Q 1172 725 1289 603 
Q 1406 481 1766 481 
L 2356 481 
L 2356 0 
L 1766 0 
Q 1100 0 847 248 
Q 594 497 594 1153 
L 594 3053 
L 172 3053 
L 172 3500 
L 594 3500 
L 594 4494 
L 1172 4494 
z
" transform="scale(0.015625)"/>
       <path id="DejaVuSans-68" d="M 3513 2113 
L 3513 0 
L 2938 0 
L 2938 2094 
Q 2938 2591 2744 2837 
Q 2550 3084 2163 3084 
Q 1697 3084 1428 2787 
Q 1159 2491 1159 1978 
L 1159 0 
L 581 0 
L 581 4863 
L 1159 4863 
L 1159 2956 
Q 1366 3272 1645 3428 
Q 1925 3584 2291 3584 
Q 2894 3584 3203 3211 
Q 3513 2838 3513 2113 
z
" transform="scale(0.015625)"/>
      </defs>
      <use xlink:href="#DejaVuSans-57"/>
      <use xlink:href="#DejaVuSans-69" transform="translate(96.626953 0)"/>
      <use xlink:href="#DejaVuSans-72" transform="translate(124.410156 0)"/>
      <use xlink:href="#DejaVuSans-65" transform="translate(163.273438 0)"/>
      <use xlink:href="#DejaVuSans-20" transform="translate(224.796875 0)"/>
      <use xlink:href="#DejaVuSans-6c" transform="translate(256.583984 0)"/>
      <use xlink:href="#DejaVuSans-65" transform="translate(284.367188 0)"/>
      <use xlink:href="#DejaVuSans-6e" transform="translate(345.890625 0)"/>
      <use xlink:href="#DejaVuSans-67" transform="translate(409.269531 0)"/>
      <use xlink:href="#DejaVuSans-74" transform="translate(472.746094 0)"/>
      <use xlink:href="#DejaVuSans-68" transform="translate(511.955078 0)"/>
     </g>
    </g>
    <g id="patch_42">
     <path d="M 393.6 62.717647 
L 407.328 62.717647 
L 407.328 34.958824 
L 393.6 34.958824 
z
" style="fill: #d62728; stroke: #ffffff; stroke-linejoin: miter"/>
    </g>
    <g id="patch_43">
     <path d="M 407.328 62.717647 
L 475.968 62.717647 
L 475.968 34.958824 
L 407.328 34.958824 
z
" style="fill: #ffffff; stroke: #000000; stroke-linejoin: miter"/>
    </g>
    <g id="text_38">
     <!-- 1 -->
     <g transform="translate(438.46675 51.59761) scale(0.1 -0.1)">
      <use xlink:href="#DejaVuSans-31"/>
     </g>
    </g>
    <g id="patch_44">
     <path d="M 475.968 62.717647 
L 565.2 62.717647 
L 565.2 34.958824 
L 475.968 34.958824 
z
" style="fill: #ffffff; stroke: #000000; stroke-linejoin: miter"/>
    </g>
    <g id="text_39">
     <!-- 1 -->
     <g transform="translate(517.40275 51.59761) scale(0.1 -0.1)">
      <use xlink:href="#DejaVuSans-31"/>
     </g>
    </g>
    <g id="patch_45">
     <path d="M 393.6 90.476471 
L 407.328 90.476471 
L 407.328 62.717647 
L 393.6 62.717647 
z
" style="fill: #ff7f0e; stroke: #ffffff; stroke-linejoin: miter"/>
    </g>
    <g id="patch_46">
     <path d="M 407.328 90.476471 
L 475.968 90.476471 
L 475.968 62.717647 
L 407.328 62.717647 
z
" style="fill: #ffffff; stroke: #000000; stroke-linejoin: miter"/>
    </g>
    <g id="text_40">
     <!-- 2 -->
     <g transform="translate(438.46675 79.356434) scale(0.1 -0.1)">
      <use xlink:href="#DejaVuSans-32"/>
     </g>
    </g>
    <g id="patch_47">
     <path d="M 475.968 90.476471 
L 565.2 90.476471 
L 565.2 62.717647 
L 475.968 62.717647 
z
" style="fill: #ffffff; stroke: #000000; stroke-linejoin: miter"/>
    </g>
    <g id="text_41">
     <!-- 2 -->
     <g transform="translate(517.40275 79.356434) scale(0.1 -0.1)">
      <use xlink:href="#DejaVuSans-32"/>
     </g>
    </g>
    <g id="patch_48">
     <path d="M 393.6 118.235294 
L 407.328 118.235294 
L 407.328 90.476471 
L 393.6 90.476471 
z
" style="fill: #ff7f0e; stroke: #ffffff; stroke-linejoin: miter"/>
    </g>
    <g id="patch_49">
     <path d="M 407.328 118.235294 
L 475.968 118.235294 
L 475.968 90.476471 
L 407.328 90.476471 
z
" style="fill: #ffffff; stroke: #000000; stroke-linejoin: miter"/>
    </g>
    <g id="text_42">
     <!-- 3 -->
     <g transform="translate(438.46675 107.115257) scale(0.1 -0.1)">
      <use xlink:href="#DejaVuSans-33"/>
     </g>
    </g>
    <g id="patch_50">
     <path d="M 475.968 118.235294 
L 565.2 118.235294 
L 565.2 90.476471 
L 475.968 90.476471 
z
" style="fill: #ffffff; stroke: #000000; stroke-linejoin: miter"/>
    </g>
    <g id="text_43">
     <!-- 2 -->
     <g transform="translate(517.40275 107.115257) scale(0.1 -0.1)">
      <use xlink:href="#DejaVuSans-32"/>
     </g>
    </g>
    <g id="patch_51">
     <path d="M 393.6 145.994118 
L 407.328 145.994118 
L 407.328 118.235294 
L 393.6 118.235294 
z
" style="fill: #ff7f0e; stroke: #ffffff; stroke-linejoin: miter"/>
    </g>
    <g id="patch_52">
     <path d="M 407.328 145.994118 
L 475.968 145.994118 
L 475.968 118.235294 
L 407.328 118.235294 
z
" style="fill: #ffffff; stroke: #000000; stroke-linejoin: miter"/>
    </g>
    <g id="text_44">
     <!-- 4 -->
     <g transform="translate(438.46675 134.874081) scale(0.1 -0.1)">
      <use xlink:href="#DejaVuSans-34"/>
     </g>
    </g>
    <g id="patch_53">
     <path d="M 475.968 145.994118 
L 565.2 145.994118 
L 565.2 118.235294 
L 475.968 118.235294 
z
" style="fill: #ffffff; stroke: #000000; stroke-linejoin: miter"/>
    </g>
    <g id="text_45">
     <!-- 2 -->
     <g transform="translate(517.40275 134.874081) scale(0.1 -0.1)">
      <use xlink:href="#DejaVuSans-32"/>
     </g>
    </g>
    <g id="patch_54">
     <path d="M 393.6 173.752941 
L 407.328 173.752941 
L 407.328 145.994118 
L 393.6 145.994118 
z
" style="fill: #2ca02c; stroke: #ffffff; stroke-linejoin: miter"/>
    </g>
    <g id="patch_55">
     <path d="M 407.328 173.752941 
L 475.968 173.752941 
L 475.968 145.994118 
L 407.328 145.994118 
z
" style="fill: #ffffff; stroke: #000000; stroke-linejoin: miter"/>
    </g>
    <g id="text_46">
     <!-- 5 -->
     <g transform="translate(438.46675 162.632904) scale(0.1 -0.1)">
      <use xlink:href="#DejaVuSans-35"/>
     </g>
    </g>
    <g id="patch_56">
     <path d="M 475.968 173.752941 
L 565.2 173.752941 
L 565.2 145.994118 
L 475.968 145.994118 
z
" style="fill: #ffffff; stroke: #000000; stroke-linejoin: miter"/>
    </g>
    <g id="text_47">
     <!-- 3 -->
     <g transform="translate(517.40275 162.632904) scale(0.1 -0.1)">
      <use xlink:href="#DejaVuSans-33"/>
     </g>
    </g>
    <g id="patch_57">
     <path d="M 393.6 201.511765 
L 407.328 201.511765 
L 407.328 173.752941 
L 393.6 173.752941 
z
" style="fill: #2ca02c; stroke: #ffffff; stroke-linejoin: miter"/>
    </g>
    <g id="patch_58">
     <path d="M 407.328 201.511765 
L 475.968 201.511765 
L 475.968 173.752941 
L 407.328 173.752941 
z
" style="fill: #ffffff; stroke: #000000; stroke-linejoin: miter"/>
    </g>
    <g id="text_48">
     <!-- 6 -->
     <g transform="translate(438.46675 190.391728) scale(0.1 -0.1)">
      <use xlink:href="#DejaVuSans-36"/>
     </g>
    </g>
    <g id="patch_59">
     <path d="M 475.968 201.511765 
L 565.2 201.511765 
L 565.2 173.752941 
L 475.968 173.752941 
z
" style="fill: #ffffff; stroke: #000000; stroke-linejoin: miter"/>
    </g>
    <g id="text_49">
     <!-- 3 -->
     <g transform="translate(517.40275 190.391728) scale(0.1 -0.1)">
      <use xlink:href="#DejaVuSans-33"/>
     </g>
    </g>
    <g id="patch_60">
     <path d="M 393.6 229.270588 
L 407.328 229.270588 
L 407.328 201.511765 
L 393.6 201.511765 
z
" style="fill: #2ca02c; stroke: #ffffff; stroke-linejoin: miter"/>
    </g>
    <g id="patch_61">
     <path d="M 407.328 229.270588 
L 475.968 229.270588 
L 475.968 201.511765 
L 407.328 201.511765 
z
" style="fill: #ffffff; stroke: #000000; stroke-linejoin: miter"/>
    </g>
    <g id="text_50">
     <!-- 7 -->
     <g transform="translate(438.46675 218.150551) scale(0.1 -0.1)">
      <use xlink:href="#DejaVuSans-37"/>
     </g>
    </g>
    <g id="patch_62">
     <path d="M 475.968 229.270588 
L 565.2 229.270588 
L 565.2 201.511765 
L 475.968 201.511765 
z
" style="fill: #ffffff; stroke: #000000; stroke-linejoin: miter"/>
    </g>
    <g id="text_51">
     <!-- 3 -->
     <g transform="translate(517.40275 218.150551) scale(0.1 -0.1)">
      <use xlink:href="#DejaVuSans-33"/>
     </g>
    </g>
    <g id="patch_63">
     <path d="M 393.6 257.029412 
L 407.328 257.029412 
L 407.328 229.270588 
L 393.6 229.270588 
z
" style="fill: #2ca02c; stroke: #ffffff; stroke-linejoin: miter"/>
    </g>
    <g id="patch_64">
     <path d="M 407.328 257.029412 
L 475.968 257.029412 
L 475.968 229.270588 
L 407.328 229.270588 
z
" style="fill: #ffcccc; stroke: #000000; stroke-linejoin: miter"/>
    </g>
    <g id="text_52">
     <!-- 8 -->
     <g transform="translate(438.169094 245.909375) scale(0.1 -0.1)">
      <use xlink:href="#DejaVuSans-Bold-38"/>
     </g>
    </g>
    <g id="patch_65">
     <path d="M 475.968 257.029412 
L 565.2 257.029412 
L 565.2 229.270588 
L 475.968 229.270588 
z
" style="fill: #ffcccc; stroke: #000000; stroke-linejoin: miter"/>
    </g>
    <g id="text_53">
     <!-- 3 -->
     <g transform="translate(517.105094 245.909375) scale(0.1 -0.1)">
      <defs>
       <path id="DejaVuSans-Bold-33" d="M 2981 2516 
Q 3453 2394 3698 2092 
Q 3944 1791 3944 1325 
Q 3944 631 3412 270 
Q 2881 -91 1863 -91 
Q 1503 -91 1142 -33 
Q 781 25 428 141 
L 428 1069 
Q 766 900 1098 814 
Q 1431 728 1753 728 
Q 2231 728 2486 893 
Q 2741 1059 2741 1369 
Q 2741 1688 2480 1852 
Q 2219 2016 1709 2016 
L 1228 2016 
L 1228 2791 
L 1734 2791 
Q 2188 2791 2409 2933 
Q 2631 3075 2631 3366 
Q 2631 3634 2415 3781 
Q 2200 3928 1806 3928 
Q 1516 3928 1219 3862 
Q 922 3797 628 3669 
L 628 4550 
Q 984 4650 1334 4700 
Q 1684 4750 2022 4750 
Q 2931 4750 3382 4451 
Q 3834 4153 3834 3553 
Q 3834 3144 3618 2883 
Q 3403 2622 2981 2516 
z
" transform="scale(0.015625)"/>
      </defs>
      <use xlink:href="#DejaVuSans-Bold-33"/>
     </g>
    </g>
    <g id="patch_66">
     <path d="M 393.6 284.788235 
L 407.328 284.788235 
L 407.328 257.029412 
L 393.6 257.029412 
z
" style="fill: #2ca02c; stroke: #ffffff; stroke-linejoin: miter"/>
    </g>
    <g id="patch_67">
     <path d="M 407.328 284.788235 
L 475.968 284.788235 
L 475.968 257.029412 
L 407.328 257.029412 
z
" style="fill: #ffffff; stroke: #000000; stroke-linejoin: miter"/>
    </g>
    <g id="text_54">
     <!-- 9 -->
     <g transform="translate(438.46675 273.668199) scale(0.1 -0.1)">
      <use xlink:href="#DejaVuSans-39"/>
     </g>
    </g>
    <g id="patch_68">
     <path d="M 475.968 284.788235 
L 565.2 284.788235 
L 565.2 257.029412 
L 475.968 257.029412 
z
" style="fill: #ffffff; stroke: #000000; stroke-linejoin: miter"/>
    </g>
    <g id="text_55">
     <!-- 3 -->
     <g transform="translate(517.40275 273.668199) scale(0.1 -0.1)">
      <use xlink:href="#DejaVuSans-33"/>
     </g>
    </g>
    <g id="patch_69">
     <path d="M 393.6 312.547059 
L 407.328 312.547059 
L 407.328 284.788235 
L 393.6 284.788235 
z
" style="fill: #1f77b4; stroke: #ffffff; stroke-linejoin: miter"/>
    </g>
    <g id="patch_70">
     <path d="M 407.328 312.547059 
L 475.968 312.547059 
L 475.968 284.788235 
L 407.328 284.788235 
z
" style="fill: #ffffff; stroke: #000000; stroke-linejoin: miter"/>
    </g>
    <g id="text_56">
     <!-- 10 -->
     <g transform="translate(435.2855 301.427022) scale(0.1 -0.1)">
      <use xlink:href="#DejaVuSans-31"/>
      <use xlink:href="#DejaVuSans-30" transform="translate(63.623047 0)"/>
     </g>
    </g>
    <g id="patch_71">
     <path d="M 475.968 312.547059 
L 565.2 312.547059 
L 565.2 284.788235 
L 475.968 284.788235 
z
" style="fill: #ffffff; stroke: #000000; stroke-linejoin: miter"/>
    </g>
    <g id="text_57">
     <!-- 4 -->
     <g transform="translate(517.40275 301.427022) scale(0.1 -0.1)">
      <use xlink:href="#DejaVuSans-34"/>
     </g>
    </g>
    <g id="patch_72">
     <path d="M 393.6 340.305882 
L 407.328 340.305882 
L 407.328 312.547059 
L 393.6 312.547059 
z
" style="fill: #1f77b4; stroke: #ffffff; stroke-linejoin: miter"/>
    </g>
    <g id="patch_73">
     <path d="M 407.328 340.305882 
L 475.968 340.305882 
L 475.968 312.547059 
L 407.328 312.547059 
z
" style="fill: #ffffff; stroke: #000000; stroke-linejoin: miter"/>
    </g>
    <g id="text_58">
     <!-- 11 -->
     <g transform="translate(435.2855 329.185846) scale(0.1 -0.1)">
      <use xlink:href="#DejaVuSans-31"/>
      <use xlink:href="#DejaVuSans-31" transform="translate(63.623047 0)"/>
     </g>
    </g>
    <g id="patch_74">
     <path d="M 475.968 340.305882 
L 565.2 340.305882 
L 565.2 312.547059 
L 475.968 312.547059 
z
" style="fill: #ffffff; stroke: #000000; stroke-linejoin: miter"/>
    </g>
    <g id="text_59">
     <!-- 4 -->
     <g transform="translate(517.40275 329.185846) scale(0.1 -0.1)">
      <use xlink:href="#DejaVuSans-34"/>
     </g>
    </g>
    <g id="patch_75">
     <path d="M 393.6 368.064706 
L 407.328 368.064706 
L 407.328 340.305882 
L 393.6 340.305882 
z
" style="fill: #1f77b4; stroke: #ffffff; stroke-linejoin: miter"/>
    </g>
    <g id="patch_76">
     <path d="M 407.328 368.064706 
L 475.968 368.064706 
L 475.968 340.305882 
L 407.328 340.305882 
z
" style="fill: #ffffff; stroke: #000000; stroke-linejoin: miter"/>
    </g>
    <g id="text_60">
     <!-- 12 -->
     <g transform="translate(435.2855 356.944669) scale(0.1 -0.1)">
      <use xlink:href="#DejaVuSans-31"/>
      <use xlink:href="#DejaVuSans-32" transform="translate(63.623047 0)"/>
     </g>
    </g>
    <g id="patch_77">
     <path d="M 475.968 368.064706 
L 565.2 368.064706 
L 565.2 340.305882 
L 475.968 340.305882 
z
" style="fill: #ffffff; stroke: #000000; stroke-linejoin: miter"/>
    </g>
    <g id="text_61">
     <!-- 4 -->
     <g transform="translate(517.40275 356.944669) scale(0.1 -0.1)">
      <use xlink:href="#DejaVuSans-34"/>
     </g>
    </g>
    <g id="patch_78">
     <path d="M 393.6 395.823529 
L 407.328 395.823529 
L 407.328 368.064706 
L 393.6 368.064706 
z
" style="fill: #1f77b4; stroke: #ffffff; stroke-linejoin: miter"/>
    </g>
    <g id="patch_79">
     <path d="M 407.328 395.823529 
L 475.968 395.823529 
L 475.968 368.064706 
L 407.328 368.064706 
z
" style="fill: #ffffff; stroke: #000000; stroke-linejoin: miter"/>
    </g>
    <g id="text_62">
     <!-- 13 -->
     <g transform="translate(435.2855 384.703493) scale(0.1 -0.1)">
      <use xlink:href="#DejaVuSans-31"/>
      <use xlink:href="#DejaVuSans-33" transform="translate(63.623047 0)"/>
     </g>
    </g>
    <g id="patch_80">
     <path d="M 475.968 395.823529 
L 565.2 395.823529 
L 565.2 368.064706 
L 475.968 368.064706 
z
" style="fill: #ffffff; stroke: #000000; stroke-linejoin: miter"/>
    </g>
    <g id="text_63">
     <!-- 4 -->
     <g transform="translate(517.40275 384.703493) scale(0.1 -0.1)">
      <use xlink:href="#DejaVuSans-34"/>
     </g>
    </g>
    <g id="patch_81">
     <path d="M 393.6 423.582353 
L 407.328 423.582353 
L 407.328 395.823529 
L 393.6 395.823529 
z
" style="fill: #1f77b4; stroke: #ffffff; stroke-linejoin: miter"/>
    </g>
    <g id="patch_82">
     <path d="M 407.328 423.582353 
L 475.968 423.582353 
L 475.968 395.823529 
L 407.328 395.823529 
z
" style="fill: #ffffff; stroke: #000000; stroke-linejoin: miter"/>
    </g>
    <g id="text_64">
     <!-- 14 -->
     <g transform="translate(435.2855 412.462316) scale(0.1 -0.1)">
      <use xlink:href="#DejaVuSans-31"/>
      <use xlink:href="#DejaVuSans-34" transform="translate(63.623047 0)"/>
     </g>
    </g>
    <g id="patch_83">
     <path d="M 475.968 423.582353 
L 565.2 423.582353 
L 565.2 395.823529 
L 475.968 395.823529 
z
" style="fill: #ffffff; stroke: #000000; stroke-linejoin: miter"/>
    </g>
    <g id="text_65">
     <!-- 4 -->
     <g transform="translate(517.40275 412.462316) scale(0.1 -0.1)">
      <use xlink:href="#DejaVuSans-34"/>
     </g>
    </g>
    <g id="patch_84">
     <path d="M 393.6 451.341176 
L 407.328 451.341176 
L 407.328 423.582353 
L 393.6 423.582353 
z
" style="fill: #1f77b4; stroke: #ffffff; stroke-linejoin: miter"/>
    </g>
    <g id="patch_85">
     <path d="M 407.328 451.341176 
L 475.968 451.341176 
L 475.968 423.582353 
L 407.328 423.582353 
z
" style="fill: #ffffff; stroke: #000000; stroke-linejoin: miter"/>
    </g>
    <g id="text_66">
     <!-- 15 -->
     <g transform="translate(435.2855 440.22114) scale(0.1 -0.1)">
      <use xlink:href="#DejaVuSans-31"/>
      <use xlink:href="#DejaVuSans-35" transform="translate(63.623047 0)"/>
     </g>
    </g>
    <g id="patch_86">
     <path d="M 475.968 451.341176 
L 565.2 451.341176 
L 565.2 423.582353 
L 475.968 423.582353 
z
" style="fill: #ffffff; stroke: #000000; stroke-linejoin: miter"/>
    </g>
    <g id="text_67">
     <!-- 4 -->
     <g transform="translate(517.40275 440.22114) scale(0.1 -0.1)">
      <use xlink:href="#DejaVuSans-34"/>
     </g>
    </g>
    <g id="patch_87">
     <path d="M 393.6 479.1 
L 407.328 479.1 
L 407.328 451.341176 
L 393.6 451.341176 
z
" style="fill: #1f77b4; stroke: #ffffff; stroke-linejoin: miter"/>
    </g>
    <g id="patch_88">
     <path d="M 407.328 479.1 
L 475.968 479.1 
L 475.968 451.341176 
L 407.328 451.341176 
z
" style="fill: #ffffff; stroke: #000000; stroke-linejoin: miter"/>
    </g>
    <g id="text_68">
     <!-- 16 -->
     <g transform="translate(435.2855 467.979963) scale(0.1 -0.1)">
      <use xlink:href="#DejaVuSans-31"/>
      <use xlink:href="#DejaVuSans-36" transform="translate(63.623047 0)"/>
     </g>
    </g>
    <g id="patch_89">
     <path d="M 475.968 479.1 
L 565.2 479.1 
L 565.2 451.341176 
L 475.968 451.341176 
z
" style="fill: #ffffff; stroke: #000000; stroke-linejoin: miter"/>
    </g>
    <g id="text_69">
     <!-- 4 -->
     <g transform="translate(517.40275 467.979963) scale(0.1 -0.1)">
      <use xlink:href="#DejaVuSans-34"/>
     </g>
    </g>
   </g>
  </g>
 </g>
 <defs>
  <clipPath id="p0dc9e60e9f">
   <rect x="7.2" y="7.2" width="343.2" height="471.9"/>
  </clipPath>
 </defs>
</svg>
