<?xml version="1.0" encoding="utf-8" standalone="no"?>
<!DOCTYPE svg PUBLIC "-//W3C//DTD SVG 1.1//EN"
  "http://www.w3.org/Graphics/SVG/1.1/DTD/svg11.dtd">
<svg xmlns:xlink="http://www.w3.org/1999/xlink" width="572.4pt" height="501.418125pt" viewBox="0 0 572.4 501.418125" xmlns="http://www.w3.org/2000/svg" version="1.1">
 <metadata>
  <rdf:RDF xmlns:dc="http://purl.org/dc/elements/1.1/" xmlns:cc="http://creativecommons.org/ns#" xmlns:rdf="http://www.w3.org/1999/02/22-rdf-syntax-ns#">
   <cc:Work>
    <dc:type rdf:resource="http://purl.org/dc/dcmitype/StillImage"/>
    <dc:date>2026-04-19T14:32:23.347165</dc:date>
    <dc:format>image/svg+xml</dc:format>
    <dc:creator>
     <cc:Agent>
      <dc:title>Matplotlib v3.10.8, https://matplotlib.org/</dc:title>
     </cc:Agent>
    </dc:creator>
   </cc:Work>
  </rdf:RDF>
 </metadata>
 <defs>
  <style type="text/css">*{stroke-linejoin: round; stroke-linecap: butt}</style>
 </defs>
 <g id="figure_1">
  <g id="patch_1">
   <path d="M 0 501.418125 
L 572.4 501.418125 
L 572.4 -0 
L 0 -0 
z
" style="fill: #ffffff"/>
  </g>
  <g id="axes_1">
   <g id="patch_2">
    <path d="M 7.2 494.218125 
L 350.4 494.218125 
L 350.4 22.318125 
L 7.2 22.318125 
z
" style="fill: #ffffff"/>
   </g>
   <g id="line2d_1">
    <path d="M 7.2 258.268125 
L 350.4 258.268125 
" clip-path="url(#p252ce07647)" style="fill: none; stroke: #000000; stroke-opacity: 0.25; stroke-linecap: square"/>
   </g>
   <g id="line2d_2">
    <path d="M 178.8 429.868125 
L 178.8 86.668125 
" clip-path="url(#p252ce07647)" style="fill: none; stroke: #bdbdbd; stroke-width: 2; stroke-linecap: round"/>
   </g>
   <g id="line2d_3">
    <path d="M 50.1 215.368125 
L 307.5 215.368125 
" clip-path="url(#p252ce07647)" style="fill: none; stroke: #bdbdbd; stroke-width: 2; stroke-linecap: round"/>
   </g>
   <g id="line2d_4">
    <path d="M 50.1 301.168125 
L 307.5 301.168125 
" clip-path="url(#p252ce07647)" style="fill: none; stroke: #bdbdbd; stroke-width: 2; stroke-linecap: round"/>
   </g>
   <g id="line2d_5">
    <path d="M 93 172.468125 
L 264.6 172.468125 
" clip-path="url(#p252ce07647)" style="fill: none; stroke: #bdbdbd; stroke-width: 2; stroke-linecap: round"/>
   </g>
   <g id="line2d_6">
    <path d="M 93 344.068125 
L 264.6 344.068125 
" clip-path="url(#p252ce07647)" style="fill: none; stroke: #bdbdbd; stroke-width: 2; stroke-linecap: round"/>
   </g>
   <g id="line2d_7">
    <path d="M 135.9 129.568125 
L 221.7 129.568125 
" clip-path="url(#p252ce07647)" style="fill: none; stroke: #bdbdbd; stroke-width: 2; stroke-linecap: round"/>
   </g>
   <g id="line2d_8">
    <path d="M 135.9 386.968125 
L 221.7 386.968125 
" clip-path="url(#p252ce07647)" style="fill: none; stroke: #bdbdbd; stroke-width: 2; stroke-linecap: round"/>
   </g>
   <g id="line2d_9">
    <path d="M 178.8 86.668125 
L 178.8 86.668125 
" clip-path="url(#p252ce07647)" style="fill: none; stroke: #bdbdbd; stroke-width: 2; stroke-linecap: round"/>
   </g>
   <g id="line2d_10">
    <path d="M 178.8 429.868125 
L 178.8 429.868125 
" clip-path="url(#p252ce07647)" style="fill: none; stroke: #bdbdbd; stroke-width: 2; stroke-linecap: round"/>
   </g>
   <g id="matplotlib.axis_1">
    <g id="xtick_1">
     <g id="line2d_11">
      <path d="M 7.2 494.218125 
L 7.2 22.318125 
" clip-path="url(#p252ce07647)" style="fill: none; stroke-dasharray: 0.8,1.32; stroke-dashoffset: 0; stroke: #b0b0b0; stroke-opacity: 0.5; stroke-width: 0.8"/>
     </g>
    </g>
    <g id="xtick_2">
     <g id="line2d_12">
      <path d="M 50.1 494.218125 
L 50.1 22.318125 
" clip-path="url(#p252ce07647)" style="fill: none; stroke-dasharray: 0.8,1.32; stroke-dashoffset: 0; stroke: #b0b0b0; stroke-opacity: 0.5; stroke-width: 0.8"/>
     </g>
    </g>
    <g id="xtick_3">
     <g id="line2d_13">
      <path d="M 93 494.218125 
L 93 22.318125 
" clip-path="url(#p252ce07647)" style="fill: none; stroke-dasharray: 0.8,1.32; stroke-dashoffset: 0; stroke: #b0b0b0; stroke-opacity: 0.5; stroke-width: 0.8"/>
     </g>
    </g>
    <g id="xtick_4">
     <g id="line2d_14">
      <path d="M 135.9 494.218125 
L 135.9 22.318125 
" clip-path="url(#p252ce07647)" style="fill: none; stroke-dasharray: 0.8,1.32; stroke-dashoffset: 0; stroke: #b0b0b0; stroke-opacity: 0.5; stroke-width: 0.8"/>
     </g>
    </g>
    <g id="xtick_5">
     <g id="line2d_15">
      <path d="M 178.8 494.218125 
L 178.8 22.318125 
" clip-path="url(#p252ce07647)" style="fill: none; stroke-dasharray: 0.8,1.32; stroke-dashoffset: 0; stroke: #b0b0b0; stroke-opacity: 0.5; stroke-width: 0.8"/>
     </g>
    </g>
    <g id="xtick_6">
     <g id="line2d_16">
      <path d="M 221.7 494.218125 
L 221.7 22.318125 
" clip-path="url(#p252ce07647)" style="fill: none; stroke-dasharray: 0.8,1.32; stroke-dashoffset: 0; stroke: #b0b0b0; stroke-opacity: 0.5; stroke-width: 0.8"/>
     </g>
    </g>
    <g id="xtick_7">
     <g id="line2d_17">
      <path d="M 264.6 494.218125 
L 264.6 22.318125 
" clip-path="url(#p252ce07647)" style="fill: none; stroke-dasharray: 0.8,1.32; stroke-dashoffset: 0; stroke: #b0b0b0; stroke-opacity: 0.5; stroke-width: 0.8"/>
     </g>
    </g>
    <g id="xtick_8">
     <g id="line2d_18">
      <path d="M 307.5 494.218125 
L 307.5 22.318125 
" clip-path="url(#p252ce07647)" style="fill: none; stroke-dasharray: 0.8,1.32; stroke-dashoffset: 0; stroke: #b0b0b0; stroke-opacity: 0.5; stroke-width: 0.8"/>
     </g>
    </g>
    <g id="xtick_9">
     <g id="line2d_19">
      <path d="M 350.4 494.218125 
L 350.4 22.318125 
" clip-path="url(#p252ce07647)" style="fill: none; stroke-dasharray: 0.8,1.32; stroke-dashoffset: 0; stroke: #b0b0b0; stroke-opacity: 0.5; stroke-width: 0.8"/>
     </g>
    </g>
   </g>
   <g id="matplotlib.axis_2">
    <g id="ytick_1">
     <g id="line2d_20">
      <path d="M 7.2 472.768125 
L 350.4 472.768125 
" clip-path="url(#p252ce07647)" style="fill: none; stroke-dasharray: 0.8,1.32; stroke-dashoffset: 0; stroke: #b0b0b0; stroke-opacity: 0.5; stroke-width: 0.8"/>
     </g>
    </g>
    <g id="ytick_2">
     <g id="line2d_21">
      <path d="M 7.2 429.868125 
L 350.4 429.868125 
" clip-path="url(#p252ce07647)" style="fill: none; stroke-dasharray: 0.8,1.32; stroke-dashoffset: 0; stroke: #b0b0b0; stroke-opacity: 0.5; stroke-width: 0.8"/>
     </g>
    </g>
    <g id="ytick_3">
     <g id="line2d_22">
      <path d="M 7.2 386.968125 
L 350.4 386.968125 
" clip-path="url(#p252ce07647)" style="fill: none; stroke-dasharray: 0.8,1.32; stroke-dashoffset: 0; stroke: #b0b0b0; stroke-opacity: 0.5; stroke-width: 0.8"/>
     </g>
    </g>
    <g id="ytick_4">
     <g id="line2d_23">
      <path d="M 7.2 344.068125 
L 350.4 344.068125 
" clip-path="url(#p252ce07647)" style="fill: none; stroke-dasharray: 0.8,1.32; stroke-dashoffset: 0; stroke: #b0b0b0; stroke-opacity: 0.5; stroke-width: 0.8"/>
     </g>
    </g>
    <g id="ytick_5">
     <g id="line2d_24">
      <path d="M 7.2 301.168125 
L 350.4 301.168125 
" clip-path="url(#p252ce07647)" style="fill: none; stroke-dasharray: 0.8,1.32; stroke-dashoffset: 0; stroke: #b0b0b0; stroke-opacity: 0.5; stroke-width: 0.8"/>
     </g>
    </g>
    <g id="ytick_6">
     <g id="line2d_25">
      <path d="M 7.2 258.268125 
L 350.4 258.268125 
" clip-path="url(#p252ce07647)" style="fill: none; stroke-dasharray: 0.8,1.32; stroke-dashoffset: 0; stroke: #b0b0b0; stroke-opacity: 0.5; stroke-width: 0.8"/>
     </g>
    </g>
    <g id="ytick_7">
     <g id="line2d_26">
      <path d="M 7.2 215.368125 
L 350.4 215.368125 
" clip-path="url(#p252ce07647)" style="fill: none; stroke-dasharray: 0.8,1.32; stroke-dashoffset: 0; stroke: #b0b0b0; stroke-opacity: 0.5; stroke-width: 0.8"/>
     </g>
    </g>
    <g id="ytick_8">
     <g id="line2d_27">
      <path d="M 7.2 172.468125 
L 350.4 172.468125 
" clip-path="url(#p252ce07647)" style="fill: none; stroke-dasharray: 0.8,1.32; stroke-dashoffset: 0; stroke: #b0b0b0; stroke-opacity: 0.5; stroke-width: 0.8"/>
     </g>
    </g>
    <g id="ytick_9">
     <g id="line2d_28">
      <path d="M 7.2 129.568125 
L 350.4 129.568125 
" clip-path="url(#p252ce07647)" style="fill: none; stroke-dasharray: 0.8,1.32; stroke-dashoffset: 0; stroke: #b0b0b0; stroke-opacity: 0.5; stroke-width: 0.8"/>
     </g>
    </g>
    <g id="ytick_10">
     <g id="line2d_29">
      <path d="M 7.2 86.668125 
L 350.4 86.668125 
" clip-path="url(#p252ce07647)" style="fill: none; stroke-dasharray: 0.8,1.32; stroke-dashoffset: 0; stroke: #b0b0b0; stroke-opacity: 0.5; stroke-width: 0.8"/>
     </g>
    </g>
    <g id="ytick_11">
     <g id="line2d_30">
      <path d="M 7.2 43.768125 
L 350.4 43.768125 
" clip-path="url(#p252ce07647)" style="fill: none; stroke-dasharray: 0.8,1.32; stroke-dashoffset: 0; stroke: #b0b0b0; stroke-opacity: 0.5; stroke-width: 0.8"/>
     </g>
    </g>
   </g>
   <g id="PathCollection_1">
    <defs>
     <path id="C0_0_114bfe2694" d="M 0 3.708099 
C 0.983399 3.708099 1.926654 3.317391 2.622022 2.622022 
C 3.317391 1.926654 3.708099 0.983399 3.708099 -0 
C 3.708099 -0.983399 3.317391 -1.926654 2.622022 -2.622022 
C 1.926654 -3.317391 0.983399 -3.708099 0 -3.708099 
C -0.983399 -3.708099 -1.926654 -3.317391 -2.622022 -2.622022 
C -3.317391 -1.926654 -3.708099 -0.983399 -3.708099 0 
C -3.708099 0.983399 -3.317391 1.926654 -2.622022 2.622022 
C -1.926654 3.317391 -0.983399 3.708099 0 3.708099 
z
"/>
    </defs>
    <g clip-path="url(#p252ce07647)">
     <use xlink:href="#C0_0_114bfe2694" x="178.8" y="215.368125" style="fill: #d62728; stroke: #000000; stroke-width: 0.4"/>
    </g>
    <g clip-path="url(#p252ce07647)">
     <use xlink:href="#C0_0_114bfe2694" x="221.7" y="215.368125" style="fill: #ff7f0e; stroke: #000000; stroke-width: 0.4"/>
    </g>
    <g clip-path="url(#p252ce07647)">
     <use xlink:href="#C0_0_114bfe2694" x="178.8" y="172.468125" style="fill: #ff7f0e; stroke: #000000; stroke-width: 0.4"/>
    </g>
    <g clip-path="url(#p252ce07647)">
     <use xlink:href="#C0_0_114bfe2694" x="135.9" y="215.368125" style="fill: #ff7f0e; stroke: #000000; stroke-width: 0.4"/>
    </g>
    <g clip-path="url(#p252ce07647)">
     <use xlink:href="#C0_0_114bfe2694" x="93" y="215.368125" style="fill: #2ca02c; stroke: #000000; stroke-width: 0.4"/>
    </g>
    <g clip-path="url(#p252ce07647)">
     <use xlink:href="#C0_0_114bfe2694" x="135.9" y="172.468125" style="fill: #2ca02c; stroke: #000000; stroke-width: 0.4"/>
    </g>
    <g clip-path="url(#p252ce07647)">
     <use xlink:href="#C0_0_114bfe2694" x="178.8" y="129.568125" style="fill: #2ca02c; stroke: #000000; stroke-width: 0.4"/>
    </g>
    <g clip-path="url(#p252ce07647)">
     <use xlink:href="#C0_0_114bfe2694" x="221.7" y="172.468125" style="fill: #2ca02c; stroke: #000000; stroke-width: 0.4"/>
    </g>
    <g clip-path="url(#p252ce07647)">
     <use xlink:href="#C0_0_114bfe2694" x="264.6" y="215.368125" style="fill: #2ca02c; stroke: #000000; stroke-width: 0.4"/>
    </g>
    <g clip-path="url(#p252ce07647)">
     <use xlink:href="#C0_0_114bfe2694" x="307.5" y="215.368125" style="fill: #1f77b4; stroke: #000000; stroke-width: 0.4"/>
    </g>
    <g clip-path="url(#p252ce07647)">
     <use xlink:href="#C0_0_114bfe2694" x="264.6" y="172.468125" style="fill: #1f77b4; stroke: #000000; stroke-width: 0.4"/>
    </g>
    <g clip-path="url(#p252ce07647)">
     <use xlink:href="#C0_0_114bfe2694" x="221.7" y="129.568125" style="fill: #1f77b4; stroke: #000000; stroke-width: 0.4"/>
    </g>
    <g clip-path="url(#p252ce07647)">
     <use xlink:href="#C0_0_114bfe2694" x="178.8" y="86.668125" style="fill: #1f77b4; stroke: #000000; stroke-width: 0.4"/>
    </g>
    <g clip-path="url(#p252ce07647)">
     <use xlink:href="#C0_0_114bfe2694" x="135.9" y="129.568125" style="fill: #1f77b4; stroke: #000000; stroke-width: 0.4"/>
    </g>
    <g clip-path="url(#p252ce07647)">
     <use xlink:href="#C0_0_114bfe2694" x="93" y="172.468125" style="fill: #1f77b4; stroke: #000000; stroke-width: 0.4"/>
    </g>
    <g clip-path="url(#p252ce07647)">
     <use xlink:href="#C0_0_114bfe2694" x="50.1" y="215.368125" style="fill: #1f77b4; stroke: #000000; stroke-width: 0.4"/>
    </g>
   </g>
   <g id="PathCollection_2">
    <defs>
     <path id="C1_0_ac3795315f" d="M 0 3.708099 
C 0.983399 3.708099 1.926654 3.317391 2.622022 2.622022 
C 3.317391 1.926654 3.708099 0.983399 3.708099 -0 
C 3.708099 -0.983399 3.317391 -1.926654 2.622022 -2.622022 
C 1.926654 -3.317391 0.983399 -3.708099 0 -3.708099 
C -0.983399 -3.708099 -1.926654 -3.317391 -2.622022 -2.622022 
C -3.317391 -1.926654 -3.708099 -0.983399 -3.708099 0 
C -3.708099 0.983399 -3.317391 1.926654 -2.622022 2.622022 
C -1.926654 3.317391 -0.983399 3.708099 0 3.708099 
z
"/>
    </defs>
    <g clip-path="url(#p252ce07647)">
     <use xlink:href="#C1_0_ac3795315f" x="178.8" y="301.168125" style="fill: #d62728; stroke: #000000; stroke-width: 0.4"/>
    </g>
    <g clip-path="url(#p252ce07647)">
     <use xlink:href="#C1_0_ac3795315f" x="221.7" y="301.168125" style="fill: #ff7f0e; stroke: #000000; stroke-width: 0.4"/>
    </g>
    <g clip-path="url(#p252ce07647)">
     <use xlink:href="#C1_0_ac3795315f" x="178.8" y="344.068125" style="fill: #ff7f0e; stroke: #000000; stroke-width: 0.4"/>
    </g>
    <g clip-path="url(#p252ce07647)">
     <use xlink:href="#C1_0_ac3795315f" x="135.9" y="301.168125" style="fill: #ff7f0e; stroke: #000000; stroke-width: 0.4"/>
    </g>
    <g clip-path="url(#p252ce07647)">
     <use xlink:href="#C1_0_ac3795315f" x="93" y="301.168125" style="fill: #2ca02c; stroke: #000000; stroke-width: 0.4"/>
    </g>
    <g clip-path="url(#p252ce07647)">
     <use xlink:href="#C1_0_ac3795315f" x="135.9" y="344.068125" style="fill: #2ca02c; stroke: #000000; stroke-width: 0.4"/>
    </g>
    <g clip-path="url(#p252ce07647)">
     <use xlink:href="#C1_0_ac3795315f" x="178.8" y="386.968125" style="fill: #2ca02c; stroke: #000000; stroke-width: 0.4"/>
    </g>
    <g clip-path="url(#p252ce07647)">
     <use xlink:href="#C1_0_ac3795315f" x="221.7" y="344.068125" style="fill: #2ca02c; stroke: #000000; stroke-width: 0.4"/>
    </g>
    <g clip-path="url(#p252ce07647)">
     <use xlink:href="#C1_0_ac3795315f" x="264.6" y="301.168125" style="fill: #2ca02c; stroke: #000000; stroke-width: 0.4"/>
    </g>
    <g clip-path="url(#p252ce07647)">
     <use xlink:href="#C1_0_ac3795315f" x="307.5" y="301.168125" style="fill: #1f77b4; stroke: #000000; stroke-width: 0.4"/>
    </g>
    <g clip-path="url(#p252ce07647)">
     <use xlink:href="#C1_0_ac3795315f" x="264.6" y="344.068125" style="fill: #1f77b4; stroke: #000000; stroke-width: 0.4"/>
    </g>
    <g clip-path="url(#p252ce07647)">
     <use xlink:href="#C1_0_ac3795315f" x="221.7" y="386.968125" style="fill: #1f77b4; stroke: #000000; stroke-width: 0.4"/>
    </g>
    <g clip-path="url(#p252ce07647)">
     <use xlink:href="#C1_0_ac3795315f" x="178.8" y="429.868125" style="fill: #1f77b4; stroke: #000000; stroke-width: 0.4"/>
    </g>
    <g clip-path="url(#p252ce07647)">
     <use xlink:href="#C1_0_ac3795315f" x="135.9" y="386.968125" style="fill: #1f77b4; stroke: #000000; stroke-width: 0.4"/>
    </g>
    <g clip-path="url(#p252ce07647)">
     <use xlink:href="#C1_0_ac3795315f" x="93" y="344.068125" style="fill: #1f77b4; stroke: #000000; stroke-width: 0.4"/>
    </g>
    <g clip-path="url(#p252ce07647)">
     <use xlink:href="#C1_0_ac3795315f" x="50.1" y="301.168125" style="fill: #1f77b4; stroke: #000000; stroke-width: 0.4"/>
    </g>
   </g>
   <g id="patch_3">
    <path d="M 7.2 494.218125 
L 7.2 22.318125 
" style="fill: none; stroke: #000000; stroke-width: 0.8; stroke-linejoin: miter; stroke-linecap: square"/>
   </g>
   <g id="patch_4">
    <path d="M 350.4 494.218125 
L 350.4 22.318125 
" style="fill: none; stroke: #000000; stroke-width: 0.8; stroke-linejoin: miter; stroke-linecap: square"/>
   </g>
   <g id="patch_5">
    <path d="M 7.2 494.218125 
L 350.4 494.218125 
" style="fill: none; stroke: #000000; stroke-width: 0.8; stroke-linejoin: miter; stroke-linecap: square"/>
   </g>
   <g id="patch_6">
    <path d="M 7.2 22.318125 
L 350.4 22.318125 
" style="fill: none; stroke: #000000; stroke-width: 0.8; stroke-linejoin: miter; stroke-linecap: square"/>
   </g>
   <g id="text_1">
    <!-- core -->
    <g style="fill: #ff0000" transform="translate(192.8 261.0275) scale(0.1 -0.1)">
     <defs>
      <path id="DejaVuSans-Bold-63" d="M 3366 3391 
L 3366 2478 
Q 3138 2634 2908 2709 
Q 2678 2784 2431 2784 
Q 1963 2784 1702 2511 
Q 1441 2238 1441 1747 
Q 1441 1256 1702 982 
Q 1963 709 2431 709 
Q 2694 709 2930 787 
Q 3166 866 3366 1019 
L 3366 103 
Q 3103 6 2833 -42 
Q 2563 -91 2291 -91 
Q 1344 -91 809 395 
Q 275 881 275 1747 
Q 275 2613 809 3098 
Q 1344 3584 2291 3584 
Q 2566 3584 2833 3536 
Q 3100 3488 3366 3391 
z
" transform="scale(0.015625)"/>
      <path id="DejaVuSans-Bold-6f" d="M 2203 2784 
Q 1831 2784 1636 2517 
Q 1441 2250 1441 1747 
Q 1441 1244 1636 976 
Q 1831 709 2203 709 
Q 2569 709 2762 976 
Q 2956 1244 2956 1747 
Q 2956 2250 2762 2517 
Q 2569 2784 2203 2784 
z
M 2203 3584 
Q 3106 3584 3614 3096 
Q 4122 2609 4122 1747 
Q 4122 884 3614 396 
Q 3106 -91 2203 -91 
Q 1297 -91 786 396 
Q 275 884 275 1747 
Q 275 2609 786 3096 
Q 1297 3584 2203 3584 
z
" transform="scale(0.015625)"/>
      <path id="DejaVuSans-Bold-72" d="M 3138 2547 
Q 2991 2616 2845 2648 
Q 2700 2681 2553 2681 
Q 2122 2681 1889 2404 
Q 1656 2128 1656 1613 
L 1656 0 
L 538 0 
L 538 3500 
L 1656 3500 
L 1656 2925 
Q 1872 3269 2151 3426 
Q 2431 3584 2822 3584 
Q 2878 3584 2943 3579 
Q 3009 3575 3134 3559 
L 3138 2547 
z
" transform="scale(0.015625)"/>
      <path id="DejaVuSans-Bold-65" d="M 4031 1759 
L 4031 1441 
L 1416 1441 
Q 1456 1047 1700 850 
Q 1944 653 2381 653 
Q 2734 653 3104 758 
Q 3475 863 3866 1075 
L 3866 213 
Q 3469 63 3072 -14 
Q 2675 -91 2278 -91 
Q 1328 -91 801 392 
Q 275 875 275 1747 
Q 275 2603 792 3093 
Q 1309 3584 2216 3584 
Q 3041 3584 3536 3087 
Q 4031 2591 4031 1759 
z
M 2881 2131 
Q 2881 2450 2695 2645 
Q 2509 2841 2209 2841 
Q 1884 2841 1681 2658 
Q 1478 2475 1428 2131 
L 2881 2131 
z
" transform="scale(0.015625)"/>
     </defs>
     <use xlink:href="#DejaVuSans-Bold-63"/>
     <use xlink:href="#DejaVuSans-Bold-6f" transform="translate(59.277344 0)"/>
     <use xlink:href="#DejaVuSans-Bold-72" transform="translate(127.978516 0)"/>
     <use xlink:href="#DejaVuSans-Bold-65" transform="translate(177.294922 0)"/>
    </g>
   </g>
   <g id="line2d_31">
    <path d="M 178.8 258.268125 
L 178.8 344.068125 
" clip-path="url(#p252ce07647)" style="fill: none; stroke: #ff0000; stroke-width: 3; stroke-linecap: square"/>
   </g>
   <g id="line2d_32">
    <path d="M 178.8 344.068125 
L 221.7 344.068125 
" clip-path="url(#p252ce07647)" style="fill: none; stroke: #ff0000; stroke-width: 3; stroke-linecap: square"/>
   </g>
   <g id="text_2">
    <!-- read only (arguments) -->
    <g style="fill: #4682b4" transform="translate(109.132188 41.394531) scale(0.11 -0.11)">
     <defs>
      <path id="DejaVuSans-Bold-61" d="M 2106 1575 
Q 1756 1575 1579 1456 
Q 1403 1338 1403 1106 
Q 1403 894 1545 773 
Q 1688 653 1941 653 
Q 2256 653 2472 879 
Q 2688 1106 2688 1447 
L 2688 1575 
L 2106 1575 
z
M 3816 1997 
L 3816 0 
L 2688 0 
L 2688 519 
Q 2463 200 2181 54 
Q 1900 -91 1497 -91 
Q 953 -91 614 226 
Q 275 544 275 1050 
Q 275 1666 698 1953 
Q 1122 2241 2028 2241 
L 2688 2241 
L 2688 2328 
Q 2688 2594 2478 2717 
Q 2269 2841 1825 2841 
Q 1466 2841 1156 2769 
Q 847 2697 581 2553 
L 581 3406 
Q 941 3494 1303 3539 
Q 1666 3584 2028 3584 
Q 2975 3584 3395 3211 
Q 3816 2838 3816 1997 
z
" transform="scale(0.015625)"/>
      <path id="DejaVuSans-Bold-64" d="M 2919 2988 
L 2919 4863 
L 4044 4863 
L 4044 0 
L 2919 0 
L 2919 506 
Q 2688 197 2409 53 
Q 2131 -91 1766 -91 
Q 1119 -91 703 423 
Q 288 938 288 1747 
Q 288 2556 703 3070 
Q 1119 3584 1766 3584 
Q 2128 3584 2408 3439 
Q 2688 3294 2919 2988 
z
M 2181 722 
Q 2541 722 2730 984 
Q 2919 1247 2919 1747 
Q 2919 2247 2730 2509 
Q 2541 2772 2181 2772 
Q 1825 2772 1636 2509 
Q 1447 2247 1447 1747 
Q 1447 1247 1636 984 
Q 1825 722 2181 722 
z
" transform="scale(0.015625)"/>
      <path id="DejaVuSans-Bold-20" transform="scale(0.015625)"/>
      <path id="DejaVuSans-Bold-6e" d="M 4056 2131 
L 4056 0 
L 2931 0 
L 2931 347 
L 2931 1631 
Q 2931 2084 2911 2256 
Q 2891 2428 2841 2509 
Q 2775 2619 2662 2680 
Q 2550 2741 2406 2741 
Q 2056 2741 1856 2470 
Q 1656 2200 1656 1722 
L 1656 0 
L 538 0 
L 538 3500 
L 1656 3500 
L 1656 2988 
Q 1909 3294 2193 3439 
Q 2478 3584 2822 3584 
Q 3428 3584 3742 3212 
Q 4056 2841 4056 2131 
z
" transform="scale(0.015625)"/>
      <path id="DejaVuSans-Bold-6c" d="M 538 4863 
L 1656 4863 
L 1656 0 
L 538 0 
L 538 4863 
z
" transform="scale(0.015625)"/>
      <path id="DejaVuSans-Bold-79" d="M 78 3500 
L 1197 3500 
L 2138 1125 
L 2938 3500 
L 4056 3500 
L 2584 -331 
Q 2363 -916 2067 -1148 
Q 1772 -1381 1288 -1381 
L 641 -1381 
L 641 -647 
L 991 -647 
Q 1275 -647 1404 -556 
Q 1534 -466 1606 -231 
L 1638 -134 
L 78 3500 
z
" transform="scale(0.015625)"/>
      <path id="DejaVuSans-Bold-28" d="M 2413 -844 
L 1484 -844 
Q 1006 -72 778 623 
Q 550 1319 550 2003 
Q 550 2688 779 3389 
Q 1009 4091 1484 4856 
L 2413 4856 
Q 2013 4116 1813 3408 
Q 1613 2700 1613 2009 
Q 1613 1319 1811 609 
Q 2009 -100 2413 -844 
z
" transform="scale(0.015625)"/>
      <path id="DejaVuSans-Bold-67" d="M 2919 594 
Q 2688 288 2409 144 
Q 2131 0 1766 0 
Q 1125 0 706 504 
Q 288 1009 288 1791 
Q 288 2575 706 3076 
Q 1125 3578 1766 3578 
Q 2131 3578 2409 3434 
Q 2688 3291 2919 2981 
L 2919 3500 
L 4044 3500 
L 4044 353 
Q 4044 -491 3511 -936 
Q 2978 -1381 1966 -1381 
Q 1638 -1381 1331 -1331 
Q 1025 -1281 716 -1178 
L 716 -306 
Q 1009 -475 1290 -558 
Q 1572 -641 1856 -641 
Q 2406 -641 2662 -400 
Q 2919 -159 2919 353 
L 2919 594 
z
M 2181 2772 
Q 1834 2772 1640 2515 
Q 1447 2259 1447 1791 
Q 1447 1309 1634 1061 
Q 1822 813 2181 813 
Q 2531 813 2725 1069 
Q 2919 1325 2919 1791 
Q 2919 2259 2725 2515 
Q 2531 2772 2181 2772 
z
" transform="scale(0.015625)"/>
      <path id="DejaVuSans-Bold-75" d="M 500 1363 
L 500 3500 
L 1625 3500 
L 1625 3150 
Q 1625 2866 1622 2436 
Q 1619 2006 1619 1863 
Q 1619 1441 1641 1255 
Q 1663 1069 1716 984 
Q 1784 875 1895 815 
Q 2006 756 2150 756 
Q 2500 756 2700 1025 
Q 2900 1294 2900 1772 
L 2900 3500 
L 4019 3500 
L 4019 0 
L 2900 0 
L 2900 506 
Q 2647 200 2364 54 
Q 2081 -91 1741 -91 
Q 1134 -91 817 281 
Q 500 653 500 1363 
z
" transform="scale(0.015625)"/>
      <path id="DejaVuSans-Bold-6d" d="M 3781 2919 
Q 3994 3244 4286 3414 
Q 4578 3584 4928 3584 
Q 5531 3584 5847 3212 
Q 6163 2841 6163 2131 
L 6163 0 
L 5038 0 
L 5038 1825 
Q 5041 1866 5042 1909 
Q 5044 1953 5044 2034 
Q 5044 2406 4934 2573 
Q 4825 2741 4581 2741 
Q 4263 2741 4089 2478 
Q 3916 2216 3909 1719 
L 3909 0 
L 2784 0 
L 2784 1825 
Q 2784 2406 2684 2573 
Q 2584 2741 2328 2741 
Q 2006 2741 1831 2477 
Q 1656 2213 1656 1722 
L 1656 0 
L 531 0 
L 531 3500 
L 1656 3500 
L 1656 2988 
Q 1863 3284 2130 3434 
Q 2397 3584 2719 3584 
Q 3081 3584 3359 3409 
Q 3638 3234 3781 2919 
z
" transform="scale(0.015625)"/>
      <path id="DejaVuSans-Bold-74" d="M 1759 4494 
L 1759 3500 
L 2913 3500 
L 2913 2700 
L 1759 2700 
L 1759 1216 
Q 1759 972 1856 886 
Q 1953 800 2241 800 
L 2816 800 
L 2816 0 
L 1856 0 
Q 1194 0 917 276 
Q 641 553 641 1216 
L 641 2700 
L 84 2700 
L 84 3500 
L 641 3500 
L 641 4494 
L 1759 4494 
z
" transform="scale(0.015625)"/>
      <path id="DejaVuSans-Bold-73" d="M 3272 3391 
L 3272 2541 
Q 2913 2691 2578 2766 
Q 2244 2841 1947 2841 
Q 1628 2841 1473 2761 
Q 1319 2681 1319 2516 
Q 1319 2381 1436 2309 
Q 1553 2238 1856 2203 
L 2053 2175 
Q 2913 2066 3209 1816 
Q 3506 1566 3506 1031 
Q 3506 472 3093 190 
Q 2681 -91 1863 -91 
Q 1516 -91 1145 -36 
Q 775 19 384 128 
L 384 978 
Q 719 816 1070 734 
Q 1422 653 1784 653 
Q 2113 653 2278 743 
Q 2444 834 2444 1013 
Q 2444 1163 2330 1236 
Q 2216 1309 1875 1350 
L 1678 1375 
Q 931 1469 631 1722 
Q 331 1975 331 2491 
Q 331 3047 712 3315 
Q 1094 3584 1881 3584 
Q 2191 3584 2531 3537 
Q 2872 3491 3272 3391 
z
" transform="scale(0.015625)"/>
      <path id="DejaVuSans-Bold-29" d="M 513 -844 
Q 913 -100 1113 609 
Q 1313 1319 1313 2009 
Q 1313 2700 1113 3408 
Q 913 4116 513 4856 
L 1441 4856 
Q 1916 4091 2145 3389 
Q 2375 2688 2375 2003 
Q 2375 1319 2147 623 
Q 1919 -72 1441 -844 
L 513 -844 
z
" transform="scale(0.015625)"/>
     </defs>
     <use xlink:href="#DejaVuSans-Bold-72"/>
     <use xlink:href="#DejaVuSans-Bold-65" transform="translate(49.316406 0)"/>
     <use xlink:href="#DejaVuSans-Bold-61" transform="translate(117.138672 0)"/>
     <use xlink:href="#DejaVuSans-Bold-64" transform="translate(184.619141 0)"/>
     <use xlink:href="#DejaVuSans-Bold-20" transform="translate(256.201172 0)"/>
     <use xlink:href="#DejaVuSans-Bold-6f" transform="translate(291.015625 0)"/>
     <use xlink:href="#DejaVuSans-Bold-6e" transform="translate(359.716797 0)"/>
     <use xlink:href="#DejaVuSans-Bold-6c" transform="translate(430.908203 0)"/>
     <use xlink:href="#DejaVuSans-Bold-79" transform="translate(465.185547 0)"/>
     <use xlink:href="#DejaVuSans-Bold-20" transform="translate(530.371094 0)"/>
     <use xlink:href="#DejaVuSans-Bold-28" transform="translate(565.185547 0)"/>
     <use xlink:href="#DejaVuSans-Bold-61" transform="translate(610.888672 0)"/>
     <use xlink:href="#DejaVuSans-Bold-72" transform="translate(678.369141 0)"/>
     <use xlink:href="#DejaVuSans-Bold-67" transform="translate(727.685547 0)"/>
     <use xlink:href="#DejaVuSans-Bold-75" transform="translate(799.267578 0)"/>
     <use xlink:href="#DejaVuSans-Bold-6d" transform="translate(870.458984 0)"/>
     <use xlink:href="#DejaVuSans-Bold-65" transform="translate(974.658203 0)"/>
     <use xlink:href="#DejaVuSans-Bold-6e" transform="translate(1042.480469 0)"/>
     <use xlink:href="#DejaVuSans-Bold-74" transform="translate(1113.671875 0)"/>
     <use xlink:href="#DejaVuSans-Bold-73" transform="translate(1161.474609 0)"/>
     <use xlink:href="#DejaVuSans-Bold-29" transform="translate(1220.996094 0)"/>
    </g>
   </g>
   <g id="text_3">
    <!-- scratch arena (intermediates + output) -->
    <g style="fill: #696969" transform="translate(56.657031 481.126406) scale(0.11 -0.11)">
     <defs>
      <path id="DejaVuSans-Bold-68" d="M 4056 2131 
L 4056 0 
L 2931 0 
L 2931 347 
L 2931 1625 
Q 2931 2084 2911 2256 
Q 2891 2428 2841 2509 
Q 2775 2619 2662 2680 
Q 2550 2741 2406 2741 
Q 2056 2741 1856 2470 
Q 1656 2200 1656 1722 
L 1656 0 
L 538 0 
L 538 4863 
L 1656 4863 
L 1656 2988 
Q 1909 3294 2193 3439 
Q 2478 3584 2822 3584 
Q 3428 3584 3742 3212 
Q 4056 2841 4056 2131 
z
" transform="scale(0.015625)"/>
      <path id="DejaVuSans-Bold-69" d="M 538 3500 
L 1656 3500 
L 1656 0 
L 538 0 
L 538 3500 
z
M 538 4863 
L 1656 4863 
L 1656 3950 
L 538 3950 
L 538 4863 
z
" transform="scale(0.015625)"/>
      <path id="DejaVuSans-Bold-2b" d="M 3053 4013 
L 3053 2375 
L 4684 2375 
L 4684 1638 
L 3053 1638 
L 3053 0 
L 2309 0 
L 2309 1638 
L 678 1638 
L 678 2375 
L 2309 2375 
L 2309 4013 
L 3053 4013 
z
" transform="scale(0.015625)"/>
      <path id="DejaVuSans-Bold-70" d="M 1656 506 
L 1656 -1331 
L 538 -1331 
L 538 3500 
L 1656 3500 
L 1656 2988 
Q 1888 3294 2169 3439 
Q 2450 3584 2816 3584 
Q 3463 3584 3878 3070 
Q 4294 2556 4294 1747 
Q 4294 938 3878 423 
Q 3463 -91 2816 -91 
Q 2450 -91 2169 54 
Q 1888 200 1656 506 
z
M 2400 2772 
Q 2041 2772 1848 2508 
Q 1656 2244 1656 1747 
Q 1656 1250 1848 986 
Q 2041 722 2400 722 
Q 2759 722 2948 984 
Q 3138 1247 3138 1747 
Q 3138 2247 2948 2509 
Q 2759 2772 2400 2772 
z
" transform="scale(0.015625)"/>
     </defs>
     <use xlink:href="#DejaVuSans-Bold-73"/>
     <use xlink:href="#DejaVuSans-Bold-63" transform="translate(59.521484 0)"/>
     <use xlink:href="#DejaVuSans-Bold-72" transform="translate(118.798828 0)"/>
     <use xlink:href="#DejaVuSans-Bold-61" transform="translate(168.115234 0)"/>
     <use xlink:href="#DejaVuSans-Bold-74" transform="translate(235.595703 0)"/>
     <use xlink:href="#DejaVuSans-Bold-63" transform="translate(283.398438 0)"/>
     <use xlink:href="#DejaVuSans-Bold-68" transform="translate(342.675781 0)"/>
     <use xlink:href="#DejaVuSans-Bold-20" transform="translate(413.867188 0)"/>
     <use xlink:href="#DejaVuSans-Bold-61" transform="translate(448.681641 0)"/>
     <use xlink:href="#DejaVuSans-Bold-72" transform="translate(516.162109 0)"/>
     <use xlink:href="#DejaVuSans-Bold-65" transform="translate(565.478516 0)"/>
     <use xlink:href="#DejaVuSans-Bold-6e" transform="translate(633.300781 0)"/>
     <use xlink:href="#DejaVuSans-Bold-61" transform="translate(704.492188 0)"/>
     <use xlink:href="#DejaVuSans-Bold-20" transform="translate(771.972656 0)"/>
     <use xlink:href="#DejaVuSans-Bold-28" transform="translate(806.787109 0)"/>
     <use xlink:href="#DejaVuSans-Bold-69" transform="translate(852.490234 0)"/>
     <use xlink:href="#DejaVuSans-Bold-6e" transform="translate(886.767578 0)"/>
     <use xlink:href="#DejaVuSans-Bold-74" transform="translate(957.958984 0)"/>
     <use xlink:href="#DejaVuSans-Bold-65" transform="translate(1005.761719 0)"/>
     <use xlink:href="#DejaVuSans-Bold-72" transform="translate(1073.583984 0)"/>
     <use xlink:href="#DejaVuSans-Bold-6d" transform="translate(1122.900391 0)"/>
     <use xlink:href="#DejaVuSans-Bold-65" transform="translate(1227.099609 0)"/>
     <use xlink:href="#DejaVuSans-Bold-64" transform="translate(1294.921875 0)"/>
     <use xlink:href="#DejaVuSans-Bold-69" transform="translate(1366.503906 0)"/>
     <use xlink:href="#DejaVuSans-Bold-61" transform="translate(1400.78125 0)"/>
     <use xlink:href="#DejaVuSans-Bold-74" transform="translate(1468.261719 0)"/>
     <use xlink:href="#DejaVuSans-Bold-65" transform="translate(1516.064453 0)"/>
     <use xlink:href="#DejaVuSans-Bold-73" transform="translate(1583.886719 0)"/>
     <use xlink:href="#DejaVuSans-Bold-20" transform="translate(1643.408203 0)"/>
     <use xlink:href="#DejaVuSans-Bold-2b" transform="translate(1678.222656 0)"/>
     <use xlink:href="#DejaVuSans-Bold-20" transform="translate(1762.011719 0)"/>
     <use xlink:href="#DejaVuSans-Bold-6f" transform="translate(1796.826172 0)"/>
     <use xlink:href="#DejaVuSans-Bold-75" transform="translate(1865.527344 0)"/>
     <use xlink:href="#DejaVuSans-Bold-74" transform="translate(1936.71875 0)"/>
     <use xlink:href="#DejaVuSans-Bold-70" transform="translate(1984.521484 0)"/>
     <use xlink:href="#DejaVuSans-Bold-75" transform="translate(2056.103516 0)"/>
     <use xlink:href="#DejaVuSans-Bold-74" transform="translate(2127.294922 0)"/>
     <use xlink:href="#DejaVuSans-Bold-29" transform="translate(2175.097656 0)"/>
    </g>
   </g>
   <g id="text_4">
    <!-- Manhattan-Diamond: two arenas around one core -->
    <g transform="translate(29.180625 16.318125) scale(0.12 -0.12)">
     <defs>
      <path id="DejaVuSans-4d" d="M 628 4666 
L 1569 4666 
L 2759 1491 
L 3956 4666 
L 4897 4666 
L 4897 0 
L 4281 0 
L 4281 4097 
L 3078 897 
L 2444 897 
L 1241 4097 
L 1241 0 
L 628 0 
L 628 4666 
z
" transform="scale(0.015625)"/>
      <path id="DejaVuSans-61" d="M 2194 1759 
Q 1497 1759 1228 1600 
Q 959 1441 959 1056 
Q 959 750 1161 570 
Q 1363 391 1709 391 
Q 2188 391 2477 730 
Q 2766 1069 2766 1631 
L 2766 1759 
L 2194 1759 
z
M 3341 1997 
L 3341 0 
L 2766 0 
L 2766 531 
Q 2569 213 2275 61 
Q 1981 -91 1556 -91 
Q 1019 -91 701 211 
Q 384 513 384 1019 
Q 384 1609 779 1909 
Q 1175 2209 1959 2209 
L 2766 2209 
L 2766 2266 
Q 2766 2663 2505 2880 
Q 2244 3097 1772 3097 
Q 1472 3097 1187 3025 
Q 903 2953 641 2809 
L 641 3341 
Q 956 3463 1253 3523 
Q 1550 3584 1831 3584 
Q 2591 3584 2966 3190 
Q 3341 2797 3341 1997 
z
" transform="scale(0.015625)"/>
      <path id="DejaVuSans-6e" d="M 3513 2113 
L 3513 0 
L 2938 0 
L 2938 2094 
Q 2938 2591 2744 2837 
Q 2550 3084 2163 3084 
Q 1697 3084 1428 2787 
Q 1159 2491 1159 1978 
L 1159 0 
L 581 0 
L 581 3500 
L 1159 3500 
L 1159 2956 
Q 1366 3272 1645 3428 
Q 1925 3584 2291 3584 
Q 2894 3584 3203 3211 
Q 3513 2838 3513 2113 
z
" transform="scale(0.015625)"/>
      <path id="DejaVuSans-68" d="M 3513 2113 
L 3513 0 
L 2938 0 
L 2938 2094 
Q 2938 2591 2744 2837 
Q 2550 3084 2163 3084 
Q 1697 3084 1428 2787 
Q 1159 2491 1159 1978 
L 1159 0 
L 581 0 
L 581 4863 
L 1159 4863 
L 1159 2956 
Q 1366 3272 1645 3428 
Q 1925 3584 2291 3584 
Q 2894 3584 3203 3211 
Q 3513 2838 3513 2113 
z
" transform="scale(0.015625)"/>
      <path id="DejaVuSans-74" d="M 1172 4494 
L 1172 3500 
L 2356 3500 
L 2356 3053 
L 1172 3053 
L 1172 1153 
Q 1172 725 1289 603 
Q 1406 481 1766 481 
L 2356 481 
L 2356 0 
L 1766 0 
Q 1100 0 847 248 
Q 594 497 594 1153 
L 594 3053 
L 172 3053 
L 172 3500 
L 594 3500 
L 594 4494 
L 1172 4494 
z
" transform="scale(0.015625)"/>
      <path id="DejaVuSans-2d" d="M 313 2009 
L 1997 2009 
L 1997 1497 
L 313 1497 
L 313 2009 
z
" transform="scale(0.015625)"/>
      <path id="DejaVuSans-44" d="M 1259 4147 
L 1259 519 
L 2022 519 
Q 2988 519 3436 956 
Q 3884 1394 3884 2338 
Q 3884 3275 3436 3711 
Q 2988 4147 2022 4147 
L 1259 4147 
z
M 628 4666 
L 1925 4666 
Q 3281 4666 3915 4102 
Q 4550 3538 4550 2338 
Q 4550 1131 3912 565 
Q 3275 0 1925 0 
L 628 0 
L 628 4666 
z
" transform="scale(0.015625)"/>
      <path id="DejaVuSans-69" d="M 603 3500 
L 1178 3500 
L 1178 0 
L 603 0 
L 603 3500 
z
M 603 4863 
L 1178 4863 
L 1178 4134 
L 603 4134 
L 603 4863 
z
" transform="scale(0.015625)"/>
      <path id="DejaVuSans-6d" d="M 3328 2828 
Q 3544 3216 3844 3400 
Q 4144 3584 4550 3584 
Q 5097 3584 5394 3201 
Q 5691 2819 5691 2113 
L 5691 0 
L 5113 0 
L 5113 2094 
Q 5113 2597 4934 2840 
Q 4756 3084 4391 3084 
Q 3944 3084 3684 2787 
Q 3425 2491 3425 1978 
L 3425 0 
L 2847 0 
L 2847 2094 
Q 2847 2600 2669 2842 
Q 2491 3084 2119 3084 
Q 1678 3084 1418 2786 
Q 1159 2488 1159 1978 
L 1159 0 
L 581 0 
L 581 3500 
L 1159 3500 
L 1159 2956 
Q 1356 3278 1631 3431 
Q 1906 3584 2284 3584 
Q 2666 3584 2933 3390 
Q 3200 3197 3328 2828 
z
" transform="scale(0.015625)"/>
      <path id="DejaVuSans-6f" d="M 1959 3097 
Q 1497 3097 1228 2736 
Q 959 2375 959 1747 
Q 959 1119 1226 758 
Q 1494 397 1959 397 
Q 2419 397 2687 759 
Q 2956 1122 2956 1747 
Q 2956 2369 2687 2733 
Q 2419 3097 1959 3097 
z
M 1959 3584 
Q 2709 3584 3137 3096 
Q 3566 2609 3566 1747 
Q 3566 888 3137 398 
Q 2709 -91 1959 -91 
Q 1206 -91 779 398 
Q 353 888 353 1747 
Q 353 2609 779 3096 
Q 1206 3584 1959 3584 
z
" transform="scale(0.015625)"/>
      <path id="DejaVuSans-64" d="M 2906 2969 
L 2906 4863 
L 3481 4863 
L 3481 0 
L 2906 0 
L 2906 525 
Q 2725 213 2448 61 
Q 2172 -91 1784 -91 
Q 1150 -91 751 415 
Q 353 922 353 1747 
Q 353 2572 751 3078 
Q 1150 3584 1784 3584 
Q 2172 3584 2448 3432 
Q 2725 3281 2906 2969 
z
M 947 1747 
Q 947 1113 1208 752 
Q 1469 391 1925 391 
Q 2381 391 2643 752 
Q 2906 1113 2906 1747 
Q 2906 2381 2643 2742 
Q 2381 3103 1925 3103 
Q 1469 3103 1208 2742 
Q 947 2381 947 1747 
z
" transform="scale(0.015625)"/>
      <path id="DejaVuSans-3a" d="M 750 794 
L 1409 794 
L 1409 0 
L 750 0 
L 750 794 
z
M 750 3309 
L 1409 3309 
L 1409 2516 
L 750 2516 
L 750 3309 
z
" transform="scale(0.015625)"/>
      <path id="DejaVuSans-20" transform="scale(0.015625)"/>
      <path id="DejaVuSans-77" d="M 269 3500 
L 844 3500 
L 1563 769 
L 2278 3500 
L 2956 3500 
L 3675 769 
L 4391 3500 
L 4966 3500 
L 4050 0 
L 3372 0 
L 2619 2869 
L 1863 0 
L 1184 0 
L 269 3500 
z
" transform="scale(0.015625)"/>
      <path id="DejaVuSans-72" d="M 2631 2963 
Q 2534 3019 2420 3045 
Q 2306 3072 2169 3072 
Q 1681 3072 1420 2755 
Q 1159 2438 1159 1844 
L 1159 0 
L 581 0 
L 581 3500 
L 1159 3500 
L 1159 2956 
Q 1341 3275 1631 3429 
Q 1922 3584 2338 3584 
Q 2397 3584 2469 3576 
Q 2541 3569 2628 3553 
L 2631 2963 
z
" transform="scale(0.015625)"/>
      <path id="DejaVuSans-65" d="M 3597 1894 
L 3597 1613 
L 953 1613 
Q 991 1019 1311 708 
Q 1631 397 2203 397 
Q 2534 397 2845 478 
Q 3156 559 3463 722 
L 3463 178 
Q 3153 47 2828 -22 
Q 2503 -91 2169 -91 
Q 1331 -91 842 396 
Q 353 884 353 1716 
Q 353 2575 817 3079 
Q 1281 3584 2069 3584 
Q 2775 3584 3186 3129 
Q 3597 2675 3597 1894 
z
M 3022 2063 
Q 3016 2534 2758 2815 
Q 2500 3097 2075 3097 
Q 1594 3097 1305 2825 
Q 1016 2553 972 2059 
L 3022 2063 
z
" transform="scale(0.015625)"/>
      <path id="DejaVuSans-73" d="M 2834 3397 
L 2834 2853 
Q 2591 2978 2328 3040 
Q 2066 3103 1784 3103 
Q 1356 3103 1142 2972 
Q 928 2841 928 2578 
Q 928 2378 1081 2264 
Q 1234 2150 1697 2047 
L 1894 2003 
Q 2506 1872 2764 1633 
Q 3022 1394 3022 966 
Q 3022 478 2636 193 
Q 2250 -91 1575 -91 
Q 1294 -91 989 -36 
Q 684 19 347 128 
L 347 722 
Q 666 556 975 473 
Q 1284 391 1588 391 
Q 1994 391 2212 530 
Q 2431 669 2431 922 
Q 2431 1156 2273 1281 
Q 2116 1406 1581 1522 
L 1381 1569 
Q 847 1681 609 1914 
Q 372 2147 372 2553 
Q 372 3047 722 3315 
Q 1072 3584 1716 3584 
Q 2034 3584 2315 3537 
Q 2597 3491 2834 3397 
z
" transform="scale(0.015625)"/>
      <path id="DejaVuSans-75" d="M 544 1381 
L 544 3500 
L 1119 3500 
L 1119 1403 
Q 1119 906 1312 657 
Q 1506 409 1894 409 
Q 2359 409 2629 706 
Q 2900 1003 2900 1516 
L 2900 3500 
L 3475 3500 
L 3475 0 
L 2900 0 
L 2900 538 
Q 2691 219 2414 64 
Q 2138 -91 1772 -91 
Q 1169 -91 856 284 
Q 544 659 544 1381 
z
M 1991 3584 
L 1991 3584 
z
" transform="scale(0.015625)"/>
      <path id="DejaVuSans-63" d="M 3122 3366 
L 3122 2828 
Q 2878 2963 2633 3030 
Q 2388 3097 2138 3097 
Q 1578 3097 1268 2742 
Q 959 2388 959 1747 
Q 959 1106 1268 751 
Q 1578 397 2138 397 
Q 2388 397 2633 464 
Q 2878 531 3122 666 
L 3122 134 
Q 2881 22 2623 -34 
Q 2366 -91 2075 -91 
Q 1284 -91 818 406 
Q 353 903 353 1747 
Q 353 2603 823 3093 
Q 1294 3584 2113 3584 
Q 2378 3584 2631 3529 
Q 2884 3475 3122 3366 
z
" transform="scale(0.015625)"/>
     </defs>
     <use xlink:href="#DejaVuSans-4d"/>
     <use xlink:href="#DejaVuSans-61" transform="translate(86.279297 0)"/>
     <use xlink:href="#DejaVuSans-6e" transform="translate(147.558594 0)"/>
     <use xlink:href="#DejaVuSans-68" transform="translate(210.9375 0)"/>
     <use xlink:href="#DejaVuSans-61" transform="translate(274.316406 0)"/>
     <use xlink:href="#DejaVuSans-74" transform="translate(335.595703 0)"/>
     <use xlink:href="#DejaVuSans-74" transform="translate(374.804688 0)"/>
     <use xlink:href="#DejaVuSans-61" transform="translate(414.013672 0)"/>
     <use xlink:href="#DejaVuSans-6e" transform="translate(475.292969 0)"/>
     <use xlink:href="#DejaVuSans-2d" transform="translate(538.671875 0)"/>
     <use xlink:href="#DejaVuSans-44" transform="translate(574.755859 0)"/>
     <use xlink:href="#DejaVuSans-69" transform="translate(651.757812 0)"/>
     <use xlink:href="#DejaVuSans-61" transform="translate(679.541016 0)"/>
     <use xlink:href="#DejaVuSans-6d" transform="translate(740.820312 0)"/>
     <use xlink:href="#DejaVuSans-6f" transform="translate(838.232422 0)"/>
     <use xlink:href="#DejaVuSans-6e" transform="translate(899.414062 0)"/>
     <use xlink:href="#DejaVuSans-64" transform="translate(962.792969 0)"/>
     <use xlink:href="#DejaVuSans-3a" transform="translate(1026.269531 0)"/>
     <use xlink:href="#DejaVuSans-20" transform="translate(1059.960938 0)"/>
     <use xlink:href="#DejaVuSans-74" transform="translate(1091.748047 0)"/>
     <use xlink:href="#DejaVuSans-77" transform="translate(1130.957031 0)"/>
     <use xlink:href="#DejaVuSans-6f" transform="translate(1212.744141 0)"/>
     <use xlink:href="#DejaVuSans-20" transform="translate(1273.925781 0)"/>
     <use xlink:href="#DejaVuSans-61" transform="translate(1305.712891 0)"/>
     <use xlink:href="#DejaVuSans-72" transform="translate(1366.992188 0)"/>
     <use xlink:href="#DejaVuSans-65" transform="translate(1405.855469 0)"/>
     <use xlink:href="#DejaVuSans-6e" transform="translate(1467.378906 0)"/>
     <use xlink:href="#DejaVuSans-61" transform="translate(1530.757812 0)"/>
     <use xlink:href="#DejaVuSans-73" transform="translate(1592.037109 0)"/>
     <use xlink:href="#DejaVuSans-20" transform="translate(1644.136719 0)"/>
     <use xlink:href="#DejaVuSans-61" transform="translate(1675.923828 0)"/>
     <use xlink:href="#DejaVuSans-72" transform="translate(1737.203125 0)"/>
     <use xlink:href="#DejaVuSans-6f" transform="translate(1776.066406 0)"/>
     <use xlink:href="#DejaVuSans-75" transform="translate(1837.248047 0)"/>
     <use xlink:href="#DejaVuSans-6e" transform="translate(1900.626953 0)"/>
     <use xlink:href="#DejaVuSans-64" transform="translate(1964.005859 0)"/>
     <use xlink:href="#DejaVuSans-20" transform="translate(2027.482422 0)"/>
     <use xlink:href="#DejaVuSans-6f" transform="translate(2059.269531 0)"/>
     <use xlink:href="#DejaVuSans-6e" transform="translate(2120.451172 0)"/>
     <use xlink:href="#DejaVuSans-65" transform="translate(2183.830078 0)"/>
     <use xlink:href="#DejaVuSans-20" transform="translate(2245.353516 0)"/>
     <use xlink:href="#DejaVuSans-63" transform="translate(2277.140625 0)"/>
     <use xlink:href="#DejaVuSans-6f" transform="translate(2332.121094 0)"/>
     <use xlink:href="#DejaVuSans-72" transform="translate(2393.302734 0)"/>
     <use xlink:href="#DejaVuSans-65" transform="translate(2432.166016 0)"/>
    </g>
   </g>
   <g id="text_5">
    <g id="patch_7">
     <path d="M 179.313359 209.718125 
L 188.286641 209.718125 
Q 189.636641 209.718125 189.636641 208.368125 
L 189.636641 199.657812 
Q 189.636641 198.307812 188.286641 198.307812 
L 179.313359 198.307812 
Q 177.963359 198.307812 177.963359 199.657812 
L 177.963359 208.368125 
Q 177.963359 209.718125 179.313359 209.718125 
z
" style="fill: #ffffff; opacity: 0.3"/>
    </g>
    <!-- -1 -->
    <g style="opacity: 0.4" transform="translate(179.313359 206.496406) scale(0.09 -0.09)">
     <defs>
      <path id="DejaVuSans-31" d="M 794 531 
L 1825 531 
L 1825 4091 
L 703 3866 
L 703 4441 
L 1819 4666 
L 2450 4666 
L 2450 531 
L 3481 531 
L 3481 0 
L 794 0 
L 794 531 
z
" transform="scale(0.015625)"/>
     </defs>
     <use xlink:href="#DejaVuSans-2d"/>
     <use xlink:href="#DejaVuSans-31" transform="translate(36.083984 0)"/>
    </g>
   </g>
   <g id="text_6">
    <g id="patch_8">
     <path d="M 217.213359 209.718125 
L 226.186641 209.718125 
Q 227.536641 209.718125 227.536641 208.368125 
L 227.536641 199.657812 
Q 227.536641 198.307812 226.186641 198.307812 
L 217.213359 198.307812 
Q 215.863359 198.307812 215.863359 199.657812 
L 215.863359 208.368125 
Q 215.863359 209.718125 217.213359 209.718125 
z
" style="fill: #ffffff; opacity: 0.3"/>
    </g>
    <!-- -2 -->
    <g style="opacity: 0.4" transform="translate(217.213359 206.496406) scale(0.09 -0.09)">
     <defs>
      <path id="DejaVuSans-32" d="M 1228 531 
L 3431 531 
L 3431 0 
L 469 0 
L 469 531 
Q 828 903 1448 1529 
Q 2069 2156 2228 2338 
Q 2531 2678 2651 2914 
Q 2772 3150 2772 3378 
Q 2772 3750 2511 3984 
Q 2250 4219 1831 4219 
Q 1534 4219 1204 4116 
Q 875 4013 500 3803 
L 500 4441 
Q 881 4594 1212 4672 
Q 1544 4750 1819 4750 
Q 2544 4750 2975 4387 
Q 3406 4025 3406 3419 
Q 3406 3131 3298 2873 
Q 3191 2616 2906 2266 
Q 2828 2175 2409 1742 
Q 1991 1309 1228 531 
z
" transform="scale(0.015625)"/>
     </defs>
     <use xlink:href="#DejaVuSans-2d"/>
     <use xlink:href="#DejaVuSans-32" transform="translate(36.083984 0)"/>
    </g>
   </g>
   <g id="text_7">
    <g id="patch_9">
     <path d="M 179.313359 166.818125 
L 188.286641 166.818125 
Q 189.636641 166.818125 189.636641 165.468125 
L 189.636641 156.757812 
Q 189.636641 155.407812 188.286641 155.407812 
L 179.313359 155.407812 
Q 177.963359 155.407812 177.963359 156.757812 
L 177.963359 165.468125 
Q 177.963359 166.818125 179.313359 166.818125 
z
" style="fill: #ffffff; opacity: 0.3"/>
    </g>
    <!-- -3 -->
    <g style="opacity: 0.4" transform="translate(179.313359 163.596406) scale(0.09 -0.09)">
     <defs>
      <path id="DejaVuSans-33" d="M 2597 2516 
Q 3050 2419 3304 2112 
Q 3559 1806 3559 1356 
Q 3559 666 3084 287 
Q 2609 -91 1734 -91 
Q 1441 -91 1130 -33 
Q 819 25 488 141 
L 488 750 
Q 750 597 1062 519 
Q 1375 441 1716 441 
Q 2309 441 2620 675 
Q 2931 909 2931 1356 
Q 2931 1769 2642 2001 
Q 2353 2234 1838 2234 
L 1294 2234 
L 1294 2753 
L 1863 2753 
Q 2328 2753 2575 2939 
Q 2822 3125 2822 3475 
Q 2822 3834 2567 4026 
Q 2313 4219 1838 4219 
Q 1578 4219 1281 4162 
Q 984 4106 628 3988 
L 628 4550 
Q 988 4650 1302 4700 
Q 1616 4750 1894 4750 
Q 2613 4750 3031 4423 
Q 3450 4097 3450 3541 
Q 3450 3153 3228 2886 
Q 3006 2619 2597 2516 
z
" transform="scale(0.015625)"/>
     </defs>
     <use xlink:href="#DejaVuSans-2d"/>
     <use xlink:href="#DejaVuSans-33" transform="translate(36.083984 0)"/>
    </g>
   </g>
   <g id="text_8">
    <g id="patch_10">
     <path d="M 131.413359 209.718125 
L 140.386641 209.718125 
Q 141.736641 209.718125 141.736641 208.368125 
L 141.736641 199.657812 
Q 141.736641 198.307812 140.386641 198.307812 
L 131.413359 198.307812 
Q 130.063359 198.307812 130.063359 199.657812 
L 130.063359 208.368125 
Q 130.063359 209.718125 131.413359 209.718125 
z
" style="fill: #ffffff; opacity: 0.3"/>
    </g>
    <!-- -4 -->
    <g style="opacity: 0.4" transform="translate(131.413359 206.496406) scale(0.09 -0.09)">
     <defs>
      <path id="DejaVuSans-34" d="M 2419 4116 
L 825 1625 
L 2419 1625 
L 2419 4116 
z
M 2253 4666 
L 3047 4666 
L 3047 1625 
L 3713 1625 
L 3713 1100 
L 3047 1100 
L 3047 0 
L 2419 0 
L 2419 1100 
L 313 1100 
L 313 1709 
L 2253 4666 
z
" transform="scale(0.015625)"/>
     </defs>
     <use xlink:href="#DejaVuSans-2d"/>
     <use xlink:href="#DejaVuSans-34" transform="translate(36.083984 0)"/>
    </g>
   </g>
   <g id="text_9">
    <g id="patch_11">
     <path d="M 88.513359 209.718125 
L 97.486641 209.718125 
Q 98.836641 209.718125 98.836641 208.368125 
L 98.836641 199.657812 
Q 98.836641 198.307812 97.486641 198.307812 
L 88.513359 198.307812 
Q 87.163359 198.307812 87.163359 199.657812 
L 87.163359 208.368125 
Q 87.163359 209.718125 88.513359 209.718125 
z
" style="fill: #ffffff; opacity: 0.3"/>
    </g>
    <!-- -5 -->
    <g style="opacity: 0.4" transform="translate(88.513359 206.496406) scale(0.09 -0.09)">
     <defs>
      <path id="DejaVuSans-35" d="M 691 4666 
L 3169 4666 
L 3169 4134 
L 1269 4134 
L 1269 2991 
Q 1406 3038 1543 3061 
Q 1681 3084 1819 3084 
Q 2600 3084 3056 2656 
Q 3513 2228 3513 1497 
Q 3513 744 3044 326 
Q 2575 -91 1722 -91 
Q 1428 -91 1123 -41 
Q 819 9 494 109 
L 494 744 
Q 775 591 1075 516 
Q 1375 441 1709 441 
Q 2250 441 2565 725 
Q 2881 1009 2881 1497 
Q 2881 1984 2565 2268 
Q 2250 2553 1709 2553 
Q 1456 2553 1204 2497 
Q 953 2441 691 2322 
L 691 4666 
z
" transform="scale(0.015625)"/>
     </defs>
     <use xlink:href="#DejaVuSans-2d"/>
     <use xlink:href="#DejaVuSans-35" transform="translate(36.083984 0)"/>
    </g>
   </g>
   <g id="text_10">
    <g id="patch_12">
     <path d="M 130.901484 166.818125 
L 140.898516 166.818125 
Q 142.248516 166.818125 142.248516 165.468125 
L 142.248516 156.757812 
Q 142.248516 155.407812 140.898516 155.407812 
L 130.901484 155.407812 
Q 129.551484 155.407812 129.551484 156.757812 
L 129.551484 165.468125 
Q 129.551484 166.818125 130.901484 166.818125 
z
" style="fill: #ffffff; opacity: 0.7"/>
    </g>
    <!-- -6 -->
    <g transform="translate(130.901484 163.596406) scale(0.09 -0.09)">
     <defs>
      <path id="DejaVuSans-Bold-2d" d="M 347 2297 
L 2309 2297 
L 2309 1388 
L 347 1388 
L 347 2297 
z
" transform="scale(0.015625)"/>
      <path id="DejaVuSans-Bold-36" d="M 2316 2303 
Q 2000 2303 1842 2098 
Q 1684 1894 1684 1484 
Q 1684 1075 1842 870 
Q 2000 666 2316 666 
Q 2634 666 2792 870 
Q 2950 1075 2950 1484 
Q 2950 1894 2792 2098 
Q 2634 2303 2316 2303 
z
M 3803 4544 
L 3803 3681 
Q 3506 3822 3243 3889 
Q 2981 3956 2731 3956 
Q 2194 3956 1894 3657 
Q 1594 3359 1544 2772 
Q 1750 2925 1990 3001 
Q 2231 3078 2516 3078 
Q 3231 3078 3670 2659 
Q 4109 2241 4109 1563 
Q 4109 813 3618 361 
Q 3128 -91 2303 -91 
Q 1394 -91 895 523 
Q 397 1138 397 2266 
Q 397 3422 980 4083 
Q 1563 4744 2578 4744 
Q 2900 4744 3203 4694 
Q 3506 4644 3803 4544 
z
" transform="scale(0.015625)"/>
     </defs>
     <use xlink:href="#DejaVuSans-Bold-2d"/>
     <use xlink:href="#DejaVuSans-Bold-36" transform="translate(41.503906 0)"/>
    </g>
   </g>
   <g id="text_11">
    <g id="patch_13">
     <path d="M 174.313359 123.918125 
L 183.286641 123.918125 
Q 184.636641 123.918125 184.636641 122.568125 
L 184.636641 113.857812 
Q 184.636641 112.507812 183.286641 112.507812 
L 174.313359 112.507812 
Q 172.963359 112.507812 172.963359 113.857812 
L 172.963359 122.568125 
Q 172.963359 123.918125 174.313359 123.918125 
z
" style="fill: #ffffff; opacity: 0.3"/>
    </g>
    <!-- -7 -->
    <g style="opacity: 0.4" transform="translate(174.313359 120.696406) scale(0.09 -0.09)">
     <defs>
      <path id="DejaVuSans-37" d="M 525 4666 
L 3525 4666 
L 3525 4397 
L 1831 0 
L 1172 0 
L 2766 4134 
L 525 4134 
L 525 4666 
z
" transform="scale(0.015625)"/>
     </defs>
     <use xlink:href="#DejaVuSans-2d"/>
     <use xlink:href="#DejaVuSans-37" transform="translate(36.083984 0)"/>
    </g>
   </g>
   <g id="text_12">
    <g id="patch_14">
     <path d="M 217.213359 166.818125 
L 226.186641 166.818125 
Q 227.536641 166.818125 227.536641 165.468125 
L 227.536641 156.757812 
Q 227.536641 155.407812 226.186641 155.407812 
L 217.213359 155.407812 
Q 215.863359 155.407812 215.863359 156.757812 
L 215.863359 165.468125 
Q 215.863359 166.818125 217.213359 166.818125 
z
" style="fill: #ffffff; opacity: 0.3"/>
    </g>
    <!-- -8 -->
    <g style="opacity: 0.4" transform="translate(217.213359 163.596406) scale(0.09 -0.09)">
     <defs>
      <path id="DejaVuSans-38" d="M 2034 2216 
Q 1584 2216 1326 1975 
Q 1069 1734 1069 1313 
Q 1069 891 1326 650 
Q 1584 409 2034 409 
Q 2484 409 2743 651 
Q 3003 894 3003 1313 
Q 3003 1734 2745 1975 
Q 2488 2216 2034 2216 
z
M 1403 2484 
Q 997 2584 770 2862 
Q 544 3141 544 3541 
Q 544 4100 942 4425 
Q 1341 4750 2034 4750 
Q 2731 4750 3128 4425 
Q 3525 4100 3525 3541 
Q 3525 3141 3298 2862 
Q 3072 2584 2669 2484 
Q 3125 2378 3379 2068 
Q 3634 1759 3634 1313 
Q 3634 634 3220 271 
Q 2806 -91 2034 -91 
Q 1263 -91 848 271 
Q 434 634 434 1313 
Q 434 1759 690 2068 
Q 947 2378 1403 2484 
z
M 1172 3481 
Q 1172 3119 1398 2916 
Q 1625 2713 2034 2713 
Q 2441 2713 2670 2916 
Q 2900 3119 2900 3481 
Q 2900 3844 2670 4047 
Q 2441 4250 2034 4250 
Q 1625 4250 1398 4047 
Q 1172 3844 1172 3481 
z
" transform="scale(0.015625)"/>
     </defs>
     <use xlink:href="#DejaVuSans-2d"/>
     <use xlink:href="#DejaVuSans-38" transform="translate(36.083984 0)"/>
    </g>
   </g>
   <g id="text_13">
    <g id="patch_15">
     <path d="M 260.113359 209.718125 
L 269.086641 209.718125 
Q 270.436641 209.718125 270.436641 208.368125 
L 270.436641 199.657812 
Q 270.436641 198.307812 269.086641 198.307812 
L 260.113359 198.307812 
Q 258.763359 198.307812 258.763359 199.657812 
L 258.763359 208.368125 
Q 258.763359 209.718125 260.113359 209.718125 
z
" style="fill: #ffffff; opacity: 0.3"/>
    </g>
    <!-- -9 -->
    <g style="opacity: 0.4" transform="translate(260.113359 206.496406) scale(0.09 -0.09)">
     <defs>
      <path id="DejaVuSans-39" d="M 703 97 
L 703 672 
Q 941 559 1184 500 
Q 1428 441 1663 441 
Q 2288 441 2617 861 
Q 2947 1281 2994 2138 
Q 2813 1869 2534 1725 
Q 2256 1581 1919 1581 
Q 1219 1581 811 2004 
Q 403 2428 403 3163 
Q 403 3881 828 4315 
Q 1253 4750 1959 4750 
Q 2769 4750 3195 4129 
Q 3622 3509 3622 2328 
Q 3622 1225 3098 567 
Q 2575 -91 1691 -91 
Q 1453 -91 1209 -44 
Q 966 3 703 97 
z
M 1959 2075 
Q 2384 2075 2632 2365 
Q 2881 2656 2881 3163 
Q 2881 3666 2632 3958 
Q 2384 4250 1959 4250 
Q 1534 4250 1286 3958 
Q 1038 3666 1038 3163 
Q 1038 2656 1286 2365 
Q 1534 2075 1959 2075 
z
" transform="scale(0.015625)"/>
     </defs>
     <use xlink:href="#DejaVuSans-2d"/>
     <use xlink:href="#DejaVuSans-39" transform="translate(36.083984 0)"/>
    </g>
   </g>
   <g id="text_14">
    <g id="patch_16">
     <path d="M 300.150234 209.718125 
L 314.849766 209.718125 
Q 316.199766 209.718125 316.199766 208.368125 
L 316.199766 199.657812 
Q 316.199766 198.307812 314.849766 198.307812 
L 300.150234 198.307812 
Q 298.800234 198.307812 298.800234 199.657812 
L 298.800234 208.368125 
Q 298.800234 209.718125 300.150234 209.718125 
z
" style="fill: #ffffff; opacity: 0.3"/>
    </g>
    <!-- -10 -->
    <g style="opacity: 0.4" transform="translate(300.150234 206.496406) scale(0.09 -0.09)">
     <defs>
      <path id="DejaVuSans-30" d="M 2034 4250 
Q 1547 4250 1301 3770 
Q 1056 3291 1056 2328 
Q 1056 1369 1301 889 
Q 1547 409 2034 409 
Q 2525 409 2770 889 
Q 3016 1369 3016 2328 
Q 3016 3291 2770 3770 
Q 2525 4250 2034 4250 
z
M 2034 4750 
Q 2819 4750 3233 4129 
Q 3647 3509 3647 2328 
Q 3647 1150 3233 529 
Q 2819 -91 2034 -91 
Q 1250 -91 836 529 
Q 422 1150 422 2328 
Q 422 3509 836 4129 
Q 1250 4750 2034 4750 
z
" transform="scale(0.015625)"/>
     </defs>
     <use xlink:href="#DejaVuSans-2d"/>
     <use xlink:href="#DejaVuSans-31" transform="translate(36.083984 0)"/>
     <use xlink:href="#DejaVuSans-30" transform="translate(99.707031 0)"/>
    </g>
   </g>
   <g id="text_15">
    <g id="patch_17">
     <path d="M 257.250234 166.818125 
L 271.949766 166.818125 
Q 273.299766 166.818125 273.299766 165.468125 
L 273.299766 156.757812 
Q 273.299766 155.407812 271.949766 155.407812 
L 257.250234 155.407812 
Q 255.900234 155.407812 255.900234 156.757812 
L 255.900234 165.468125 
Q 255.900234 166.818125 257.250234 166.818125 
z
" style="fill: #ffffff; opacity: 0.3"/>
    </g>
    <!-- -11 -->
    <g style="opacity: 0.4" transform="translate(257.250234 163.596406) scale(0.09 -0.09)">
     <use xlink:href="#DejaVuSans-2d"/>
     <use xlink:href="#DejaVuSans-31" transform="translate(36.083984 0)"/>
     <use xlink:href="#DejaVuSans-31" transform="translate(99.707031 0)"/>
    </g>
   </g>
   <g id="text_16">
    <g id="patch_18">
     <path d="M 214.350234 123.918125 
L 229.049766 123.918125 
Q 230.399766 123.918125 230.399766 122.568125 
L 230.399766 113.857812 
Q 230.399766 112.507812 229.049766 112.507812 
L 214.350234 112.507812 
Q 213.000234 112.507812 213.000234 113.857812 
L 213.000234 122.568125 
Q 213.000234 123.918125 214.350234 123.918125 
z
" style="fill: #ffffff; opacity: 0.3"/>
    </g>
    <!-- -12 -->
    <g style="opacity: 0.4" transform="translate(214.350234 120.696406) scale(0.09 -0.09)">
     <use xlink:href="#DejaVuSans-2d"/>
     <use xlink:href="#DejaVuSans-31" transform="translate(36.083984 0)"/>
     <use xlink:href="#DejaVuSans-32" transform="translate(99.707031 0)"/>
    </g>
   </g>
   <g id="text_17">
    <g id="patch_19">
     <path d="M 171.450234 81.018125 
L 186.149766 81.018125 
Q 187.499766 81.018125 187.499766 79.668125 
L 187.499766 70.957812 
Q 187.499766 69.607812 186.149766 69.607812 
L 171.450234 69.607812 
Q 170.100234 69.607812 170.100234 70.957812 
L 170.100234 79.668125 
Q 170.100234 81.018125 171.450234 81.018125 
z
" style="fill: #ffffff; opacity: 0.3"/>
    </g>
    <!-- -13 -->
    <g style="opacity: 0.4" transform="translate(171.450234 77.796406) scale(0.09 -0.09)">
     <use xlink:href="#DejaVuSans-2d"/>
     <use xlink:href="#DejaVuSans-31" transform="translate(36.083984 0)"/>
     <use xlink:href="#DejaVuSans-33" transform="translate(99.707031 0)"/>
    </g>
   </g>
   <g id="text_18">
    <g id="patch_20">
     <path d="M 128.550234 123.918125 
L 143.249766 123.918125 
Q 144.599766 123.918125 144.599766 122.568125 
L 144.599766 113.857812 
Q 144.599766 112.507812 143.249766 112.507812 
L 128.550234 112.507812 
Q 127.200234 112.507812 127.200234 113.857812 
L 127.200234 122.568125 
Q 127.200234 123.918125 128.550234 123.918125 
z
" style="fill: #ffffff; opacity: 0.3"/>
    </g>
    <!-- -14 -->
    <g style="opacity: 0.4" transform="translate(128.550234 120.696406) scale(0.09 -0.09)">
     <use xlink:href="#DejaVuSans-2d"/>
     <use xlink:href="#DejaVuSans-31" transform="translate(36.083984 0)"/>
     <use xlink:href="#DejaVuSans-34" transform="translate(99.707031 0)"/>
    </g>
   </g>
   <g id="text_19">
    <g id="patch_21">
     <path d="M 85.650234 166.818125 
L 100.349766 166.818125 
Q 101.699766 166.818125 101.699766 165.468125 
L 101.699766 156.757812 
Q 101.699766 155.407812 100.349766 155.407812 
L 85.650234 155.407812 
Q 84.300234 155.407812 84.300234 156.757812 
L 84.300234 165.468125 
Q 84.300234 166.818125 85.650234 166.818125 
z
" style="fill: #ffffff; opacity: 0.3"/>
    </g>
    <!-- -15 -->
    <g style="opacity: 0.4" transform="translate(85.650234 163.596406) scale(0.09 -0.09)">
     <use xlink:href="#DejaVuSans-2d"/>
     <use xlink:href="#DejaVuSans-31" transform="translate(36.083984 0)"/>
     <use xlink:href="#DejaVuSans-35" transform="translate(99.707031 0)"/>
    </g>
   </g>
   <g id="text_20">
    <g id="patch_22">
     <path d="M 42.750234 209.718125 
L 57.449766 209.718125 
Q 58.799766 209.718125 58.799766 208.368125 
L 58.799766 199.657812 
Q 58.799766 198.307812 57.449766 198.307812 
L 42.750234 198.307812 
Q 41.400234 198.307812 41.400234 199.657812 
L 41.400234 208.368125 
Q 41.400234 209.718125 42.750234 209.718125 
z
" style="fill: #ffffff; opacity: 0.3"/>
    </g>
    <!-- -16 -->
    <g style="opacity: 0.4" transform="translate(42.750234 206.496406) scale(0.09 -0.09)">
     <defs>
      <path id="DejaVuSans-36" d="M 2113 2584 
Q 1688 2584 1439 2293 
Q 1191 2003 1191 1497 
Q 1191 994 1439 701 
Q 1688 409 2113 409 
Q 2538 409 2786 701 
Q 3034 994 3034 1497 
Q 3034 2003 2786 2293 
Q 2538 2584 2113 2584 
z
M 3366 4563 
L 3366 3988 
Q 3128 4100 2886 4159 
Q 2644 4219 2406 4219 
Q 1781 4219 1451 3797 
Q 1122 3375 1075 2522 
Q 1259 2794 1537 2939 
Q 1816 3084 2150 3084 
Q 2853 3084 3261 2657 
Q 3669 2231 3669 1497 
Q 3669 778 3244 343 
Q 2819 -91 2113 -91 
Q 1303 -91 875 529 
Q 447 1150 447 2328 
Q 447 3434 972 4092 
Q 1497 4750 2381 4750 
Q 2619 4750 2861 4703 
Q 3103 4656 3366 4563 
z
" transform="scale(0.015625)"/>
     </defs>
     <use xlink:href="#DejaVuSans-2d"/>
     <use xlink:href="#DejaVuSans-31" transform="translate(36.083984 0)"/>
     <use xlink:href="#DejaVuSans-36" transform="translate(99.707031 0)"/>
    </g>
   </g>
   <g id="text_21">
    <g id="patch_23">
     <path d="M 180.936875 295.518125 
L 186.663125 295.518125 
Q 188.013125 295.518125 188.013125 294.168125 
L 188.013125 285.457812 
Q 188.013125 284.107812 186.663125 284.107812 
L 180.936875 284.107812 
Q 179.586875 284.107812 179.586875 285.457812 
L 179.586875 294.168125 
Q 179.586875 295.518125 180.936875 295.518125 
z
" style="fill: #ffffff; opacity: 0.3"/>
    </g>
    <!-- 1 -->
    <g style="opacity: 0.4" transform="translate(180.936875 292.296406) scale(0.09 -0.09)">
     <use xlink:href="#DejaVuSans-31"/>
    </g>
   </g>
   <g id="text_22">
    <g id="patch_24">
     <path d="M 218.836875 295.518125 
L 224.563125 295.518125 
Q 225.913125 295.518125 225.913125 294.168125 
L 225.913125 285.457812 
Q 225.913125 284.107812 224.563125 284.107812 
L 218.836875 284.107812 
Q 217.486875 284.107812 217.486875 285.457812 
L 217.486875 294.168125 
Q 217.486875 295.518125 218.836875 295.518125 
z
" style="fill: #ffffff; opacity: 0.3"/>
    </g>
    <!-- 2 -->
    <g style="opacity: 0.4" transform="translate(218.836875 292.296406) scale(0.09 -0.09)">
     <use xlink:href="#DejaVuSans-32"/>
    </g>
   </g>
   <g id="text_23">
    <g id="patch_25">
     <path d="M 180.936875 338.418125 
L 186.663125 338.418125 
Q 188.013125 338.418125 188.013125 337.068125 
L 188.013125 328.357812 
Q 188.013125 327.007812 186.663125 327.007812 
L 180.936875 327.007812 
Q 179.586875 327.007812 179.586875 328.357812 
L 179.586875 337.068125 
Q 179.586875 338.418125 180.936875 338.418125 
z
" style="fill: #ffffff; opacity: 0.3"/>
    </g>
    <!-- 3 -->
    <g style="opacity: 0.4" transform="translate(180.936875 335.196406) scale(0.09 -0.09)">
     <use xlink:href="#DejaVuSans-33"/>
    </g>
   </g>
   <g id="text_24">
    <g id="patch_26">
     <path d="M 133.036875 295.518125 
L 138.763125 295.518125 
Q 140.113125 295.518125 140.113125 294.168125 
L 140.113125 285.457812 
Q 140.113125 284.107812 138.763125 284.107812 
L 133.036875 284.107812 
Q 131.686875 284.107812 131.686875 285.457812 
L 131.686875 294.168125 
Q 131.686875 295.518125 133.036875 295.518125 
z
" style="fill: #ffffff; opacity: 0.3"/>
    </g>
    <!-- 4 -->
    <g style="opacity: 0.4" transform="translate(133.036875 292.296406) scale(0.09 -0.09)">
     <use xlink:href="#DejaVuSans-34"/>
    </g>
   </g>
   <g id="text_25">
    <g id="patch_27">
     <path d="M 90.136875 295.518125 
L 95.863125 295.518125 
Q 97.213125 295.518125 97.213125 294.168125 
L 97.213125 285.457812 
Q 97.213125 284.107812 95.863125 284.107812 
L 90.136875 284.107812 
Q 88.786875 284.107812 88.786875 285.457812 
L 88.786875 294.168125 
Q 88.786875 295.518125 90.136875 295.518125 
z
" style="fill: #ffffff; opacity: 0.3"/>
    </g>
    <!-- 5 -->
    <g style="opacity: 0.4" transform="translate(90.136875 292.296406) scale(0.09 -0.09)">
     <use xlink:href="#DejaVuSans-35"/>
    </g>
   </g>
   <g id="text_26">
    <g id="patch_28">
     <path d="M 133.036875 338.418125 
L 138.763125 338.418125 
Q 140.113125 338.418125 140.113125 337.068125 
L 140.113125 328.357812 
Q 140.113125 327.007812 138.763125 327.007812 
L 133.036875 327.007812 
Q 131.686875 327.007812 131.686875 328.357812 
L 131.686875 337.068125 
Q 131.686875 338.418125 133.036875 338.418125 
z
" style="fill: #ffffff; opacity: 0.3"/>
    </g>
    <!-- 6 -->
    <g style="opacity: 0.4" transform="translate(133.036875 335.196406) scale(0.09 -0.09)">
     <use xlink:href="#DejaVuSans-36"/>
    </g>
   </g>
   <g id="text_27">
    <g id="patch_29">
     <path d="M 175.936875 381.318125 
L 181.663125 381.318125 
Q 183.013125 381.318125 183.013125 379.968125 
L 183.013125 371.257812 
Q 183.013125 369.907812 181.663125 369.907812 
L 175.936875 369.907812 
Q 174.586875 369.907812 174.586875 371.257812 
L 174.586875 379.968125 
Q 174.586875 381.318125 175.936875 381.318125 
z
" style="fill: #ffffff; opacity: 0.3"/>
    </g>
    <!-- 7 -->
    <g style="opacity: 0.4" transform="translate(175.936875 378.096406) scale(0.09 -0.09)">
     <use xlink:href="#DejaVuSans-37"/>
    </g>
   </g>
   <g id="text_28">
    <g id="patch_30">
     <path d="M 218.568984 338.418125 
L 224.831016 338.418125 
Q 226.181016 338.418125 226.181016 337.068125 
L 226.181016 328.357812 
Q 226.181016 327.007812 224.831016 327.007812 
L 218.568984 327.007812 
Q 217.218984 327.007812 217.218984 328.357812 
L 217.218984 337.068125 
Q 217.218984 338.418125 218.568984 338.418125 
z
" style="fill: #ffffff; opacity: 0.7"/>
    </g>
    <!-- 8 -->
    <g transform="translate(218.568984 335.196406) scale(0.09 -0.09)">
     <defs>
      <path id="DejaVuSans-Bold-38" d="M 2228 2088 
Q 1891 2088 1709 1903 
Q 1528 1719 1528 1375 
Q 1528 1031 1709 848 
Q 1891 666 2228 666 
Q 2563 666 2741 848 
Q 2919 1031 2919 1375 
Q 2919 1722 2741 1905 
Q 2563 2088 2228 2088 
z
M 1350 2484 
Q 925 2613 709 2878 
Q 494 3144 494 3541 
Q 494 4131 934 4440 
Q 1375 4750 2228 4750 
Q 3075 4750 3515 4442 
Q 3956 4134 3956 3541 
Q 3956 3144 3739 2878 
Q 3522 2613 3097 2484 
Q 3572 2353 3814 2058 
Q 4056 1763 4056 1313 
Q 4056 619 3595 264 
Q 3134 -91 2228 -91 
Q 1319 -91 855 264 
Q 391 619 391 1313 
Q 391 1763 633 2058 
Q 875 2353 1350 2484 
z
M 1631 3419 
Q 1631 3141 1786 2991 
Q 1941 2841 2228 2841 
Q 2509 2841 2662 2991 
Q 2816 3141 2816 3419 
Q 2816 3697 2662 3845 
Q 2509 3994 2228 3994 
Q 1941 3994 1786 3844 
Q 1631 3694 1631 3419 
z
" transform="scale(0.015625)"/>
     </defs>
     <use xlink:href="#DejaVuSans-Bold-38"/>
    </g>
   </g>
   <g id="text_29">
    <g id="patch_31">
     <path d="M 261.736875 295.518125 
L 267.463125 295.518125 
Q 268.813125 295.518125 268.813125 294.168125 
L 268.813125 285.457812 
Q 268.813125 284.107812 267.463125 284.107812 
L 261.736875 284.107812 
Q 260.386875 284.107812 260.386875 285.457812 
L 260.386875 294.168125 
Q 260.386875 295.518125 261.736875 295.518125 
z
" style="fill: #ffffff; opacity: 0.3"/>
    </g>
    <!-- 9 -->
    <g style="opacity: 0.4" transform="translate(261.736875 292.296406) scale(0.09 -0.09)">
     <use xlink:href="#DejaVuSans-39"/>
    </g>
   </g>
   <g id="text_30">
    <g id="patch_32">
     <path d="M 301.77375 295.518125 
L 313.22625 295.518125 
Q 314.57625 295.518125 314.57625 294.168125 
L 314.57625 285.457812 
Q 314.57625 284.107812 313.22625 284.107812 
L 301.77375 284.107812 
Q 300.42375 284.107812 300.42375 285.457812 
L 300.42375 294.168125 
Q 300.42375 295.518125 301.77375 295.518125 
z
" style="fill: #ffffff; opacity: 0.3"/>
    </g>
    <!-- 10 -->
    <g style="opacity: 0.4" transform="translate(301.77375 292.296406) scale(0.09 -0.09)">
     <use xlink:href="#DejaVuSans-31"/>
     <use xlink:href="#DejaVuSans-30" transform="translate(63.623047 0)"/>
    </g>
   </g>
   <g id="text_31">
    <g id="patch_33">
     <path d="M 258.87375 338.418125 
L 270.32625 338.418125 
Q 271.67625 338.418125 271.67625 337.068125 
L 271.67625 328.357812 
Q 271.67625 327.007812 270.32625 327.007812 
L 258.87375 327.007812 
Q 257.52375 327.007812 257.52375 328.357812 
L 257.52375 337.068125 
Q 257.52375 338.418125 258.87375 338.418125 
z
" style="fill: #ffffff; opacity: 0.3"/>
    </g>
    <!-- 11 -->
    <g style="opacity: 0.4" transform="translate(258.87375 335.196406) scale(0.09 -0.09)">
     <use xlink:href="#DejaVuSans-31"/>
     <use xlink:href="#DejaVuSans-31" transform="translate(63.623047 0)"/>
    </g>
   </g>
   <g id="text_32">
    <g id="patch_34">
     <path d="M 215.97375 381.318125 
L 227.42625 381.318125 
Q 228.77625 381.318125 228.77625 379.968125 
L 228.77625 371.257812 
Q 228.77625 369.907812 227.42625 369.907812 
L 215.97375 369.907812 
Q 214.62375 369.907812 214.62375 371.257812 
L 214.62375 379.968125 
Q 214.62375 381.318125 215.97375 381.318125 
z
" style="fill: #ffffff; opacity: 0.3"/>
    </g>
    <!-- 12 -->
    <g style="opacity: 0.4" transform="translate(215.97375 378.096406) scale(0.09 -0.09)">
     <use xlink:href="#DejaVuSans-31"/>
     <use xlink:href="#DejaVuSans-32" transform="translate(63.623047 0)"/>
    </g>
   </g>
   <g id="text_33">
    <g id="patch_35">
     <path d="M 173.07375 424.218125 
L 184.52625 424.218125 
Q 185.87625 424.218125 185.87625 422.868125 
L 185.87625 414.157812 
Q 185.87625 412.807812 184.52625 412.807812 
L 173.07375 412.807812 
Q 171.72375 412.807812 171.72375 414.157812 
L 171.72375 422.868125 
Q 171.72375 424.218125 173.07375 424.218125 
z
" style="fill: #ffffff; opacity: 0.3"/>
    </g>
    <!-- 13 -->
    <g style="opacity: 0.4" transform="translate(173.07375 420.996406) scale(0.09 -0.09)">
     <use xlink:href="#DejaVuSans-31"/>
     <use xlink:href="#DejaVuSans-33" transform="translate(63.623047 0)"/>
    </g>
   </g>
   <g id="text_34">
    <g id="patch_36">
     <path d="M 130.17375 381.318125 
L 141.62625 381.318125 
Q 142.97625 381.318125 142.97625 379.968125 
L 142.97625 371.257812 
Q 142.97625 369.907812 141.62625 369.907812 
L 130.17375 369.907812 
Q 128.82375 369.907812 128.82375 371.257812 
L 128.82375 379.968125 
Q 128.82375 381.318125 130.17375 381.318125 
z
" style="fill: #ffffff; opacity: 0.3"/>
    </g>
    <!-- 14 -->
    <g style="opacity: 0.4" transform="translate(130.17375 378.096406) scale(0.09 -0.09)">
     <use xlink:href="#DejaVuSans-31"/>
     <use xlink:href="#DejaVuSans-34" transform="translate(63.623047 0)"/>
    </g>
   </g>
   <g id="text_35">
    <g id="patch_37">
     <path d="M 87.27375 338.418125 
L 98.72625 338.418125 
Q 100.07625 338.418125 100.07625 337.068125 
L 100.07625 328.357812 
Q 100.07625 327.007812 98.72625 327.007812 
L 87.27375 327.007812 
Q 85.92375 327.007812 85.92375 328.357812 
L 85.92375 337.068125 
Q 85.92375 338.418125 87.27375 338.418125 
z
" style="fill: #ffffff; opacity: 0.3"/>
    </g>
    <!-- 15 -->
    <g style="opacity: 0.4" transform="translate(87.27375 335.196406) scale(0.09 -0.09)">
     <use xlink:href="#DejaVuSans-31"/>
     <use xlink:href="#DejaVuSans-35" transform="translate(63.623047 0)"/>
    </g>
   </g>
   <g id="text_36">
    <g id="patch_38">
     <path d="M 44.37375 295.518125 
L 55.82625 295.518125 
Q 57.17625 295.518125 57.17625 294.168125 
L 57.17625 285.457812 
Q 57.17625 284.107812 55.82625 284.107812 
L 44.37375 284.107812 
Q 43.02375 284.107812 43.02375 285.457812 
L 43.02375 294.168125 
Q 43.02375 295.518125 44.37375 295.518125 
z
" style="fill: #ffffff; opacity: 0.3"/>
    </g>
    <!-- 16 -->
    <g style="opacity: 0.4" transform="translate(44.37375 292.296406) scale(0.09 -0.09)">
     <use xlink:href="#DejaVuSans-31"/>
     <use xlink:href="#DejaVuSans-36" transform="translate(63.623047 0)"/>
    </g>
   </g>
   <g id="line2d_33">
    <path d="M 221.7 344.068125 
" clip-path="url(#p252ce07647)" style="fill: none; stroke: #1f77b4; stroke-width: 1.5; stroke-linecap: square"/>
    <defs>
     <path id="mfa77041eb4" d="M 0 8 
C 2.121625 8 4.156639 7.15707 5.656854 5.656854 
C 7.15707 4.156639 8 2.121625 8 0 
C 8 -2.121625 7.15707 -4.156639 5.656854 -5.656854 
C 4.156639 -7.15707 2.121625 -8 0 -8 
C -2.121625 -8 -4.156639 -7.15707 -5.656854 -5.656854 
C -7.15707 -4.156639 -8 -2.121625 -8 0 
C -8 2.121625 -7.15707 4.156639 -5.656854 5.656854 
C -4.156639 7.15707 -2.121625 8 0 8 
z
" style="stroke: #ff0000; stroke-width: 3"/>
    </defs>
    <g clip-path="url(#p252ce07647)">
     <use xlink:href="#mfa77041eb4" x="221.7" y="344.068125" style="fill-opacity: 0; stroke: #ff0000; stroke-width: 3"/>
    </g>
   </g>
   <g id="line2d_34">
    <path d="M 178.8 258.268125 
" clip-path="url(#p252ce07647)" style="fill: none; stroke: #ff0000; stroke-width: 1.5; stroke-linecap: square"/>
    <defs>
     <path id="m43902e6e71" d="M 0 7 
C 1.856422 7 3.637059 6.262436 4.949747 4.949747 
C 6.262436 3.637059 7 1.856422 7 0 
C 7 -1.856422 6.262436 -3.637059 4.949747 -4.949747 
C 3.637059 -6.262436 1.856422 -7 0 -7 
C -1.856422 -7 -3.637059 -6.262436 -4.949747 -4.949747 
C -6.262436 -3.637059 -7 -1.856422 -7 0 
C -7 1.856422 -6.262436 3.637059 -4.949747 4.949747 
C -3.637059 6.262436 -1.856422 7 0 7 
z
" style="stroke: #000000"/>
    </defs>
    <g clip-path="url(#p252ce07647)">
     <use xlink:href="#m43902e6e71" x="178.8" y="258.268125" style="fill: #ff0000; stroke: #000000"/>
    </g>
   </g>
  </g>
  <g id="axes_2">
   <g id="table_1">
    <g id="patch_39">
     <path d="M 393.6 50.076949 
L 407.328 50.076949 
L 407.328 22.318125 
L 393.6 22.318125 
z
" style="fill: #f2f2f2; stroke: #000000; stroke-linejoin: miter"/>
    </g>
    <g id="patch_40">
     <path d="M 407.328 50.076949 
L 475.968 50.076949 
L 475.968 22.318125 
L 407.328 22.318125 
z
" style="fill: #f2f2f2; stroke: #000000; stroke-linejoin: miter"/>
    </g>
    <g id="text_37">
     <!-- d -->
     <g transform="translate(438.473781 38.956912) scale(0.1 -0.1)">
      <use xlink:href="#DejaVuSans-64"/>
     </g>
    </g>
    <g id="patch_41">
     <path d="M 475.968 50.076949 
L 565.2 50.076949 
L 565.2 22.318125 
L 475.968 22.318125 
z
" style="fill: #f2f2f2; stroke: #000000; stroke-linejoin: miter"/>
    </g>
    <g id="text_38">
     <!-- Wire length -->
     <g transform="translate(491.817594 38.956912) scale(0.1 -0.1)">
      <defs>
       <path id="DejaVuSans-57" d="M 213 4666 
L 850 4666 
L 1831 722 
L 2809 4666 
L 3519 4666 
L 4500 722 
L 5478 4666 
L 6119 4666 
L 4947 0 
L 4153 0 
L 3169 4050 
L 2175 0 
L 1381 0 
L 213 4666 
z
" transform="scale(0.015625)"/>
       <path id="DejaVuSans-6c" d="M 603 4863 
L 1178 4863 
L 1178 0 
L 603 0 
L 603 4863 
z
" transform="scale(0.015625)"/>
       <path id="DejaVuSans-67" d="M 2906 1791 
Q 2906 2416 2648 2759 
Q 2391 3103 1925 3103 
Q 1463 3103 1205 2759 
Q 947 2416 947 1791 
Q 947 1169 1205 825 
Q 1463 481 1925 481 
Q 2391 481 2648 825 
Q 2906 1169 2906 1791 
z
M 3481 434 
Q 3481 -459 3084 -895 
Q 2688 -1331 1869 -1331 
Q 1566 -1331 1297 -1286 
Q 1028 -1241 775 -1147 
L 775 -588 
Q 1028 -725 1275 -790 
Q 1522 -856 1778 -856 
Q 2344 -856 2625 -561 
Q 2906 -266 2906 331 
L 2906 616 
Q 2728 306 2450 153 
Q 2172 0 1784 0 
Q 1141 0 747 490 
Q 353 981 353 1791 
Q 353 2603 747 3093 
Q 1141 3584 1784 3584 
Q 2172 3584 2450 3431 
Q 2728 3278 2906 2969 
L 2906 3500 
L 3481 3500 
L 3481 434 
z
" transform="scale(0.015625)"/>
      </defs>
      <use xlink:href="#DejaVuSans-57"/>
      <use xlink:href="#DejaVuSans-69" transform="translate(96.626953 0)"/>
      <use xlink:href="#DejaVuSans-72" transform="translate(124.410156 0)"/>
      <use xlink:href="#DejaVuSans-65" transform="translate(163.273438 0)"/>
      <use xlink:href="#DejaVuSans-20" transform="translate(224.796875 0)"/>
      <use xlink:href="#DejaVuSans-6c" transform="translate(256.583984 0)"/>
      <use xlink:href="#DejaVuSans-65" transform="translate(284.367188 0)"/>
      <use xlink:href="#DejaVuSans-6e" transform="translate(345.890625 0)"/>
      <use xlink:href="#DejaVuSans-67" transform="translate(409.269531 0)"/>
      <use xlink:href="#DejaVuSans-74" transform="translate(472.746094 0)"/>
      <use xlink:href="#DejaVuSans-68" transform="translate(511.955078 0)"/>
     </g>
    </g>
    <g id="patch_42">
     <path d="M 393.6 77.835772 
L 407.328 77.835772 
L 407.328 50.076949 
L 393.6 50.076949 
z
" style="fill: #d62728; stroke: #ffffff; stroke-linejoin: miter"/>
    </g>
    <g id="patch_43">
     <path d="M 407.328 77.835772 
L 475.968 77.835772 
L 475.968 50.076949 
L 407.328 50.076949 
z
" style="fill: #ffffff; stroke: #000000; stroke-linejoin: miter"/>
    </g>
    <g id="text_39">
     <!-- 1 -->
     <g transform="translate(438.46675 66.715735) scale(0.1 -0.1)">
      <use xlink:href="#DejaVuSans-31"/>
     </g>
    </g>
    <g id="patch_44">
     <path d="M 475.968 77.835772 
L 565.2 77.835772 
L 565.2 50.076949 
L 475.968 50.076949 
z
" style="fill: #ffffff; stroke: #000000; stroke-linejoin: miter"/>
    </g>
    <g id="text_40">
     <!-- 1 -->
     <g transform="translate(517.40275 66.715735) scale(0.1 -0.1)">
      <use xlink:href="#DejaVuSans-31"/>
     </g>
    </g>
    <g id="patch_45">
     <path d="M 393.6 105.594596 
L 407.328 105.594596 
L 407.328 77.835772 
L 393.6 77.835772 
z
" style="fill: #ff7f0e; stroke: #ffffff; stroke-linejoin: miter"/>
    </g>
    <g id="patch_46">
     <path d="M 407.328 105.594596 
L 475.968 105.594596 
L 475.968 77.835772 
L 407.328 77.835772 
z
" style="fill: #ffffff; stroke: #000000; stroke-linejoin: miter"/>
    </g>
    <g id="text_41">
     <!-- 2 -->
     <g transform="translate(438.46675 94.474559) scale(0.1 -0.1)">
      <use xlink:href="#DejaVuSans-32"/>
     </g>
    </g>
    <g id="patch_47">
     <path d="M 475.968 105.594596 
L 565.2 105.594596 
L 565.2 77.835772 
L 475.968 77.835772 
z
" style="fill: #ffffff; stroke: #000000; stroke-linejoin: miter"/>
    </g>
    <g id="text_42">
     <!-- 2 -->
     <g transform="translate(517.40275 94.474559) scale(0.1 -0.1)">
      <use xlink:href="#DejaVuSans-32"/>
     </g>
    </g>
    <g id="patch_48">
     <path d="M 393.6 133.353419 
L 407.328 133.353419 
L 407.328 105.594596 
L 393.6 105.594596 
z
" style="fill: #ff7f0e; stroke: #ffffff; stroke-linejoin: miter"/>
    </g>
    <g id="patch_49">
     <path d="M 407.328 133.353419 
L 475.968 133.353419 
L 475.968 105.594596 
L 407.328 105.594596 
z
" style="fill: #ffffff; stroke: #000000; stroke-linejoin: miter"/>
    </g>
    <g id="text_43">
     <!-- 3 -->
     <g transform="translate(438.46675 122.233382) scale(0.1 -0.1)">
      <use xlink:href="#DejaVuSans-33"/>
     </g>
    </g>
    <g id="patch_50">
     <path d="M 475.968 133.353419 
L 565.2 133.353419 
L 565.2 105.594596 
L 475.968 105.594596 
z
" style="fill: #ffffff; stroke: #000000; stroke-linejoin: miter"/>
    </g>
    <g id="text_44">
     <!-- 2 -->
     <g transform="translate(517.40275 122.233382) scale(0.1 -0.1)">
      <use xlink:href="#DejaVuSans-32"/>
     </g>
    </g>
    <g id="patch_51">
     <path d="M 393.6 161.112243 
L 407.328 161.112243 
L 407.328 133.353419 
L 393.6 133.353419 
z
" style="fill: #ff7f0e; stroke: #ffffff; stroke-linejoin: miter"/>
    </g>
    <g id="patch_52">
     <path d="M 407.328 161.112243 
L 475.968 161.112243 
L 475.968 133.353419 
L 407.328 133.353419 
z
" style="fill: #ffffff; stroke: #000000; stroke-linejoin: miter"/>
    </g>
    <g id="text_45">
     <!-- 4 -->
     <g transform="translate(438.46675 149.992206) scale(0.1 -0.1)">
      <use xlink:href="#DejaVuSans-34"/>
     </g>
    </g>
    <g id="patch_53">
     <path d="M 475.968 161.112243 
L 565.2 161.112243 
L 565.2 133.353419 
L 475.968 133.353419 
z
" style="fill: #ffffff; stroke: #000000; stroke-linejoin: miter"/>
    </g>
    <g id="text_46">
     <!-- 2 -->
     <g transform="translate(517.40275 149.992206) scale(0.1 -0.1)">
      <use xlink:href="#DejaVuSans-32"/>
     </g>
    </g>
    <g id="patch_54">
     <path d="M 393.6 188.871066 
L 407.328 188.871066 
L 407.328 161.112243 
L 393.6 161.112243 
z
" style="fill: #2ca02c; stroke: #ffffff; stroke-linejoin: miter"/>
    </g>
    <g id="patch_55">
     <path d="M 407.328 188.871066 
L 475.968 188.871066 
L 475.968 161.112243 
L 407.328 161.112243 
z
" style="fill: #ffffff; stroke: #000000; stroke-linejoin: miter"/>
    </g>
    <g id="text_47">
     <!-- 5 -->
     <g transform="translate(438.46675 177.751029) scale(0.1 -0.1)">
      <use xlink:href="#DejaVuSans-35"/>
     </g>
    </g>
    <g id="patch_56">
     <path d="M 475.968 188.871066 
L 565.2 188.871066 
L 565.2 161.112243 
L 475.968 161.112243 
z
" style="fill: #ffffff; stroke: #000000; stroke-linejoin: miter"/>
    </g>
    <g id="text_48">
     <!-- 3 -->
     <g transform="translate(517.40275 177.751029) scale(0.1 -0.1)">
      <use xlink:href="#DejaVuSans-33"/>
     </g>
    </g>
    <g id="patch_57">
     <path d="M 393.6 216.62989 
L 407.328 216.62989 
L 407.328 188.871066 
L 393.6 188.871066 
z
" style="fill: #2ca02c; stroke: #ffffff; stroke-linejoin: miter"/>
    </g>
    <g id="patch_58">
     <path d="M 407.328 216.62989 
L 475.968 216.62989 
L 475.968 188.871066 
L 407.328 188.871066 
z
" style="fill: #ffffff; stroke: #000000; stroke-linejoin: miter"/>
    </g>
    <g id="text_49">
     <!-- 6 -->
     <g transform="translate(438.46675 205.509853) scale(0.1 -0.1)">
      <use xlink:href="#DejaVuSans-36"/>
     </g>
    </g>
    <g id="patch_59">
     <path d="M 475.968 216.62989 
L 565.2 216.62989 
L 565.2 188.871066 
L 475.968 188.871066 
z
" style="fill: #ffffff; stroke: #000000; stroke-linejoin: miter"/>
    </g>
    <g id="text_50">
     <!-- 3 -->
     <g transform="translate(517.40275 205.509853) scale(0.1 -0.1)">
      <use xlink:href="#DejaVuSans-33"/>
     </g>
    </g>
    <g id="patch_60">
     <path d="M 393.6 244.388713 
L 407.328 244.388713 
L 407.328 216.62989 
L 393.6 216.62989 
z
" style="fill: #2ca02c; stroke: #ffffff; stroke-linejoin: miter"/>
    </g>
    <g id="patch_61">
     <path d="M 407.328 244.388713 
L 475.968 244.388713 
L 475.968 216.62989 
L 407.328 216.62989 
z
" style="fill: #ffffff; stroke: #000000; stroke-linejoin: miter"/>
    </g>
    <g id="text_51">
     <!-- 7 -->
     <g transform="translate(438.46675 233.268676) scale(0.1 -0.1)">
      <use xlink:href="#DejaVuSans-37"/>
     </g>
    </g>
    <g id="patch_62">
     <path d="M 475.968 244.388713 
L 565.2 244.388713 
L 565.2 216.62989 
L 475.968 216.62989 
z
" style="fill: #ffffff; stroke: #000000; stroke-linejoin: miter"/>
    </g>
    <g id="text_52">
     <!-- 3 -->
     <g transform="translate(517.40275 233.268676) scale(0.1 -0.1)">
      <use xlink:href="#DejaVuSans-33"/>
     </g>
    </g>
    <g id="patch_63">
     <path d="M 393.6 272.147537 
L 407.328 272.147537 
L 407.328 244.388713 
L 393.6 244.388713 
z
" style="fill: #2ca02c; stroke: #ffffff; stroke-linejoin: miter"/>
    </g>
    <g id="patch_64">
     <path d="M 407.328 272.147537 
L 475.968 272.147537 
L 475.968 244.388713 
L 407.328 244.388713 
z
" style="fill: #ffcccc; stroke: #000000; stroke-linejoin: miter"/>
    </g>
    <g id="text_53">
     <!-- 8 -->
     <g transform="translate(438.169094 261.0275) scale(0.1 -0.1)">
      <use xlink:href="#DejaVuSans-Bold-38"/>
     </g>
    </g>
    <g id="patch_65">
     <path d="M 475.968 272.147537 
L 565.2 272.147537 
L 565.2 244.388713 
L 475.968 244.388713 
z
" style="fill: #ffcccc; stroke: #000000; stroke-linejoin: miter"/>
    </g>
    <g id="text_54">
     <!-- 3 -->
     <g transform="translate(517.105094 261.0275) scale(0.1 -0.1)">
      <defs>
       <path id="DejaVuSans-Bold-33" d="M 2981 2516 
Q 3453 2394 3698 2092 
Q 3944 1791 3944 1325 
Q 3944 631 3412 270 
Q 2881 -91 1863 -91 
Q 1503 -91 1142 -33 
Q 781 25 428 141 
L 428 1069 
Q 766 900 1098 814 
Q 1431 728 1753 728 
Q 2231 728 2486 893 
Q 2741 1059 2741 1369 
Q 2741 1688 2480 1852 
Q 2219 2016 1709 2016 
L 1228 2016 
L 1228 2791 
L 1734 2791 
Q 2188 2791 2409 2933 
Q 2631 3075 2631 3366 
Q 2631 3634 2415 3781 
Q 2200 3928 1806 3928 
Q 1516 3928 1219 3862 
Q 922 3797 628 3669 
L 628 4550 
Q 984 4650 1334 4700 
Q 1684 4750 2022 4750 
Q 2931 4750 3382 4451 
Q 3834 4153 3834 3553 
Q 3834 3144 3618 2883 
Q 3403 2622 2981 2516 
z
" transform="scale(0.015625)"/>
      </defs>
      <use xlink:href="#DejaVuSans-Bold-33"/>
     </g>
    </g>
    <g id="patch_66">
     <path d="M 393.6 299.90636 
L 407.328 299.90636 
L 407.328 272.147537 
L 393.6 272.147537 
z
" style="fill: #2ca02c; stroke: #ffffff; stroke-linejoin: miter"/>
    </g>
    <g id="patch_67">
     <path d="M 407.328 299.90636 
L 475.968 299.90636 
L 475.968 272.147537 
L 407.328 272.147537 
z
" style="fill: #ffffff; stroke: #000000; stroke-linejoin: miter"/>
    </g>
    <g id="text_55">
     <!-- 9 -->
     <g transform="translate(438.46675 288.786324) scale(0.1 -0.1)">
      <use xlink:href="#DejaVuSans-39"/>
     </g>
    </g>
    <g id="patch_68">
     <path d="M 475.968 299.90636 
L 565.2 299.90636 
L 565.2 272.147537 
L 475.968 272.147537 
z
" style="fill: #ffffff; stroke: #000000; stroke-linejoin: miter"/>
    </g>
    <g id="text_56">
     <!-- 3 -->
     <g transform="translate(517.40275 288.786324) scale(0.1 -0.1)">
      <use xlink:href="#DejaVuSans-33"/>
     </g>
    </g>
    <g id="patch_69">
     <path d="M 393.6 327.665184 
L 407.328 327.665184 
L 407.328 299.90636 
L 393.6 299.90636 
z
" style="fill: #1f77b4; stroke: #ffffff; stroke-linejoin: miter"/>
    </g>
    <g id="patch_70">
     <path d="M 407.328 327.665184 
L 475.968 327.665184 
L 475.968 299.90636 
L 407.328 299.90636 
z
" style="fill: #ffffff; stroke: #000000; stroke-linejoin: miter"/>
    </g>
    <g id="text_57">
     <!-- 10 -->
     <g transform="translate(435.2855 316.545147) scale(0.1 -0.1)">
      <use xlink:href="#DejaVuSans-31"/>
      <use xlink:href="#DejaVuSans-30" transform="translate(63.623047 0)"/>
     </g>
    </g>
    <g id="patch_71">
     <path d="M 475.968 327.665184 
L 565.2 327.665184 
L 565.2 299.90636 
L 475.968 299.90636 
z
" style="fill: #ffffff; stroke: #000000; stroke-linejoin: miter"/>
    </g>
    <g id="text_58">
     <!-- 4 -->
     <g transform="translate(517.40275 316.545147) scale(0.1 -0.1)">
      <use xlink:href="#DejaVuSans-34"/>
     </g>
    </g>
    <g id="patch_72">
     <path d="M 393.6 355.424007 
L 407.328 355.424007 
L 407.328 327.665184 
L 393.6 327.665184 
z
" style="fill: #1f77b4; stroke: #ffffff; stroke-linejoin: miter"/>
    </g>
    <g id="patch_73">
     <path d="M 407.328 355.424007 
L 475.968 355.424007 
L 475.968 327.665184 
L 407.328 327.665184 
z
" style="fill: #ffffff; stroke: #000000; stroke-linejoin: miter"/>
    </g>
    <g id="text_59">
     <!-- 11 -->
     <g transform="translate(435.2855 344.303971) scale(0.1 -0.1)">
      <use xlink:href="#DejaVuSans-31"/>
      <use xlink:href="#DejaVuSans-31" transform="translate(63.623047 0)"/>
     </g>
    </g>
    <g id="patch_74">
     <path d="M 475.968 355.424007 
L 565.2 355.424007 
L 565.2 327.665184 
L 475.968 327.665184 
z
" style="fill: #ffffff; stroke: #000000; stroke-linejoin: miter"/>
    </g>
    <g id="text_60">
     <!-- 4 -->
     <g transform="translate(517.40275 344.303971) scale(0.1 -0.1)">
      <use xlink:href="#DejaVuSans-34"/>
     </g>
    </g>
    <g id="patch_75">
     <path d="M 393.6 383.182831 
L 407.328 383.182831 
L 407.328 355.424007 
L 393.6 355.424007 
z
" style="fill: #1f77b4; stroke: #ffffff; stroke-linejoin: miter"/>
    </g>
    <g id="patch_76">
     <path d="M 407.328 383.182831 
L 475.968 383.182831 
L 475.968 355.424007 
L 407.328 355.424007 
z
" style="fill: #ffffff; stroke: #000000; stroke-linejoin: miter"/>
    </g>
    <g id="text_61">
     <!-- 12 -->
     <g transform="translate(435.2855 372.062794) scale(0.1 -0.1)">
      <use xlink:href="#DejaVuSans-31"/>
      <use xlink:href="#DejaVuSans-32" transform="translate(63.623047 0)"/>
     </g>
    </g>
    <g id="patch_77">
     <path d="M 475.968 383.182831 
L 565.2 383.182831 
L 565.2 355.424007 
L 475.968 355.424007 
z
" style="fill: #ffffff; stroke: #000000; stroke-linejoin: miter"/>
    </g>
    <g id="text_62">
     <!-- 4 -->
     <g transform="translate(517.40275 372.062794) scale(0.1 -0.1)">
      <use xlink:href="#DejaVuSans-34"/>
     </g>
    </g>
    <g id="patch_78">
     <path d="M 393.6 410.941654 
L 407.328 410.941654 
L 407.328 383.182831 
L 393.6 383.182831 
z
" style="fill: #1f77b4; stroke: #ffffff; stroke-linejoin: miter"/>
    </g>
    <g id="patch_79">
     <path d="M 407.328 410.941654 
L 475.968 410.941654 
L 475.968 383.182831 
L 407.328 383.182831 
z
" style="fill: #ffffff; stroke: #000000; stroke-linejoin: miter"/>
    </g>
    <g id="text_63">
     <!-- 13 -->
     <g transform="translate(435.2855 399.821618) scale(0.1 -0.1)">
      <use xlink:href="#DejaVuSans-31"/>
      <use xlink:href="#DejaVuSans-33" transform="translate(63.623047 0)"/>
     </g>
    </g>
    <g id="patch_80">
     <path d="M 475.968 410.941654 
L 565.2 410.941654 
L 565.2 383.182831 
L 475.968 383.182831 
z
" style="fill: #ffffff; stroke: #000000; stroke-linejoin: miter"/>
    </g>
    <g id="text_64">
     <!-- 4 -->
     <g transform="translate(517.40275 399.821618) scale(0.1 -0.1)">
      <use xlink:href="#DejaVuSans-34"/>
     </g>
    </g>
    <g id="patch_81">
     <path d="M 393.6 438.700478 
L 407.328 438.700478 
L 407.328 410.941654 
L 393.6 410.941654 
z
" style="fill: #1f77b4; stroke: #ffffff; stroke-linejoin: miter"/>
    </g>
    <g id="patch_82">
     <path d="M 407.328 438.700478 
L 475.968 438.700478 
L 475.968 410.941654 
L 407.328 410.941654 
z
" style="fill: #ffffff; stroke: #000000; stroke-linejoin: miter"/>
    </g>
    <g id="text_65">
     <!-- 14 -->
     <g transform="translate(435.2855 427.580441) scale(0.1 -0.1)">
      <use xlink:href="#DejaVuSans-31"/>
      <use xlink:href="#DejaVuSans-34" transform="translate(63.623047 0)"/>
     </g>
    </g>
    <g id="patch_83">
     <path d="M 475.968 438.700478 
L 565.2 438.700478 
L 565.2 410.941654 
L 475.968 410.941654 
z
" style="fill: #ffffff; stroke: #000000; stroke-linejoin: miter"/>
    </g>
    <g id="text_66">
     <!-- 4 -->
     <g transform="translate(517.40275 427.580441) scale(0.1 -0.1)">
      <use xlink:href="#DejaVuSans-34"/>
     </g>
    </g>
    <g id="patch_84">
     <path d="M 393.6 466.459301 
L 407.328 466.459301 
L 407.328 438.700478 
L 393.6 438.700478 
z
" style="fill: #1f77b4; stroke: #ffffff; stroke-linejoin: miter"/>
    </g>
    <g id="patch_85">
     <path d="M 407.328 466.459301 
L 475.968 466.459301 
L 475.968 438.700478 
L 407.328 438.700478 
z
" style="fill: #ffffff; stroke: #000000; stroke-linejoin: miter"/>
    </g>
    <g id="text_67">
     <!-- 15 -->
     <g transform="translate(435.2855 455.339265) scale(0.1 -0.1)">
      <use xlink:href="#DejaVuSans-31"/>
      <use xlink:href="#DejaVuSans-35" transform="translate(63.623047 0)"/>
     </g>
    </g>
    <g id="patch_86">
     <path d="M 475.968 466.459301 
L 565.2 466.459301 
L 565.2 438.700478 
L 475.968 438.700478 
z
" style="fill: #ffffff; stroke: #000000; stroke-linejoin: miter"/>
    </g>
    <g id="text_68">
     <!-- 4 -->
     <g transform="translate(517.40275 455.339265) scale(0.1 -0.1)">
      <use xlink:href="#DejaVuSans-34"/>
     </g>
    </g>
    <g id="patch_87">
     <path d="M 393.6 494.218125 
L 407.328 494.218125 
L 407.328 466.459301 
L 393.6 466.459301 
z
" style="fill: #1f77b4; stroke: #ffffff; stroke-linejoin: miter"/>
    </g>
    <g id="patch_88">
     <path d="M 407.328 494.218125 
L 475.968 494.218125 
L 475.968 466.459301 
L 407.328 466.459301 
z
" style="fill: #ffffff; stroke: #000000; stroke-linejoin: miter"/>
    </g>
    <g id="text_69">
     <!-- 16 -->
     <g transform="translate(435.2855 483.098088) scale(0.1 -0.1)">
      <use xlink:href="#DejaVuSans-31"/>
      <use xlink:href="#DejaVuSans-36" transform="translate(63.623047 0)"/>
     </g>
    </g>
    <g id="patch_89">
     <path d="M 475.968 494.218125 
L 565.2 494.218125 
L 565.2 466.459301 
L 475.968 466.459301 
z
" style="fill: #ffffff; stroke: #000000; stroke-linejoin: miter"/>
    </g>
    <g id="text_70">
     <!-- 4 -->
     <g transform="translate(517.40275 483.098088) scale(0.1 -0.1)">
      <use xlink:href="#DejaVuSans-34"/>
     </g>
    </g>
   </g>
  </g>
 </g>
 <defs>
  <clipPath id="p252ce07647">
   <rect x="7.2" y="22.318125" width="343.2" height="471.9"/>
  </clipPath>
 </defs>
</svg>
